<?xml version="1.0" encoding="UTF-8" standalone="no"?>
<!DOCTYPE svg PUBLIC "-//W3C//DTD SVG 1.1//EN"
 "http://www.w3.org/Graphics/SVG/1.1/DTD/svg11.dtd">
<!-- Generated by graphviz version 2.43.0 (0)
 -->
<!-- Title: %3 Pages: 1 -->
<svg width="6000pt" height="190pt"
 viewBox="0.00 0.00 1440.00 45.71" xmlns="http://www.w3.org/2000/svg" xmlns:xlink="http://www.w3.org/1999/xlink">
<g id="graph0" class="graph" transform="scale(1.89 1.89) rotate(0) translate(4 97)">
<title>%3</title>
<polygon fill="white" stroke="transparent" points="-4,4 -4,-97 3177.5,-97 3177.5,4 -4,4"/>
<g id="clust1" class="cluster">
<title>cluster_legend</title>
<polygon fill="lightgray" stroke="black" points="2703.5,-8 2703.5,-85 3165.5,-85 3165.5,-8 2703.5,-8"/>
<text text-anchor="middle" x="2934.5" y="-69.8" font-family="Times,serif" font-size="14.00">Complexity Legend</text>
</g>
<!-- func_0 -->
<g id="node1" class="node">
<title>func_0</title>
<polygon fill="red" stroke="black" points="165,-61 0,-61 0,-9 165,-9 165,-61"/>
<text text-anchor="middle" x="82.5" y="-49" font-family="Times,serif" font-size="10.00">test_error_framework_events</text>
<text text-anchor="middle" x="82.5" y="-38" font-family="Times,serif" font-size="10.00">Cyclomatic: 47</text>
<text text-anchor="middle" x="82.5" y="-27" font-family="Times,serif" font-size="10.00">Async: 0</text>
<text text-anchor="middle" x="82.5" y="-16" font-family="Times,serif" font-size="10.00">Error: 41</text>
</g>
<!-- func_1 -->
<g id="node2" class="node">
<title>func_1</title>
<polygon fill="lightgreen" stroke="black" points="368,-61 183,-61 183,-9 368,-9 368,-61"/>
<text text-anchor="middle" x="275.5" y="-49" font-family="Times,serif" font-size="10.00">process_append_entries_request</text>
<text text-anchor="middle" x="275.5" y="-38" font-family="Times,serif" font-size="10.00">Cyclomatic: 11</text>
<text text-anchor="middle" x="275.5" y="-27" font-family="Times,serif" font-size="10.00">Async: 2</text>
<text text-anchor="middle" x="275.5" y="-16" font-family="Times,serif" font-size="10.00">Error: 4</text>
</g>
<!-- func_2 -->
<g id="node3" class="node">
<title>func_2</title>
<polygon fill="lightgreen" stroke="black" points="476.5,-61 386.5,-61 386.5,-9 476.5,-9 476.5,-61"/>
<text text-anchor="middle" x="431.5" y="-49" font-family="Times,serif" font-size="10.00">sanitize</text>
<text text-anchor="middle" x="431.5" y="-38" font-family="Times,serif" font-size="10.00">Cyclomatic: 10</text>
<text text-anchor="middle" x="431.5" y="-27" font-family="Times,serif" font-size="10.00">Async: 0</text>
<text text-anchor="middle" x="431.5" y="-16" font-family="Times,serif" font-size="10.00">Error: 6</text>
</g>
<!-- func_3 -->
<g id="node4" class="node">
<title>func_3</title>
<polygon fill="lightgreen" stroke="black" points="590,-61 495,-61 495,-9 590,-9 590,-61"/>
<text text-anchor="middle" x="542.5" y="-49" font-family="Times,serif" font-size="10.00">print_summary</text>
<text text-anchor="middle" x="542.5" y="-38" font-family="Times,serif" font-size="10.00">Cyclomatic: 10</text>
<text text-anchor="middle" x="542.5" y="-27" font-family="Times,serif" font-size="10.00">Async: 0</text>
<text text-anchor="middle" x="542.5" y="-16" font-family="Times,serif" font-size="10.00">Error: 3</text>
</g>
<!-- func_4 -->
<g id="node5" class="node">
<title>func_4</title>
<polygon fill="lightgreen" stroke="black" points="707,-61 608,-61 608,-9 707,-9 707,-61"/>
<text text-anchor="middle" x="657.5" y="-49" font-family="Times,serif" font-size="10.00">apply_operation</text>
<text text-anchor="middle" x="657.5" y="-38" font-family="Times,serif" font-size="10.00">Cyclomatic: 10</text>
<text text-anchor="middle" x="657.5" y="-27" font-family="Times,serif" font-size="10.00">Async: 0</text>
<text text-anchor="middle" x="657.5" y="-16" font-family="Times,serif" font-size="10.00">Error: 0</text>
</g>
<!-- func_5 -->
<g id="node6" class="node">
<title>func_5</title>
<polygon fill="lightgreen" stroke="black" points="893.5,-61 725.5,-61 725.5,-9 893.5,-9 893.5,-61"/>
<text text-anchor="middle" x="809.5" y="-49" font-family="Times,serif" font-size="10.00">detect_circular_dependencies</text>
<text text-anchor="middle" x="809.5" y="-38" font-family="Times,serif" font-size="10.00">Cyclomatic: 8</text>
<text text-anchor="middle" x="809.5" y="-27" font-family="Times,serif" font-size="10.00">Async: 0</text>
<text text-anchor="middle" x="809.5" y="-16" font-family="Times,serif" font-size="10.00">Error: 0</text>
</g>
<!-- func_6 -->
<g id="node7" class="node">
<title>func_6</title>
<polygon fill="lightgreen" stroke="black" points="1099.5,-61 911.5,-61 911.5,-9 1099.5,-9 1099.5,-61"/>
<text text-anchor="middle" x="1005.5" y="-49" font-family="Times,serif" font-size="10.00">handle_append_entries_response</text>
<text text-anchor="middle" x="1005.5" y="-38" font-family="Times,serif" font-size="10.00">Cyclomatic: 8</text>
<text text-anchor="middle" x="1005.5" y="-27" font-family="Times,serif" font-size="10.00">Async: 3</text>
<text text-anchor="middle" x="1005.5" y="-16" font-family="Times,serif" font-size="10.00">Error: 2</text>
</g>
<!-- func_7 -->
<g id="node8" class="node">
<title>func_7</title>
<polygon fill="lightgreen" stroke="black" points="1207.5,-61 1117.5,-61 1117.5,-9 1207.5,-9 1207.5,-61"/>
<text text-anchor="middle" x="1162.5" y="-49" font-family="Times,serif" font-size="10.00">load_snapshot</text>
<text text-anchor="middle" x="1162.5" y="-38" font-family="Times,serif" font-size="10.00">Cyclomatic: 8</text>
<text text-anchor="middle" x="1162.5" y="-27" font-family="Times,serif" font-size="10.00">Async: 9</text>
<text text-anchor="middle" x="1162.5" y="-16" font-family="Times,serif" font-size="10.00">Error: 0</text>
</g>
<!-- func_8 -->
<g id="node9" class="node">
<title>func_8</title>
<polygon fill="lightgreen" stroke="black" points="1333,-61 1226,-61 1226,-9 1333,-9 1333,-61"/>
<text text-anchor="middle" x="1279.5" y="-49" font-family="Times,serif" font-size="10.00">validate_file_path</text>
<text text-anchor="middle" x="1279.5" y="-38" font-family="Times,serif" font-size="10.00">Cyclomatic: 8</text>
<text text-anchor="middle" x="1279.5" y="-27" font-family="Times,serif" font-size="10.00">Async: 0</text>
<text text-anchor="middle" x="1279.5" y="-16" font-family="Times,serif" font-size="10.00">Error: 0</text>
</g>
<!-- func_9 -->
<g id="node10" class="node">
<title>func_9</title>
<polygon fill="lightgreen" stroke="black" points="1460,-61 1351,-61 1351,-9 1460,-9 1460,-61"/>
<text text-anchor="middle" x="1405.5" y="-49" font-family="Times,serif" font-size="10.00">validate_key_path</text>
<text text-anchor="middle" x="1405.5" y="-38" font-family="Times,serif" font-size="10.00">Cyclomatic: 8</text>
<text text-anchor="middle" x="1405.5" y="-27" font-family="Times,serif" font-size="10.00">Async: 0</text>
<text text-anchor="middle" x="1405.5" y="-16" font-family="Times,serif" font-size="10.00">Error: 0</text>
</g>
<!-- func_10 -->
<g id="node11" class="node">
<title>func_10</title>
<polygon fill="lightgreen" stroke="black" points="1569,-61 1478,-61 1478,-9 1569,-9 1569,-61"/>
<text text-anchor="middle" x="1523.5" y="-49" font-family="Times,serif" font-size="10.00">generate_keys</text>
<text text-anchor="middle" x="1523.5" y="-38" font-family="Times,serif" font-size="10.00">Cyclomatic: 8</text>
<text text-anchor="middle" x="1523.5" y="-27" font-family="Times,serif" font-size="10.00">Async: 0</text>
<text text-anchor="middle" x="1523.5" y="-16" font-family="Times,serif" font-size="10.00">Error: 0</text>
</g>
<!-- func_11 -->
<g id="node12" class="node">
<title>func_11</title>
<polygon fill="lightgreen" stroke="black" points="1700,-61 1587,-61 1587,-9 1700,-9 1700,-61"/>
<text text-anchor="middle" x="1643.5" y="-49" font-family="Times,serif" font-size="10.00">validate_invariants</text>
<text text-anchor="middle" x="1643.5" y="-38" font-family="Times,serif" font-size="10.00">Cyclomatic: 8</text>
<text text-anchor="middle" x="1643.5" y="-27" font-family="Times,serif" font-size="10.00">Async: 0</text>
<text text-anchor="middle" x="1643.5" y="-16" font-family="Times,serif" font-size="10.00">Error: 0</text>
</g>
<!-- func_12 -->
<g id="node13" class="node">
<title>func_12</title>
<polygon fill="lightgreen" stroke="black" points="1843,-61 1718,-61 1718,-9 1843,-9 1843,-61"/>
<text text-anchor="middle" x="1780.5" y="-49" font-family="Times,serif" font-size="10.00">resolve_spawn_order</text>
<text text-anchor="middle" x="1780.5" y="-38" font-family="Times,serif" font-size="10.00">Cyclomatic: 7</text>
<text text-anchor="middle" x="1780.5" y="-27" font-family="Times,serif" font-size="10.00">Async: 0</text>
<text text-anchor="middle" x="1780.5" y="-16" font-family="Times,serif" font-size="10.00">Error: 9</text>
</g>
<!-- func_13 -->
<g id="node14" class="node">
<title>func_13</title>
<polygon fill="lightgreen" stroke="black" points="1991.5,-61 1861.5,-61 1861.5,-9 1991.5,-9 1991.5,-61"/>
<text text-anchor="middle" x="1926.5" y="-49" font-family="Times,serif" font-size="10.00">initialize_workstreams</text>
<text text-anchor="middle" x="1926.5" y="-38" font-family="Times,serif" font-size="10.00">Cyclomatic: 7</text>
<text text-anchor="middle" x="1926.5" y="-27" font-family="Times,serif" font-size="10.00">Async: 2</text>
<text text-anchor="middle" x="1926.5" y="-16" font-family="Times,serif" font-size="10.00">Error: 0</text>
</g>
<!-- func_14 -->
<g id="node15" class="node">
<title>func_14</title>
<polygon fill="lightgreen" stroke="black" points="2141,-61 2010,-61 2010,-9 2141,-9 2141,-61"/>
<text text-anchor="middle" x="2075.5" y="-49" font-family="Times,serif" font-size="10.00">handle_vote_response</text>
<text text-anchor="middle" x="2075.5" y="-38" font-family="Times,serif" font-size="10.00">Cyclomatic: 7</text>
<text text-anchor="middle" x="2075.5" y="-27" font-family="Times,serif" font-size="10.00">Async: 5</text>
<text text-anchor="middle" x="2075.5" y="-16" font-family="Times,serif" font-size="10.00">Error: 2</text>
</g>
<!-- func_15 -->
<g id="node16" class="node">
<title>func_15</title>
<polygon fill="lightgreen" stroke="black" points="2255.5,-61 2159.5,-61 2159.5,-9 2255.5,-9 2255.5,-61"/>
<text text-anchor="middle" x="2207.5" y="-49" font-family="Times,serif" font-size="10.00">monitor_agents</text>
<text text-anchor="middle" x="2207.5" y="-38" font-family="Times,serif" font-size="10.00">Cyclomatic: 7</text>
<text text-anchor="middle" x="2207.5" y="-27" font-family="Times,serif" font-size="10.00">Async: 3</text>
<text text-anchor="middle" x="2207.5" y="-16" font-family="Times,serif" font-size="10.00">Error: 3</text>
</g>
<!-- func_16 -->
<g id="node17" class="node">
<title>func_16</title>
<polygon fill="lightgreen" stroke="black" points="2357.5,-61 2273.5,-61 2273.5,-9 2357.5,-9 2357.5,-61"/>
<text text-anchor="middle" x="2315.5" y="-49" font-family="Times,serif" font-size="10.00">recover</text>
<text text-anchor="middle" x="2315.5" y="-38" font-family="Times,serif" font-size="10.00">Cyclomatic: 7</text>
<text text-anchor="middle" x="2315.5" y="-27" font-family="Times,serif" font-size="10.00">Async: 3</text>
<text text-anchor="middle" x="2315.5" y="-16" font-family="Times,serif" font-size="10.00">Error: 1</text>
</g>
<!-- func_17 -->
<g id="node18" class="node">
<title>func_17</title>
<polygon fill="lightgreen" stroke="black" points="2489.5,-61 2375.5,-61 2375.5,-9 2489.5,-9 2489.5,-61"/>
<text text-anchor="middle" x="2432.5" y="-49" font-family="Times,serif" font-size="10.00">cleanup_snapshots</text>
<text text-anchor="middle" x="2432.5" y="-38" font-family="Times,serif" font-size="10.00">Cyclomatic: 7</text>
<text text-anchor="middle" x="2432.5" y="-27" font-family="Times,serif" font-size="10.00">Async: 3</text>
<text text-anchor="middle" x="2432.5" y="-16" font-family="Times,serif" font-size="10.00">Error: 0</text>
</g>
<!-- func_18 -->
<g id="node19" class="node">
<title>func_18</title>
<polygon fill="lightgreen" stroke="black" points="2591.5,-61 2507.5,-61 2507.5,-9 2591.5,-9 2591.5,-61"/>
<text text-anchor="middle" x="2549.5" y="-49" font-family="Times,serif" font-size="10.00">run_all</text>
<text text-anchor="middle" x="2549.5" y="-38" font-family="Times,serif" font-size="10.00">Cyclomatic: 7</text>
<text text-anchor="middle" x="2549.5" y="-27" font-family="Times,serif" font-size="10.00">Async: 4</text>
<text text-anchor="middle" x="2549.5" y="-16" font-family="Times,serif" font-size="10.00">Error: 3</text>
</g>
<!-- func_19 -->
<g id="node20" class="node">
<title>func_19</title>
<polygon fill="lightgreen" stroke="black" points="2693.5,-61 2609.5,-61 2609.5,-9 2693.5,-9 2693.5,-61"/>
<text text-anchor="middle" x="2651.5" y="-49" font-family="Times,serif" font-size="10.00">has_cycle</text>
<text text-anchor="middle" x="2651.5" y="-38" font-family="Times,serif" font-size="10.00">Cyclomatic: 7</text>
<text text-anchor="middle" x="2651.5" y="-27" font-family="Times,serif" font-size="10.00">Async: 1</text>
<text text-anchor="middle" x="2651.5" y="-16" font-family="Times,serif" font-size="10.00">Error: 0</text>
</g>
<!-- low -->
<g id="node21" class="node">
<title>low</title>
<polygon fill="lightgreen" stroke="black" points="3157.5,-54 3059.5,-54 3059.5,-16 3157.5,-16 3157.5,-54"/>
<text text-anchor="middle" x="3108.5" y="-38.8" font-family="Times,serif" font-size="14.00">Low</text>
<text text-anchor="middle" x="3108.5" y="-23.8" font-family="Times,serif" font-size="14.00">Complexity</text>
</g>
<!-- medium -->
<g id="node22" class="node">
<title>medium</title>
<polygon fill="yellow" stroke="black" points="3041.5,-54 2943.5,-54 2943.5,-16 3041.5,-16 3041.5,-54"/>
<text text-anchor="middle" x="2992.5" y="-38.8" font-family="Times,serif" font-size="14.00">Medium</text>
<text text-anchor="middle" x="2992.5" y="-23.8" font-family="Times,serif" font-size="14.00">Complexity</text>
</g>
<!-- high -->
<g id="node23" class="node">
<title>high</title>
<polygon fill="orange" stroke="black" points="2925.5,-54 2827.5,-54 2827.5,-16 2925.5,-16 2925.5,-54"/>
<text text-anchor="middle" x="2876.5" y="-38.8" font-family="Times,serif" font-size="14.00">High</text>
<text text-anchor="middle" x="2876.5" y="-23.8" font-family="Times,serif" font-size="14.00">Complexity</text>
</g>
<!-- very_high -->
<g id="node24" class="node">
<title>very_high</title>
<polygon fill="red" stroke="black" points="2809.5,-54 2711.5,-54 2711.5,-16 2809.5,-16 2809.5,-54"/>
<text text-anchor="middle" x="2760.5" y="-38.8" font-family="Times,serif" font-size="14.00">Very High</text>
<text text-anchor="middle" x="2760.5" y="-23.8" font-family="Times,serif" font-size="14.00">Complexity</text>
</g>
</g>
</svg>
