<?xml version="1.0" encoding="UTF-8" standalone="no"?>
<!DOCTYPE svg PUBLIC "-//W3C//DTD SVG 1.1//EN"
 "http://www.w3.org/Graphics/SVG/1.1/DTD/svg11.dtd">
<!-- Generated by graphviz version 2.43.0 (0)
 -->
<!-- Title: %3 Pages: 1 -->
<svg width="6000pt" height="1310pt"
 viewBox="0.00 0.00 1440.00 314.40" xmlns="http://www.w3.org/2000/svg" xmlns:xlink="http://www.w3.org/1999/xlink">
<g id="graph0" class="graph" transform="scale(2.96 2.96) rotate(0) translate(4 439)">
<title>%3</title>
<polygon fill="white" stroke="transparent" points="-4,4 -4,-439 2025,-439 2025,4 -4,4"/>
<g id="clust1" class="cluster">
<title>cluster_async</title>
<polygon fill="#000000" stroke="black" points="386,-352 386,-427 2013,-427 2013,-352 386,-352"/>
<text text-anchor="middle" x="1199.5" y="-411.8" font-family="Times,serif" font-size="14.00">Async Coordination Patterns</text>
</g>
<!-- unknown -->
<g id="node1" class="node">
<title>unknown</title>
<path fill="#d5dbdb" stroke="black" stroke-width="2" d="M158,-396C158,-396 96,-396 96,-396 90,-396 84,-390 84,-384 84,-384 84,-372 84,-372 84,-366 90,-360 96,-360 96,-360 158,-360 158,-360 164,-360 170,-366 170,-372 170,-372 170,-384 170,-384 170,-390 164,-396 158,-396"/>
<text text-anchor="middle" x="127" y="-381.4" font-family="Times,serif" font-size="12.00">unknown</text>
<text text-anchor="middle" x="127" y="-368.4" font-family="Times,serif" font-size="12.00">Component</text>
</g>
<!-- runtime -->
<g id="node5" class="node">
<title>runtime</title>
<path fill="#4ecdc4" stroke="black" stroke-width="2" d="M158,-324C158,-324 96,-324 96,-324 90,-324 84,-318 84,-312 84,-312 84,-300 84,-300 84,-294 90,-288 96,-288 96,-288 158,-288 158,-288 164,-288 170,-294 170,-300 170,-300 170,-312 170,-312 170,-318 164,-324 158,-324"/>
<text text-anchor="middle" x="127" y="-309.4" font-family="Times,serif" font-size="12.00">runtime</text>
<text text-anchor="middle" x="127" y="-296.4" font-family="Times,serif" font-size="12.00">Component</text>
</g>
<!-- unknown&#45;&gt;runtime -->
<g id="edge2" class="edge">
<title>unknown&#45;&gt;runtime</title>
<path fill="none" stroke="blue" stroke-width="2" d="M127,-359.7C127,-351.98 127,-342.71 127,-334.11"/>
<polygon fill="blue" stroke="blue" stroke-width="2" points="130.5,-334.1 127,-324.1 123.5,-334.1 130.5,-334.1"/>
</g>
<!-- storage -->
<g id="node6" class="node">
<title>storage</title>
<path fill="#96ceb4" stroke="black" stroke-width="2" d="M249,-180C249,-180 187,-180 187,-180 181,-180 175,-174 175,-168 175,-168 175,-156 175,-156 175,-150 181,-144 187,-144 187,-144 249,-144 249,-144 255,-144 261,-150 261,-156 261,-156 261,-168 261,-168 261,-174 255,-180 249,-180"/>
<text text-anchor="middle" x="218" y="-165.4" font-family="Times,serif" font-size="12.00">storage</text>
<text text-anchor="middle" x="218" y="-152.4" font-family="Times,serif" font-size="12.00">Component</text>
</g>
<!-- unknown&#45;&gt;storage -->
<g id="edge3" class="edge">
<title>unknown&#45;&gt;storage</title>
<path fill="none" stroke="blue" stroke-width="2" d="M148.55,-359.94C159.2,-350.43 171.37,-337.75 179,-324 202.83,-281.08 212.22,-223.81 215.83,-190.41"/>
<polygon fill="blue" stroke="blue" stroke-width="2" points="219.35,-190.35 216.85,-180.06 212.39,-189.67 219.35,-190.35"/>
</g>
<!-- llm -->
<g id="node8" class="node">
<title>llm</title>
<path fill="lightgrey" stroke="black" d="M162,-36C162,-36 132,-36 132,-36 126,-36 120,-30 120,-24 120,-24 120,-12 120,-12 120,-6 126,0 132,0 132,0 162,0 162,0 168,0 174,-6 174,-12 174,-12 174,-24 174,-24 174,-30 168,-36 162,-36"/>
<text text-anchor="middle" x="147" y="-14.3" font-family="Times,serif" font-size="14.00">llm</text>
</g>
<!-- unknown&#45;&gt;llm -->
<g id="edge1" class="edge">
<title>unknown&#45;&gt;llm</title>
<path fill="none" stroke="blue" stroke-width="2" d="M95.61,-359.94C58,-336.95 0,-292.22 0,-235 0,-235 0,-235 0,-161 0,-99.68 66.99,-56.44 110.53,-34.81"/>
<polygon fill="blue" stroke="blue" stroke-width="2" points="112.2,-37.89 119.69,-30.4 109.17,-31.58 112.2,-37.89"/>
</g>
<!-- orchestration -->
<g id="node2" class="node">
<title>orchestration</title>
<path fill="#45b7d1" stroke="black" stroke-width="2" d="M364,-396C364,-396 290,-396 290,-396 284,-396 278,-390 278,-384 278,-384 278,-372 278,-372 278,-366 284,-360 290,-360 290,-360 364,-360 364,-360 370,-360 376,-366 376,-372 376,-372 376,-384 376,-384 376,-390 370,-396 364,-396"/>
<text text-anchor="middle" x="327" y="-381.4" font-family="Times,serif" font-size="12.00">orchestration</text>
<text text-anchor="middle" x="327" y="-368.4" font-family="Times,serif" font-size="12.00">Component</text>
</g>
<!-- cli -->
<g id="node3" class="node">
<title>cli</title>
<path fill="#f7dc6f" stroke="black" stroke-width="2" d="M249,-108C249,-108 187,-108 187,-108 181,-108 175,-102 175,-96 175,-96 175,-84 175,-84 175,-78 181,-72 187,-72 187,-72 249,-72 249,-72 255,-72 261,-78 261,-84 261,-84 261,-96 261,-96 261,-102 255,-108 249,-108"/>
<text text-anchor="middle" x="218" y="-93.4" font-family="Times,serif" font-size="12.00">cli</text>
<text text-anchor="middle" x="218" y="-80.4" font-family="Times,serif" font-size="12.00">Component</text>
</g>
<!-- orchestration&#45;&gt;cli -->
<g id="edge7" class="edge">
<title>orchestration&#45;&gt;cli</title>
<path fill="none" stroke="blue" stroke-width="2" d="M340.84,-359.93C363.44,-329.85 403.41,-265.86 379,-216 355.59,-168.19 304.09,-133.4 265.61,-112.84"/>
<polygon fill="blue" stroke="blue" stroke-width="2" points="267.11,-109.68 256.62,-108.18 263.88,-115.89 267.11,-109.68"/>
</g>
<!-- orchestration&#45;&gt;runtime -->
<g id="edge6" class="edge">
<title>orchestration&#45;&gt;runtime</title>
<path fill="none" stroke="blue" stroke-width="2" d="M278.33,-359.97C248.49,-349.52 210.28,-336.15 179.73,-325.45"/>
<polygon fill="blue" stroke="blue" stroke-width="2" points="180.69,-322.08 170.1,-322.08 178.38,-328.69 180.69,-322.08"/>
</g>
<!-- orchestration&#45;&gt;storage -->
<g id="edge4" class="edge">
<title>orchestration&#45;&gt;storage</title>
<path fill="none" stroke="blue" stroke-width="2" d="M318.26,-359.85C299.25,-322.52 254.01,-233.69 231.37,-189.26"/>
<polygon fill="blue" stroke="blue" stroke-width="2" points="234.43,-187.55 226.78,-180.23 228.2,-190.73 234.43,-187.55"/>
</g>
<!-- orchestration&#45;&gt;llm -->
<g id="edge5" class="edge">
<title>orchestration&#45;&gt;llm</title>
<path fill="none" stroke="blue" stroke-width="2" d="M352.56,-359.89C384.77,-336.04 436,-289.54 436,-235 436,-235 436,-235 436,-161 436,-50.21 262.81,-25.86 184.57,-20.5"/>
<polygon fill="blue" stroke="blue" stroke-width="2" points="184.38,-16.99 174.19,-19.87 183.96,-23.97 184.38,-16.99"/>
</g>
<!-- cli&#45;&gt;storage -->
<g id="edge9" class="edge">
<title>cli&#45;&gt;storage</title>
<path fill="none" stroke="blue" stroke-width="2" d="M223.9,-108.1C224.7,-115.79 224.94,-125.05 224.6,-133.67"/>
<polygon fill="blue" stroke="blue" stroke-width="2" points="221.11,-133.48 223.92,-143.7 228.09,-133.96 221.11,-133.48"/>
</g>
<!-- cli&#45;&gt;llm -->
<g id="edge8" class="edge">
<title>cli&#45;&gt;llm</title>
<path fill="none" stroke="blue" stroke-width="2" d="M200.45,-71.7C191.77,-63.14 181.14,-52.66 171.65,-43.3"/>
<polygon fill="blue" stroke="blue" stroke-width="2" points="173.93,-40.63 164.35,-36.1 169.01,-45.62 173.93,-40.63"/>
</g>
<!-- kernel -->
<g id="node4" class="node">
<title>kernel</title>
<path fill="#ff6b6b" stroke="black" stroke-width="2" d="M140,-252C140,-252 78,-252 78,-252 72,-252 66,-246 66,-240 66,-240 66,-228 66,-228 66,-222 72,-216 78,-216 78,-216 140,-216 140,-216 146,-216 152,-222 152,-228 152,-228 152,-240 152,-240 152,-246 146,-252 140,-252"/>
<text text-anchor="middle" x="109" y="-237.4" font-family="Times,serif" font-size="12.00">kernel</text>
<text text-anchor="middle" x="109" y="-224.4" font-family="Times,serif" font-size="12.00">Component</text>
</g>
<!-- kernel&#45;&gt;storage -->
<g id="edge11" class="edge">
<title>kernel&#45;&gt;storage</title>
<path fill="none" stroke="blue" stroke-width="2" d="M135.66,-215.88C149.78,-206.81 167.31,-195.55 182.56,-185.76"/>
<polygon fill="blue" stroke="blue" stroke-width="2" points="184.71,-188.54 191.23,-180.19 180.93,-182.65 184.71,-188.54"/>
</g>
<!-- kernel&#45;&gt;llm -->
<g id="edge10" class="edge">
<title>kernel&#45;&gt;llm</title>
<path fill="none" stroke="blue" stroke-width="2" d="M112.05,-215.85C118.63,-178.75 134.25,-90.81 142.19,-46.1"/>
<polygon fill="blue" stroke="blue" stroke-width="2" points="145.64,-46.69 143.94,-36.23 138.75,-45.47 145.64,-46.69"/>
</g>
<!-- runtime&#45;&gt;kernel -->
<g id="edge14" class="edge">
<title>runtime&#45;&gt;kernel</title>
<path fill="none" stroke="blue" stroke-width="2" d="M122.55,-287.7C120.55,-279.9 118.13,-270.51 115.9,-261.83"/>
<polygon fill="blue" stroke="blue" stroke-width="2" points="119.28,-260.92 113.4,-252.1 112.5,-262.66 119.28,-260.92"/>
</g>
<!-- runtime&#45;&gt;storage -->
<g id="edge13" class="edge">
<title>runtime&#45;&gt;storage</title>
<path fill="none" stroke="blue" stroke-width="2" d="M138.03,-287.82C144.68,-277.45 153.33,-263.96 161,-252 174.66,-230.69 190.15,-206.5 201.53,-188.73"/>
<polygon fill="blue" stroke="blue" stroke-width="2" points="204.63,-190.37 207.08,-180.06 198.74,-186.6 204.63,-190.37"/>
</g>
<!-- runtime&#45;&gt;llm -->
<g id="edge12" class="edge">
<title>runtime&#45;&gt;llm</title>
<path fill="none" stroke="blue" stroke-width="2" d="M92.32,-287.83C78.69,-279.13 64.53,-267.15 57,-252 49.88,-237.67 53.6,-231.63 57,-216 71.17,-150.91 108.83,-81.56 130.68,-45.02"/>
<polygon fill="blue" stroke="blue" stroke-width="2" points="133.94,-46.4 136.13,-36.04 127.95,-42.77 133.94,-46.4"/>
</g>
<!-- storage&#45;&gt;cli -->
<g id="edge15" class="edge">
<title>storage&#45;&gt;cli</title>
<path fill="none" stroke="blue" stroke-width="2" d="M212.08,-143.7C211.29,-135.98 211.06,-126.71 211.4,-118.11"/>
<polygon fill="blue" stroke="blue" stroke-width="2" points="214.9,-118.32 212.1,-108.1 207.92,-117.84 214.9,-118.32"/>
</g>
<!-- storage&#45;&gt;llm -->
<g id="edge16" class="edge">
<title>storage&#45;&gt;llm</title>
<path fill="none" stroke="blue" stroke-width="2" d="M196.03,-143.79C185.4,-134.33 173.38,-121.74 166,-108 155.68,-88.8 150.97,-64.46 148.81,-46.08"/>
<polygon fill="blue" stroke="blue" stroke-width="2" points="152.29,-45.64 147.82,-36.04 145.32,-46.33 152.29,-45.64"/>
</g>
<!-- bus -->
<g id="node7" class="node">
<title>bus</title>
<path fill="#ffeaa7" stroke="black" stroke-width="2" d="M358,-252C358,-252 296,-252 296,-252 290,-252 284,-246 284,-240 284,-240 284,-228 284,-228 284,-222 290,-216 296,-216 296,-216 358,-216 358,-216 364,-216 370,-222 370,-228 370,-228 370,-240 370,-240 370,-246 364,-252 358,-252"/>
<text text-anchor="middle" x="327" y="-237.4" font-family="Times,serif" font-size="12.00">bus</text>
<text text-anchor="middle" x="327" y="-224.4" font-family="Times,serif" font-size="12.00">Component</text>
</g>
<!-- bus&#45;&gt;storage -->
<g id="edge17" class="edge">
<title>bus&#45;&gt;storage</title>
<path fill="none" stroke="blue" stroke-width="2" d="M300.34,-215.88C286.22,-206.81 268.69,-195.55 253.44,-185.76"/>
<polygon fill="blue" stroke="blue" stroke-width="2" points="255.07,-182.65 244.77,-180.19 251.29,-188.54 255.07,-182.65"/>
</g>
<!-- bus&#45;&gt;llm -->
<g id="edge18" class="edge">
<title>bus&#45;&gt;llm</title>
<path fill="none" stroke="blue" stroke-width="2" d="M325.39,-215.64C321.51,-183.35 308.89,-113.57 270,-72 247.18,-47.61 211.24,-33.9 184.09,-26.57"/>
<polygon fill="blue" stroke="blue" stroke-width="2" points="184.72,-23.12 174.16,-24.06 183,-29.91 184.72,-23.12"/>
</g>
<!-- async_pattern_0 -->
<g id="node9" class="node">
<title>async_pattern_0</title>
<path fill="mediumpurple" stroke="black" d="M1992.5,-396C1992.5,-396 1931.5,-396 1931.5,-396 1925.5,-396 1919.5,-390 1919.5,-384 1919.5,-384 1919.5,-372 1919.5,-372 1919.5,-366 1925.5,-360 1931.5,-360 1931.5,-360 1992.5,-360 1992.5,-360 1998.5,-360 2004.5,-366 2004.5,-372 2004.5,-372 2004.5,-384 2004.5,-384 2004.5,-390 1998.5,-396 1992.5,-396"/>
<text text-anchor="middle" x="1962" y="-381" font-family="Times,serif" font-size="10.00">execute</text>
<text text-anchor="middle" x="1962" y="-370" font-family="Times,serif" font-size="10.00">simple_async</text>
</g>
<!-- async_pattern_1 -->
<g id="node10" class="node">
<title>async_pattern_1</title>
<path fill="mediumpurple" stroke="black" d="M1889,-396C1889,-396 1697,-396 1697,-396 1691,-396 1685,-390 1685,-384 1685,-384 1685,-372 1685,-372 1685,-366 1691,-360 1697,-360 1697,-360 1889,-360 1889,-360 1895,-360 1901,-366 1901,-372 1901,-372 1901,-384 1901,-384 1901,-390 1895,-396 1889,-396"/>
<text text-anchor="middle" x="1793" y="-381" font-family="Times,serif" font-size="10.00">test_kernel_schedule_task_happy_path</text>
<text text-anchor="middle" x="1793" y="-370" font-family="Times,serif" font-size="10.00">simple_async</text>
</g>
<!-- async_pattern_2 -->
<g id="node11" class="node">
<title>async_pattern_2</title>
<path fill="mediumpurple" stroke="black" d="M1655,-396C1655,-396 1511,-396 1511,-396 1505,-396 1499,-390 1499,-384 1499,-384 1499,-372 1499,-372 1499,-366 1505,-360 1511,-360 1511,-360 1655,-360 1655,-360 1661,-360 1667,-366 1667,-372 1667,-372 1667,-384 1667,-384 1667,-390 1661,-396 1655,-396"/>
<text text-anchor="middle" x="1583" y="-381" font-family="Times,serif" font-size="10.00">test_kernel_capability_denied</text>
<text text-anchor="middle" x="1583" y="-370" font-family="Times,serif" font-size="10.00">simple_async</text>
</g>
<!-- async_pattern_3 -->
<g id="node12" class="node">
<title>async_pattern_3</title>
<path fill="mediumpurple" stroke="black" d="M1469,-396C1469,-396 1213,-396 1213,-396 1207,-396 1201,-390 1201,-384 1201,-384 1201,-372 1201,-372 1201,-366 1207,-360 1213,-360 1213,-360 1469,-360 1469,-360 1475,-360 1481,-366 1481,-372 1481,-372 1481,-384 1481,-384 1481,-390 1475,-396 1469,-396"/>
<text text-anchor="middle" x="1341" y="-381" font-family="Times,serif" font-size="10.00">test_external_opcode_handler_intercepts_operation</text>
<text text-anchor="middle" x="1341" y="-370" font-family="Times,serif" font-size="10.00">simple_async</text>
</g>
<!-- async_pattern_4 -->
<g id="node13" class="node">
<title>async_pattern_4</title>
<path fill="mediumpurple" stroke="black" d="M1170.5,-396C1170.5,-396 1109.5,-396 1109.5,-396 1103.5,-396 1097.5,-390 1097.5,-384 1097.5,-384 1097.5,-372 1097.5,-372 1097.5,-366 1103.5,-360 1109.5,-360 1109.5,-360 1170.5,-360 1170.5,-360 1176.5,-360 1182.5,-366 1182.5,-372 1182.5,-372 1182.5,-384 1182.5,-384 1182.5,-390 1176.5,-396 1170.5,-396"/>
<text text-anchor="middle" x="1140" y="-381" font-family="Times,serif" font-size="10.00">submit</text>
<text text-anchor="middle" x="1140" y="-370" font-family="Times,serif" font-size="10.00">simple_async</text>
</g>
<!-- async_pattern_5 -->
<g id="node14" class="node">
<title>async_pattern_5</title>
<path fill="mediumpurple" stroke="black" d="M1067.5,-396C1067.5,-396 962.5,-396 962.5,-396 956.5,-396 950.5,-390 950.5,-384 950.5,-384 950.5,-372 950.5,-372 950.5,-366 956.5,-360 962.5,-360 962.5,-360 1067.5,-360 1067.5,-360 1073.5,-360 1079.5,-366 1079.5,-372 1079.5,-372 1079.5,-384 1079.5,-384 1079.5,-390 1073.5,-396 1067.5,-396"/>
<text text-anchor="middle" x="1015" y="-381" font-family="Times,serif" font-size="10.00">handle_schedule_task</text>
<text text-anchor="middle" x="1015" y="-370" font-family="Times,serif" font-size="10.00">simple_async</text>
</g>
<!-- async_pattern_6 -->
<g id="node15" class="node">
<title>async_pattern_6</title>
<path fill="mediumpurple" stroke="black" d="M920.5,-396C920.5,-396 819.5,-396 819.5,-396 813.5,-396 807.5,-390 807.5,-384 807.5,-384 807.5,-372 807.5,-372 807.5,-366 813.5,-360 819.5,-360 819.5,-360 920.5,-360 920.5,-360 926.5,-360 932.5,-366 932.5,-372 932.5,-372 932.5,-384 932.5,-384 932.5,-390 926.5,-396 920.5,-396"/>
<text text-anchor="middle" x="870" y="-381" font-family="Times,serif" font-size="10.00">handle_spawn_agent</text>
<text text-anchor="middle" x="870" y="-370" font-family="Times,serif" font-size="10.00">simple_async</text>
</g>
<!-- async_pattern_7 -->
<g id="node16" class="node">
<title>async_pattern_7</title>
<path fill="mediumpurple" stroke="black" d="M777.5,-396C777.5,-396 672.5,-396 672.5,-396 666.5,-396 660.5,-390 660.5,-384 660.5,-384 660.5,-372 660.5,-372 660.5,-366 666.5,-360 672.5,-360 672.5,-360 777.5,-360 777.5,-360 783.5,-360 789.5,-366 789.5,-372 789.5,-372 789.5,-384 789.5,-384 789.5,-390 783.5,-396 777.5,-396"/>
<text text-anchor="middle" x="725" y="-381" font-family="Times,serif" font-size="10.00">start_agent_execution</text>
<text text-anchor="middle" x="725" y="-370" font-family="Times,serif" font-size="10.00">simple_async</text>
</g>
<!-- async_pattern_8 -->
<g id="node17" class="node">
<title>async_pattern_8</title>
<path fill="mediumpurple" stroke="black" d="M630,-396C630,-396 526,-396 526,-396 520,-396 514,-390 514,-384 514,-384 514,-372 514,-372 514,-366 520,-360 526,-360 526,-360 630,-360 630,-360 636,-360 642,-366 642,-372 642,-372 642,-384 642,-384 642,-390 636,-396 630,-396"/>
<text text-anchor="middle" x="578" y="-381" font-family="Times,serif" font-size="10.00">stop_agent_execution</text>
<text text-anchor="middle" x="578" y="-370" font-family="Times,serif" font-size="10.00">simple_async</text>
</g>
<!-- async_pattern_9 -->
<g id="node18" class="node">
<title>async_pattern_9</title>
<path fill="mediumpurple" stroke="black" d="M484,-396C484,-396 406,-396 406,-396 400,-396 394,-390 394,-384 394,-384 394,-372 394,-372 394,-366 400,-360 406,-360 406,-360 484,-360 484,-360 490,-360 496,-366 496,-372 496,-372 496,-384 496,-384 496,-390 490,-396 484,-396"/>
<text text-anchor="middle" x="445" y="-381" font-family="Times,serif" font-size="10.00">monitor_runtime</text>
<text text-anchor="middle" x="445" y="-370" font-family="Times,serif" font-size="10.00">simple_async</text>
</g>
</g>
</svg>
