<?xml version="1.0" encoding="UTF-8" standalone="no"?>
<!DOCTYPE svg PUBLIC "-//W3C//DTD SVG 1.1//EN"
 "http://www.w3.org/Graphics/SVG/1.1/DTD/svg11.dtd">
<!-- Generated by graphviz version 2.42.4 (0)
 -->
<!-- Pages: 1 -->
<svg width="1625pt" height="483pt"
 viewBox="0.00 0.00 390.00 116.00" xmlns="http://www.w3.org/2000/svg" xmlns:xlink="http://www.w3.org/1999/xlink">
<g id="graph0" class="graph" transform="scale(4.17 4.17) rotate(0) translate(4 112)">
<polygon fill="white" stroke="transparent" points="-4,4 -4,-112 386,-112 386,4 -4,4"/>
<!-- raft&#45;core -->
<g id="node1" class="node">
<title>raft&#45;core</title>
<path fill="#ff6b6b" stroke="black" stroke-width="2" d="M214,-108C214,-108 168,-108 168,-108 162,-108 156,-102 156,-96 156,-96 156,-84 156,-84 156,-78 162,-72 168,-72 168,-72 214,-72 214,-72 220,-72 226,-78 226,-84 226,-84 226,-96 226,-96 226,-102 220,-108 214,-108"/>
<text text-anchor="middle" x="191" y="-93.4" font-family="Times,serif" font-size="12.00">raft&#45;core</text>
<text text-anchor="middle" x="191" y="-80.4" font-family="Times,serif" font-size="12.00">v0.2.1</text>
</g>
<!-- ext_thiserror -->
<g id="node2" class="node">
<title>ext_thiserror</title>
<path fill="lightgray" stroke="black" d="M50,-36C50,-36 12,-36 12,-36 6,-36 0,-30 0,-24 0,-24 0,-12 0,-12 0,-6 6,0 12,0 12,0 50,0 50,0 56,0 62,-6 62,-12 62,-12 62,-24 62,-24 62,-30 56,-36 50,-36"/>
<text text-anchor="middle" x="31" y="-20.8" font-family="Times,serif" font-size="9.00">thiserror</text>
<text text-anchor="middle" x="31" y="-10.8" font-family="Times,serif" font-size="9.00">(external)</text>
</g>
<!-- raft&#45;core&#45;&gt;ext_thiserror -->
<g id="edge1" class="edge">
<title>raft&#45;core&#45;&gt;ext_thiserror</title>
<path fill="none" stroke="gray" stroke-dasharray="5,2" d="M155.89,-73.64C130.98,-62.74 97.49,-48.09 71.46,-36.7"/>
<polygon fill="gray" stroke="gray" points="72.81,-33.47 62.24,-32.67 70,-39.88 72.81,-33.47"/>
</g>
<!-- ext_tokio -->
<g id="node3" class="node">
<title>ext_tokio</title>
<path fill="lightgray" stroke="black" d="M130,-36C130,-36 92,-36 92,-36 86,-36 80,-30 80,-24 80,-24 80,-12 80,-12 80,-6 86,0 92,0 92,0 130,0 130,0 136,0 142,-6 142,-12 142,-12 142,-24 142,-24 142,-30 136,-36 130,-36"/>
<text text-anchor="middle" x="111" y="-20.8" font-family="Times,serif" font-size="9.00">tokio</text>
<text text-anchor="middle" x="111" y="-10.8" font-family="Times,serif" font-size="9.00">(external)</text>
</g>
<!-- raft&#45;core&#45;&gt;ext_tokio -->
<g id="edge2" class="edge">
<title>raft&#45;core&#45;&gt;ext_tokio</title>
<path fill="none" stroke="gray" stroke-dasharray="5,2" d="M171.22,-71.7C161.25,-62.97 148.99,-52.24 138.14,-42.75"/>
<polygon fill="gray" stroke="gray" points="140.38,-40.06 130.55,-36.1 135.77,-45.32 140.38,-40.06"/>
</g>
<!-- ext_serde -->
<g id="node4" class="node">
<title>ext_serde</title>
<path fill="lightgray" stroke="black" d="M210,-36C210,-36 172,-36 172,-36 166,-36 160,-30 160,-24 160,-24 160,-12 160,-12 160,-6 166,0 172,0 172,0 210,0 210,0 216,0 222,-6 222,-12 222,-12 222,-24 222,-24 222,-30 216,-36 210,-36"/>
<text text-anchor="middle" x="191" y="-20.8" font-family="Times,serif" font-size="9.00">serde</text>
<text text-anchor="middle" x="191" y="-10.8" font-family="Times,serif" font-size="9.00">(external)</text>
</g>
<!-- raft&#45;core&#45;&gt;ext_serde -->
<g id="edge3" class="edge">
<title>raft&#45;core&#45;&gt;ext_serde</title>
<path fill="none" stroke="gray" stroke-dasharray="5,2" d="M191,-71.7C191,-63.98 191,-54.71 191,-46.11"/>
<polygon fill="gray" stroke="gray" points="194.5,-46.1 191,-36.1 187.5,-46.1 194.5,-46.1"/>
</g>
<!-- ext_tracing -->
<g id="node5" class="node">
<title>ext_tracing</title>
<path fill="lightgray" stroke="black" d="M290,-36C290,-36 252,-36 252,-36 246,-36 240,-30 240,-24 240,-24 240,-12 240,-12 240,-6 246,0 252,0 252,0 290,0 290,0 296,0 302,-6 302,-12 302,-12 302,-24 302,-24 302,-30 296,-36 290,-36"/>
<text text-anchor="middle" x="271" y="-20.8" font-family="Times,serif" font-size="9.00">tracing</text>
<text text-anchor="middle" x="271" y="-10.8" font-family="Times,serif" font-size="9.00">(external)</text>
</g>
<!-- raft&#45;core&#45;&gt;ext_tracing -->
<g id="edge4" class="edge">
<title>raft&#45;core&#45;&gt;ext_tracing</title>
<path fill="none" stroke="gray" stroke-dasharray="5,2" d="M210.78,-71.7C220.75,-62.97 233.01,-52.24 243.86,-42.75"/>
<polygon fill="gray" stroke="gray" points="246.23,-45.32 251.45,-36.1 241.62,-40.06 246.23,-45.32"/>
</g>
<!-- ext_anyhow -->
<g id="node6" class="node">
<title>ext_anyhow</title>
<path fill="lightgray" stroke="black" d="M370,-36C370,-36 332,-36 332,-36 326,-36 320,-30 320,-24 320,-24 320,-12 320,-12 320,-6 326,0 332,0 332,0 370,0 370,0 376,0 382,-6 382,-12 382,-12 382,-24 382,-24 382,-30 376,-36 370,-36"/>
<text text-anchor="middle" x="351" y="-20.8" font-family="Times,serif" font-size="9.00">anyhow</text>
<text text-anchor="middle" x="351" y="-10.8" font-family="Times,serif" font-size="9.00">(external)</text>
</g>
<!-- raft&#45;core&#45;&gt;ext_anyhow -->
<g id="edge5" class="edge">
<title>raft&#45;core&#45;&gt;ext_anyhow</title>
<path fill="none" stroke="gray" stroke-dasharray="5,2" d="M226.11,-73.64C251.02,-62.74 284.51,-48.09 310.54,-36.7"/>
<polygon fill="gray" stroke="gray" points="312,-39.88 319.76,-32.67 309.19,-33.47 312,-39.88"/>
</g>
</g>
</svg>
