<?xml version="1.0" encoding="UTF-8" standalone="no"?>
<!DOCTYPE svg PUBLIC "-//W3C//DTD SVG 1.1//EN"
 "http://www.w3.org/Graphics/SVG/1.1/DTD/svg11.dtd">
<!-- Generated by graphviz version 2.42.4 (0)
 -->
<!-- Pages: 1 -->
<svg width="2025pt" height="483pt"
 viewBox="0.00 0.00 486.00 116.00" xmlns="http://www.w3.org/2000/svg" xmlns:xlink="http://www.w3.org/1999/xlink">
<g id="graph0" class="graph" transform="scale(4.17 4.17) rotate(0) translate(4 112)">
<polygon fill="white" stroke="transparent" points="-4,4 -4,-112 482,-112 482,4 -4,4"/>
<!-- raft&#45;storage -->
<g id="node1" class="node">
<title>raft&#45;storage</title>
<path fill="#4ecdc4" stroke="black" stroke-width="2" d="M279.5,-108C279.5,-108 214.5,-108 214.5,-108 208.5,-108 202.5,-102 202.5,-96 202.5,-96 202.5,-84 202.5,-84 202.5,-78 208.5,-72 214.5,-72 214.5,-72 279.5,-72 279.5,-72 285.5,-72 291.5,-78 291.5,-84 291.5,-84 291.5,-96 291.5,-96 291.5,-102 285.5,-108 279.5,-108"/>
<text text-anchor="middle" x="247" y="-93.4" font-family="Times,serif" font-size="12.00">raft&#45;storage</text>
<text text-anchor="middle" x="247" y="-80.4" font-family="Times,serif" font-size="12.00">v0.2.1</text>
</g>
<!-- raft&#45;core -->
<g id="node2" class="node">
<title>raft&#45;core</title>
<path fill="#ff6b6b" stroke="black" d="M66,-36C66,-36 12,-36 12,-36 6,-36 0,-30 0,-24 0,-24 0,-12 0,-12 0,-6 6,0 12,0 12,0 66,0 66,0 72,0 78,-6 78,-12 78,-12 78,-24 78,-24 78,-30 72,-36 66,-36"/>
<text text-anchor="middle" x="39" y="-21" font-family="Times,serif" font-size="10.00">raft&#45;core</text>
<text text-anchor="middle" x="39" y="-10" font-family="Times,serif" font-size="10.00">(workspace)</text>
</g>
<!-- raft&#45;storage&#45;&gt;raft&#45;core -->
<g id="edge1" class="edge">
<title>raft&#45;storage&#45;&gt;raft&#45;core</title>
<path fill="none" stroke="blue" stroke-width="2" d="M202.43,-74.51C172.42,-64.69 131.74,-51.26 87.5,-36.14"/>
<polygon fill="blue" stroke="blue" stroke-width="2" points="88.6,-32.82 78.01,-32.89 86.34,-39.44 88.6,-32.82"/>
</g>
<!-- ext_thiserror -->
<g id="node3" class="node">
<title>ext_thiserror</title>
<path fill="lightgray" stroke="black" d="M146,-36C146,-36 108,-36 108,-36 102,-36 96,-30 96,-24 96,-24 96,-12 96,-12 96,-6 102,0 108,0 108,0 146,0 146,0 152,0 158,-6 158,-12 158,-12 158,-24 158,-24 158,-30 152,-36 146,-36"/>
<text text-anchor="middle" x="127" y="-20.8" font-family="Times,serif" font-size="9.00">thiserror</text>
<text text-anchor="middle" x="127" y="-10.8" font-family="Times,serif" font-size="9.00">(external)</text>
</g>
<!-- raft&#45;storage&#45;&gt;ext_thiserror -->
<g id="edge2" class="edge">
<title>raft&#45;storage&#45;&gt;ext_thiserror</title>
<path fill="none" stroke="gray" stroke-dasharray="5,2" d="M217.64,-71.88C201.95,-62.72 182.44,-51.34 165.55,-41.48"/>
<polygon fill="gray" stroke="gray" points="166.87,-38.21 156.47,-36.19 163.34,-44.25 166.87,-38.21"/>
</g>
<!-- ext_tokio -->
<g id="node4" class="node">
<title>ext_tokio</title>
<path fill="lightgray" stroke="black" d="M226,-36C226,-36 188,-36 188,-36 182,-36 176,-30 176,-24 176,-24 176,-12 176,-12 176,-6 182,0 188,0 188,0 226,0 226,0 232,0 238,-6 238,-12 238,-12 238,-24 238,-24 238,-30 232,-36 226,-36"/>
<text text-anchor="middle" x="207" y="-20.8" font-family="Times,serif" font-size="9.00">tokio</text>
<text text-anchor="middle" x="207" y="-10.8" font-family="Times,serif" font-size="9.00">(external)</text>
</g>
<!-- raft&#45;storage&#45;&gt;ext_tokio -->
<g id="edge3" class="edge">
<title>raft&#45;storage&#45;&gt;ext_tokio</title>
<path fill="none" stroke="gray" stroke-dasharray="5,2" d="M237.11,-71.7C232.51,-63.64 226.94,-53.89 221.85,-44.98"/>
<polygon fill="gray" stroke="gray" points="224.77,-43.05 216.77,-36.1 218.7,-46.52 224.77,-43.05"/>
</g>
<!-- ext_serde -->
<g id="node5" class="node">
<title>ext_serde</title>
<path fill="lightgray" stroke="black" d="M306,-36C306,-36 268,-36 268,-36 262,-36 256,-30 256,-24 256,-24 256,-12 256,-12 256,-6 262,0 268,0 268,0 306,0 306,0 312,0 318,-6 318,-12 318,-12 318,-24 318,-24 318,-30 312,-36 306,-36"/>
<text text-anchor="middle" x="287" y="-20.8" font-family="Times,serif" font-size="9.00">serde</text>
<text text-anchor="middle" x="287" y="-10.8" font-family="Times,serif" font-size="9.00">(external)</text>
</g>
<!-- raft&#45;storage&#45;&gt;ext_serde -->
<g id="edge4" class="edge">
<title>raft&#45;storage&#45;&gt;ext_serde</title>
<path fill="none" stroke="gray" stroke-dasharray="5,2" d="M256.89,-71.7C261.49,-63.64 267.06,-53.89 272.15,-44.98"/>
<polygon fill="gray" stroke="gray" points="275.3,-46.52 277.23,-36.1 269.23,-43.05 275.3,-46.52"/>
</g>
<!-- ext_tracing -->
<g id="node6" class="node">
<title>ext_tracing</title>
<path fill="lightgray" stroke="black" d="M386,-36C386,-36 348,-36 348,-36 342,-36 336,-30 336,-24 336,-24 336,-12 336,-12 336,-6 342,0 348,0 348,0 386,0 386,0 392,0 398,-6 398,-12 398,-12 398,-24 398,-24 398,-30 392,-36 386,-36"/>
<text text-anchor="middle" x="367" y="-20.8" font-family="Times,serif" font-size="9.00">tracing</text>
<text text-anchor="middle" x="367" y="-10.8" font-family="Times,serif" font-size="9.00">(external)</text>
</g>
<!-- raft&#45;storage&#45;&gt;ext_tracing -->
<g id="edge5" class="edge">
<title>raft&#45;storage&#45;&gt;ext_tracing</title>
<path fill="none" stroke="gray" stroke-dasharray="5,2" d="M276.36,-71.88C292.05,-62.72 311.56,-51.34 328.45,-41.48"/>
<polygon fill="gray" stroke="gray" points="330.66,-44.25 337.53,-36.19 327.13,-38.21 330.66,-44.25"/>
</g>
<!-- ext_anyhow -->
<g id="node7" class="node">
<title>ext_anyhow</title>
<path fill="lightgray" stroke="black" d="M466,-36C466,-36 428,-36 428,-36 422,-36 416,-30 416,-24 416,-24 416,-12 416,-12 416,-6 422,0 428,0 428,0 466,0 466,0 472,0 478,-6 478,-12 478,-12 478,-24 478,-24 478,-30 472,-36 466,-36"/>
<text text-anchor="middle" x="447" y="-20.8" font-family="Times,serif" font-size="9.00">anyhow</text>
<text text-anchor="middle" x="447" y="-10.8" font-family="Times,serif" font-size="9.00">(external)</text>
</g>
<!-- raft&#45;storage&#45;&gt;ext_anyhow -->
<g id="edge6" class="edge">
<title>raft&#45;storage&#45;&gt;ext_anyhow</title>
<path fill="none" stroke="gray" stroke-dasharray="5,2" d="M291.83,-75.23C321.89,-65.76 362.52,-52.49 406.03,-36.23"/>
<polygon fill="gray" stroke="gray" points="407.53,-39.41 415.66,-32.61 405.06,-32.86 407.53,-39.41"/>
</g>
</g>
</svg>
