<?xml version="1.0" encoding="UTF-8" standalone="no"?>
<!DOCTYPE svg PUBLIC "-//W3C//DTD SVG 1.1//EN"
 "http://www.w3.org/Graphics/SVG/1.1/DTD/svg11.dtd">
<!-- Generated by graphviz version 2.42.4 (0)
 -->
<!-- Pages: 1 -->
<svg width="1756pt" height="483pt"
 viewBox="0.00 0.00 421.50 116.00" xmlns="http://www.w3.org/2000/svg" xmlns:xlink="http://www.w3.org/1999/xlink">
<g id="graph0" class="graph" transform="scale(4.17 4.17) rotate(0) translate(4 112)">
<polygon fill="white" stroke="transparent" points="-4,4 -4,-112 417.5,-112 417.5,4 -4,4"/>
<!-- toka&#45;store&#45;semantic -->
<g id="node1" class="node">
<title>toka&#45;store&#45;semantic</title>
<path fill="#4ecdc4" stroke="black" stroke-width="2" d="M283.5,-108C283.5,-108 161.5,-108 161.5,-108 155.5,-108 149.5,-102 149.5,-96 149.5,-96 149.5,-84 149.5,-84 149.5,-78 155.5,-72 161.5,-72 161.5,-72 283.5,-72 283.5,-72 289.5,-72 295.5,-78 295.5,-84 295.5,-84 295.5,-96 295.5,-96 295.5,-102 289.5,-108 283.5,-108"/>
<text text-anchor="middle" x="222.5" y="-93.4" font-family="Times,serif" font-size="12.00">toka&#45;store&#45;semantic</text>
<text text-anchor="middle" x="222.5" y="-80.4" font-family="Times,serif" font-size="12.00">v{&#39;workspace&#39;: True}</text>
</g>
<!-- toka&#45;store&#45;core -->
<g id="node2" class="node">
<title>toka&#45;store&#45;core</title>
<path fill="#4ecdc4" stroke="black" d="M81,-36C81,-36 12,-36 12,-36 6,-36 0,-30 0,-24 0,-24 0,-12 0,-12 0,-6 6,0 12,0 12,0 81,0 81,0 87,0 93,-6 93,-12 93,-12 93,-24 93,-24 93,-30 87,-36 81,-36"/>
<text text-anchor="middle" x="46.5" y="-21" font-family="Times,serif" font-size="10.00">toka&#45;store&#45;core</text>
<text text-anchor="middle" x="46.5" y="-10" font-family="Times,serif" font-size="10.00">(workspace)</text>
</g>
<!-- toka&#45;store&#45;semantic&#45;&gt;toka&#45;store&#45;core -->
<g id="edge1" class="edge">
<title>toka&#45;store&#45;semantic&#45;&gt;toka&#45;store&#45;core</title>
<path fill="none" stroke="blue" stroke-width="2" d="M179.45,-71.88C155.17,-62.22 124.66,-50.09 98.99,-39.88"/>
<polygon fill="blue" stroke="blue" stroke-width="2" points="100,-36.51 89.41,-36.07 97.41,-43.02 100,-36.51"/>
</g>
<!-- ext_thiserror -->
<g id="node3" class="node">
<title>ext_thiserror</title>
<path fill="lightgray" stroke="black" d="M161.5,-36C161.5,-36 123.5,-36 123.5,-36 117.5,-36 111.5,-30 111.5,-24 111.5,-24 111.5,-12 111.5,-12 111.5,-6 117.5,0 123.5,0 123.5,0 161.5,0 161.5,0 167.5,0 173.5,-6 173.5,-12 173.5,-12 173.5,-24 173.5,-24 173.5,-30 167.5,-36 161.5,-36"/>
<text text-anchor="middle" x="142.5" y="-20.8" font-family="Times,serif" font-size="9.00">thiserror</text>
<text text-anchor="middle" x="142.5" y="-10.8" font-family="Times,serif" font-size="9.00">(external)</text>
</g>
<!-- toka&#45;store&#45;semantic&#45;&gt;ext_thiserror -->
<g id="edge2" class="edge">
<title>toka&#45;store&#45;semantic&#45;&gt;ext_thiserror</title>
<path fill="none" stroke="gray" stroke-dasharray="5,2" d="M202.72,-71.7C192.75,-62.97 180.49,-52.24 169.64,-42.75"/>
<polygon fill="gray" stroke="gray" points="171.88,-40.06 162.05,-36.1 167.27,-45.32 171.88,-40.06"/>
</g>
<!-- ext_tokio -->
<g id="node4" class="node">
<title>ext_tokio</title>
<path fill="lightgray" stroke="black" d="M241.5,-36C241.5,-36 203.5,-36 203.5,-36 197.5,-36 191.5,-30 191.5,-24 191.5,-24 191.5,-12 191.5,-12 191.5,-6 197.5,0 203.5,0 203.5,0 241.5,0 241.5,0 247.5,0 253.5,-6 253.5,-12 253.5,-12 253.5,-24 253.5,-24 253.5,-30 247.5,-36 241.5,-36"/>
<text text-anchor="middle" x="222.5" y="-20.8" font-family="Times,serif" font-size="9.00">tokio</text>
<text text-anchor="middle" x="222.5" y="-10.8" font-family="Times,serif" font-size="9.00">(external)</text>
</g>
<!-- toka&#45;store&#45;semantic&#45;&gt;ext_tokio -->
<g id="edge3" class="edge">
<title>toka&#45;store&#45;semantic&#45;&gt;ext_tokio</title>
<path fill="none" stroke="gray" stroke-dasharray="5,2" d="M222.5,-71.7C222.5,-63.98 222.5,-54.71 222.5,-46.11"/>
<polygon fill="gray" stroke="gray" points="226,-46.1 222.5,-36.1 219,-46.1 226,-46.1"/>
</g>
<!-- ext_serde -->
<g id="node5" class="node">
<title>ext_serde</title>
<path fill="lightgray" stroke="black" d="M321.5,-36C321.5,-36 283.5,-36 283.5,-36 277.5,-36 271.5,-30 271.5,-24 271.5,-24 271.5,-12 271.5,-12 271.5,-6 277.5,0 283.5,0 283.5,0 321.5,0 321.5,0 327.5,0 333.5,-6 333.5,-12 333.5,-12 333.5,-24 333.5,-24 333.5,-30 327.5,-36 321.5,-36"/>
<text text-anchor="middle" x="302.5" y="-20.8" font-family="Times,serif" font-size="9.00">serde</text>
<text text-anchor="middle" x="302.5" y="-10.8" font-family="Times,serif" font-size="9.00">(external)</text>
</g>
<!-- toka&#45;store&#45;semantic&#45;&gt;ext_serde -->
<g id="edge4" class="edge">
<title>toka&#45;store&#45;semantic&#45;&gt;ext_serde</title>
<path fill="none" stroke="gray" stroke-dasharray="5,2" d="M242.28,-71.7C252.25,-62.97 264.51,-52.24 275.36,-42.75"/>
<polygon fill="gray" stroke="gray" points="277.73,-45.32 282.95,-36.1 273.12,-40.06 277.73,-45.32"/>
</g>
<!-- ext_anyhow -->
<g id="node6" class="node">
<title>ext_anyhow</title>
<path fill="lightgray" stroke="black" d="M401.5,-36C401.5,-36 363.5,-36 363.5,-36 357.5,-36 351.5,-30 351.5,-24 351.5,-24 351.5,-12 351.5,-12 351.5,-6 357.5,0 363.5,0 363.5,0 401.5,0 401.5,0 407.5,0 413.5,-6 413.5,-12 413.5,-12 413.5,-24 413.5,-24 413.5,-30 407.5,-36 401.5,-36"/>
<text text-anchor="middle" x="382.5" y="-20.8" font-family="Times,serif" font-size="9.00">anyhow</text>
<text text-anchor="middle" x="382.5" y="-10.8" font-family="Times,serif" font-size="9.00">(external)</text>
</g>
<!-- toka&#45;store&#45;semantic&#45;&gt;ext_anyhow -->
<g id="edge5" class="edge">
<title>toka&#45;store&#45;semantic&#45;&gt;ext_anyhow</title>
<path fill="none" stroke="gray" stroke-dasharray="5,2" d="M261.64,-71.88C285.98,-61.23 317.22,-47.56 341.83,-36.79"/>
<polygon fill="gray" stroke="gray" points="343.5,-39.88 351.26,-32.67 340.69,-33.47 343.5,-39.88"/>
</g>
</g>
</svg>
