<?xml version="1.0" encoding="UTF-8" standalone="no"?>
<!DOCTYPE svg PUBLIC "-//W3C//DTD SVG 1.1//EN"
 "http://www.w3.org/Graphics/SVG/1.1/DTD/svg11.dtd">
<!-- Generated by graphviz version 2.42.4 (0)
 -->
<!-- Pages: 1 -->
<svg width="1715pt" height="483pt"
 viewBox="0.00 0.00 411.50 116.00" xmlns="http://www.w3.org/2000/svg" xmlns:xlink="http://www.w3.org/1999/xlink">
<g id="graph0" class="graph" transform="scale(4.17 4.17) rotate(0) translate(4 112)">
<polygon fill="white" stroke="transparent" points="-4,4 -4,-112 407.5,-112 407.5,4 -4,4"/>
<!-- toka&#45;cli -->
<g id="node1" class="node">
<title>toka&#45;cli</title>
<path fill="#ffeaa7" stroke="black" stroke-width="2" d="M273.5,-108C273.5,-108 151.5,-108 151.5,-108 145.5,-108 139.5,-102 139.5,-96 139.5,-96 139.5,-84 139.5,-84 139.5,-78 145.5,-72 151.5,-72 151.5,-72 273.5,-72 273.5,-72 279.5,-72 285.5,-78 285.5,-84 285.5,-84 285.5,-96 285.5,-96 285.5,-102 279.5,-108 273.5,-108"/>
<text text-anchor="middle" x="212.5" y="-93.4" font-family="Times,serif" font-size="12.00">toka&#45;cli</text>
<text text-anchor="middle" x="212.5" y="-80.4" font-family="Times,serif" font-size="12.00">v{&#39;workspace&#39;: True}</text>
</g>
<!-- toka&#45;runtime -->
<g id="node2" class="node">
<title>toka&#45;runtime</title>
<path fill="#96ceb4" stroke="black" d="M71,-36C71,-36 12,-36 12,-36 6,-36 0,-30 0,-24 0,-24 0,-12 0,-12 0,-6 6,0 12,0 12,0 71,0 71,0 77,0 83,-6 83,-12 83,-12 83,-24 83,-24 83,-30 77,-36 71,-36"/>
<text text-anchor="middle" x="41.5" y="-21" font-family="Times,serif" font-size="10.00">toka&#45;runtime</text>
<text text-anchor="middle" x="41.5" y="-10" font-family="Times,serif" font-size="10.00">(workspace)</text>
</g>
<!-- toka&#45;cli&#45;&gt;toka&#45;runtime -->
<g id="edge1" class="edge">
<title>toka&#45;cli&#45;&gt;toka&#45;runtime</title>
<path fill="none" stroke="blue" stroke-width="2" d="M170.67,-71.88C147.08,-62.22 117.44,-50.09 92.5,-39.88"/>
<polygon fill="blue" stroke="blue" stroke-width="2" points="93.78,-36.62 83.2,-36.07 91.12,-43.1 93.78,-36.62"/>
</g>
<!-- ext_tokio -->
<g id="node3" class="node">
<title>ext_tokio</title>
<path fill="lightgray" stroke="black" d="M151.5,-36C151.5,-36 113.5,-36 113.5,-36 107.5,-36 101.5,-30 101.5,-24 101.5,-24 101.5,-12 101.5,-12 101.5,-6 107.5,0 113.5,0 113.5,0 151.5,0 151.5,0 157.5,0 163.5,-6 163.5,-12 163.5,-12 163.5,-24 163.5,-24 163.5,-30 157.5,-36 151.5,-36"/>
<text text-anchor="middle" x="132.5" y="-20.8" font-family="Times,serif" font-size="9.00">tokio</text>
<text text-anchor="middle" x="132.5" y="-10.8" font-family="Times,serif" font-size="9.00">(external)</text>
</g>
<!-- toka&#45;cli&#45;&gt;ext_tokio -->
<g id="edge2" class="edge">
<title>toka&#45;cli&#45;&gt;ext_tokio</title>
<path fill="none" stroke="gray" stroke-dasharray="5,2" d="M192.72,-71.7C182.75,-62.97 170.49,-52.24 159.64,-42.75"/>
<polygon fill="gray" stroke="gray" points="161.88,-40.06 152.05,-36.1 157.27,-45.32 161.88,-40.06"/>
</g>
<!-- ext_serde -->
<g id="node4" class="node">
<title>ext_serde</title>
<path fill="lightgray" stroke="black" d="M231.5,-36C231.5,-36 193.5,-36 193.5,-36 187.5,-36 181.5,-30 181.5,-24 181.5,-24 181.5,-12 181.5,-12 181.5,-6 187.5,0 193.5,0 193.5,0 231.5,0 231.5,0 237.5,0 243.5,-6 243.5,-12 243.5,-12 243.5,-24 243.5,-24 243.5,-30 237.5,-36 231.5,-36"/>
<text text-anchor="middle" x="212.5" y="-20.8" font-family="Times,serif" font-size="9.00">serde</text>
<text text-anchor="middle" x="212.5" y="-10.8" font-family="Times,serif" font-size="9.00">(external)</text>
</g>
<!-- toka&#45;cli&#45;&gt;ext_serde -->
<g id="edge3" class="edge">
<title>toka&#45;cli&#45;&gt;ext_serde</title>
<path fill="none" stroke="gray" stroke-dasharray="5,2" d="M212.5,-71.7C212.5,-63.98 212.5,-54.71 212.5,-46.11"/>
<polygon fill="gray" stroke="gray" points="216,-46.1 212.5,-36.1 209,-46.1 216,-46.1"/>
</g>
<!-- ext_tracing -->
<g id="node5" class="node">
<title>ext_tracing</title>
<path fill="lightgray" stroke="black" d="M311.5,-36C311.5,-36 273.5,-36 273.5,-36 267.5,-36 261.5,-30 261.5,-24 261.5,-24 261.5,-12 261.5,-12 261.5,-6 267.5,0 273.5,0 273.5,0 311.5,0 311.5,0 317.5,0 323.5,-6 323.5,-12 323.5,-12 323.5,-24 323.5,-24 323.5,-30 317.5,-36 311.5,-36"/>
<text text-anchor="middle" x="292.5" y="-20.8" font-family="Times,serif" font-size="9.00">tracing</text>
<text text-anchor="middle" x="292.5" y="-10.8" font-family="Times,serif" font-size="9.00">(external)</text>
</g>
<!-- toka&#45;cli&#45;&gt;ext_tracing -->
<g id="edge4" class="edge">
<title>toka&#45;cli&#45;&gt;ext_tracing</title>
<path fill="none" stroke="gray" stroke-dasharray="5,2" d="M232.28,-71.7C242.25,-62.97 254.51,-52.24 265.36,-42.75"/>
<polygon fill="gray" stroke="gray" points="267.73,-45.32 272.95,-36.1 263.12,-40.06 267.73,-45.32"/>
</g>
<!-- ext_anyhow -->
<g id="node6" class="node">
<title>ext_anyhow</title>
<path fill="lightgray" stroke="black" d="M391.5,-36C391.5,-36 353.5,-36 353.5,-36 347.5,-36 341.5,-30 341.5,-24 341.5,-24 341.5,-12 341.5,-12 341.5,-6 347.5,0 353.5,0 353.5,0 391.5,0 391.5,0 397.5,0 403.5,-6 403.5,-12 403.5,-12 403.5,-24 403.5,-24 403.5,-30 397.5,-36 391.5,-36"/>
<text text-anchor="middle" x="372.5" y="-20.8" font-family="Times,serif" font-size="9.00">anyhow</text>
<text text-anchor="middle" x="372.5" y="-10.8" font-family="Times,serif" font-size="9.00">(external)</text>
</g>
<!-- toka&#45;cli&#45;&gt;ext_anyhow -->
<g id="edge5" class="edge">
<title>toka&#45;cli&#45;&gt;ext_anyhow</title>
<path fill="none" stroke="gray" stroke-dasharray="5,2" d="M251.64,-71.88C275.98,-61.23 307.22,-47.56 331.83,-36.79"/>
<polygon fill="gray" stroke="gray" points="333.5,-39.88 341.26,-32.67 330.69,-33.47 333.5,-39.88"/>
</g>
</g>
</svg>
