<?xml version="1.0" encoding="UTF-8" standalone="no"?>
<!DOCTYPE svg PUBLIC "-//W3C//DTD SVG 1.1//EN"
 "http://www.w3.org/Graphics/SVG/1.1/DTD/svg11.dtd">
<!-- Generated by graphviz version 2.42.4 (0)
 -->
<!-- Pages: 1 -->
<svg width="1090pt" height="483pt"
 viewBox="0.00 0.00 261.50 116.00" xmlns="http://www.w3.org/2000/svg" xmlns:xlink="http://www.w3.org/1999/xlink">
<g id="graph0" class="graph" transform="scale(4.17 4.17) rotate(0) translate(4 112)">
<polygon fill="white" stroke="transparent" points="-4,4 -4,-112 257.5,-112 257.5,4 -4,4"/>
<!-- toka&#45;store&#45;sled -->
<g id="node1" class="node">
<title>toka&#45;store&#45;sled</title>
<path fill="#4ecdc4" stroke="black" stroke-width="2" d="M203.5,-108C203.5,-108 81.5,-108 81.5,-108 75.5,-108 69.5,-102 69.5,-96 69.5,-96 69.5,-84 69.5,-84 69.5,-78 75.5,-72 81.5,-72 81.5,-72 203.5,-72 203.5,-72 209.5,-72 215.5,-78 215.5,-84 215.5,-84 215.5,-96 215.5,-96 215.5,-102 209.5,-108 203.5,-108"/>
<text text-anchor="middle" x="142.5" y="-93.4" font-family="Times,serif" font-size="12.00">toka&#45;store&#45;sled</text>
<text text-anchor="middle" x="142.5" y="-80.4" font-family="Times,serif" font-size="12.00">v{&#39;workspace&#39;: True}</text>
</g>
<!-- toka&#45;store&#45;core -->
<g id="node2" class="node">
<title>toka&#45;store&#45;core</title>
<path fill="#4ecdc4" stroke="black" d="M81,-36C81,-36 12,-36 12,-36 6,-36 0,-30 0,-24 0,-24 0,-12 0,-12 0,-6 6,0 12,0 12,0 81,0 81,0 87,0 93,-6 93,-12 93,-12 93,-24 93,-24 93,-30 87,-36 81,-36"/>
<text text-anchor="middle" x="46.5" y="-21" font-family="Times,serif" font-size="10.00">toka&#45;store&#45;core</text>
<text text-anchor="middle" x="46.5" y="-10" font-family="Times,serif" font-size="10.00">(workspace)</text>
</g>
<!-- toka&#45;store&#45;sled&#45;&gt;toka&#45;store&#45;core -->
<g id="edge1" class="edge">
<title>toka&#45;store&#45;sled&#45;&gt;toka&#45;store&#45;core</title>
<path fill="none" stroke="blue" stroke-width="2" d="M118.77,-71.7C106.56,-62.8 91.51,-51.82 78.32,-42.2"/>
<polygon fill="blue" stroke="blue" stroke-width="2" points="80.1,-39.17 69.96,-36.1 75.98,-44.82 80.1,-39.17"/>
</g>
<!-- ext_tokio -->
<g id="node3" class="node">
<title>ext_tokio</title>
<path fill="lightgray" stroke="black" d="M161.5,-36C161.5,-36 123.5,-36 123.5,-36 117.5,-36 111.5,-30 111.5,-24 111.5,-24 111.5,-12 111.5,-12 111.5,-6 117.5,0 123.5,0 123.5,0 161.5,0 161.5,0 167.5,0 173.5,-6 173.5,-12 173.5,-12 173.5,-24 173.5,-24 173.5,-30 167.5,-36 161.5,-36"/>
<text text-anchor="middle" x="142.5" y="-20.8" font-family="Times,serif" font-size="9.00">tokio</text>
<text text-anchor="middle" x="142.5" y="-10.8" font-family="Times,serif" font-size="9.00">(external)</text>
</g>
<!-- toka&#45;store&#45;sled&#45;&gt;ext_tokio -->
<g id="edge2" class="edge">
<title>toka&#45;store&#45;sled&#45;&gt;ext_tokio</title>
<path fill="none" stroke="gray" stroke-dasharray="5,2" d="M142.5,-71.7C142.5,-63.98 142.5,-54.71 142.5,-46.11"/>
<polygon fill="gray" stroke="gray" points="146,-46.1 142.5,-36.1 139,-46.1 146,-46.1"/>
</g>
<!-- ext_anyhow -->
<g id="node4" class="node">
<title>ext_anyhow</title>
<path fill="lightgray" stroke="black" d="M241.5,-36C241.5,-36 203.5,-36 203.5,-36 197.5,-36 191.5,-30 191.5,-24 191.5,-24 191.5,-12 191.5,-12 191.5,-6 197.5,0 203.5,0 203.5,0 241.5,0 241.5,0 247.5,0 253.5,-6 253.5,-12 253.5,-12 253.5,-24 253.5,-24 253.5,-30 247.5,-36 241.5,-36"/>
<text text-anchor="middle" x="222.5" y="-20.8" font-family="Times,serif" font-size="9.00">anyhow</text>
<text text-anchor="middle" x="222.5" y="-10.8" font-family="Times,serif" font-size="9.00">(external)</text>
</g>
<!-- toka&#45;store&#45;sled&#45;&gt;ext_anyhow -->
<g id="edge3" class="edge">
<title>toka&#45;store&#45;sled&#45;&gt;ext_anyhow</title>
<path fill="none" stroke="gray" stroke-dasharray="5,2" d="M162.28,-71.7C172.25,-62.97 184.51,-52.24 195.36,-42.75"/>
<polygon fill="gray" stroke="gray" points="197.73,-45.32 202.95,-36.1 193.12,-40.06 197.73,-45.32"/>
</g>
</g>
</svg>
