<?xml version="1.0" encoding="UTF-8" standalone="no"?>
<!DOCTYPE svg PUBLIC "-//W3C//DTD SVG 1.1//EN"
 "http://www.w3.org/Graphics/SVG/1.1/DTD/svg11.dtd">
<!-- Generated by graphviz version 2.42.4 (0)
 -->
<!-- Pages: 1 -->
<svg width="412pt" height="483pt"
 viewBox="0.00 0.00 99.00 116.00" xmlns="http://www.w3.org/2000/svg" xmlns:xlink="http://www.w3.org/1999/xlink">
<g id="graph0" class="graph" transform="scale(4.17 4.17) rotate(0) translate(4 112)">
<polygon fill="white" stroke="transparent" points="-4,4 -4,-112 95,-112 95,4 -4,4"/>
<!-- toka&#45;cvm -->
<g id="node1" class="node">
<title>toka&#45;cvm</title>
<path fill="#d5dbdb" stroke="black" stroke-width="2" d="M79,-108C79,-108 12,-108 12,-108 6,-108 0,-102 0,-96 0,-96 0,-84 0,-84 0,-78 6,-72 12,-72 12,-72 79,-72 79,-72 85,-72 91,-78 91,-84 91,-84 91,-96 91,-96 91,-102 85,-108 79,-108"/>
<text text-anchor="middle" x="45.5" y="-93.4" font-family="Times,serif" font-size="12.00">toka&#45;cvm</text>
<text text-anchor="middle" x="45.5" y="-80.4" font-family="Times,serif" font-size="12.00">v0.2.0&#45;alpha</text>
</g>
<!-- ext_anyhow -->
<g id="node2" class="node">
<title>ext_anyhow</title>
<path fill="lightgray" stroke="black" d="M64.5,-36C64.5,-36 26.5,-36 26.5,-36 20.5,-36 14.5,-30 14.5,-24 14.5,-24 14.5,-12 14.5,-12 14.5,-6 20.5,0 26.5,0 26.5,0 64.5,0 64.5,0 70.5,0 76.5,-6 76.5,-12 76.5,-12 76.5,-24 76.5,-24 76.5,-30 70.5,-36 64.5,-36"/>
<text text-anchor="middle" x="45.5" y="-20.8" font-family="Times,serif" font-size="9.00">anyhow</text>
<text text-anchor="middle" x="45.5" y="-10.8" font-family="Times,serif" font-size="9.00">(external)</text>
</g>
<!-- toka&#45;cvm&#45;&gt;ext_anyhow -->
<g id="edge1" class="edge">
<title>toka&#45;cvm&#45;&gt;ext_anyhow</title>
<path fill="none" stroke="gray" stroke-dasharray="5,2" d="M45.5,-71.7C45.5,-63.98 45.5,-54.71 45.5,-46.11"/>
<polygon fill="gray" stroke="gray" points="49,-46.1 45.5,-36.1 42,-46.1 49,-46.1"/>
</g>
</g>
</svg>
