<?xml version="1.0" encoding="UTF-8" standalone="no"?>
<!DOCTYPE svg PUBLIC "-//W3C//DTD SVG 1.1//EN"
 "http://www.w3.org/Graphics/SVG/1.1/DTD/svg11.dtd">
<!-- Generated by graphviz version 2.42.4 (0)
 -->
<!-- Pages: 1 -->
<svg width="2867pt" height="483pt"
 viewBox="0.00 0.00 688.00 116.00" xmlns="http://www.w3.org/2000/svg" xmlns:xlink="http://www.w3.org/1999/xlink">
<g id="graph0" class="graph" transform="scale(4.17 4.17) rotate(0) translate(4 112)">
<polygon fill="white" stroke="transparent" points="-4,4 -4,-112 684,-112 684,4 -4,4"/>
<!-- toka&#45;capability&#45;delegation -->
<g id="node1" class="node">
<title>toka&#45;capability&#45;delegation</title>
<path fill="#d5dbdb" stroke="black" stroke-width="2" d="M483.5,-108C483.5,-108 334.5,-108 334.5,-108 328.5,-108 322.5,-102 322.5,-96 322.5,-96 322.5,-84 322.5,-84 322.5,-78 328.5,-72 334.5,-72 334.5,-72 483.5,-72 483.5,-72 489.5,-72 495.5,-78 495.5,-84 495.5,-84 495.5,-96 495.5,-96 495.5,-102 489.5,-108 483.5,-108"/>
<text text-anchor="middle" x="409" y="-93.4" font-family="Times,serif" font-size="12.00">toka&#45;capability&#45;delegation</text>
<text text-anchor="middle" x="409" y="-80.4" font-family="Times,serif" font-size="12.00">v0.3.0</text>
</g>
<!-- toka&#45;capability&#45;jwt&#45;hs256 -->
<g id="node2" class="node">
<title>toka&#45;capability&#45;jwt&#45;hs256</title>
<path fill="#d5dbdb" stroke="black" d="M132,-36C132,-36 12,-36 12,-36 6,-36 0,-30 0,-24 0,-24 0,-12 0,-12 0,-6 6,0 12,0 12,0 132,0 132,0 138,0 144,-6 144,-12 144,-12 144,-24 144,-24 144,-30 138,-36 132,-36"/>
<text text-anchor="middle" x="72" y="-21" font-family="Times,serif" font-size="10.00">toka&#45;capability&#45;jwt&#45;hs256</text>
<text text-anchor="middle" x="72" y="-10" font-family="Times,serif" font-size="10.00">(workspace)</text>
</g>
<!-- toka&#45;capability&#45;delegation&#45;&gt;toka&#45;capability&#45;jwt&#45;hs256 -->
<g id="edge1" class="edge">
<title>toka&#45;capability&#45;delegation&#45;&gt;toka&#45;capability&#45;jwt&#45;hs256</title>
<path fill="none" stroke="blue" stroke-width="2" d="M326.56,-71.99C278.92,-62.15 217.59,-49.45 154.55,-36.32"/>
<polygon fill="blue" stroke="blue" stroke-width="2" points="154.93,-32.82 144.42,-34.21 153.5,-39.68 154.93,-32.82"/>
</g>
<!-- toka&#45;capability&#45;core -->
<g id="node3" class="node">
<title>toka&#45;capability&#45;core</title>
<path fill="#ff6b6b" stroke="black" d="M267.5,-36C267.5,-36 174.5,-36 174.5,-36 168.5,-36 162.5,-30 162.5,-24 162.5,-24 162.5,-12 162.5,-12 162.5,-6 168.5,0 174.5,0 174.5,0 267.5,0 267.5,0 273.5,0 279.5,-6 279.5,-12 279.5,-12 279.5,-24 279.5,-24 279.5,-30 273.5,-36 267.5,-36"/>
<text text-anchor="middle" x="221" y="-21" font-family="Times,serif" font-size="10.00">toka&#45;capability&#45;core</text>
<text text-anchor="middle" x="221" y="-10" font-family="Times,serif" font-size="10.00">(workspace)</text>
</g>
<!-- toka&#45;capability&#45;delegation&#45;&gt;toka&#45;capability&#45;core -->
<g id="edge2" class="edge">
<title>toka&#45;capability&#45;delegation&#45;&gt;toka&#45;capability&#45;core</title>
<path fill="none" stroke="blue" stroke-width="2" d="M363.01,-71.88C336.85,-62.14 303.91,-49.87 276.35,-39.61"/>
<polygon fill="blue" stroke="blue" stroke-width="2" points="277.43,-36.28 266.84,-36.07 274.99,-42.84 277.43,-36.28"/>
</g>
<!-- ext_thiserror -->
<g id="node4" class="node">
<title>ext_thiserror</title>
<path fill="lightgray" stroke="black" d="M348,-36C348,-36 310,-36 310,-36 304,-36 298,-30 298,-24 298,-24 298,-12 298,-12 298,-6 304,0 310,0 310,0 348,0 348,0 354,0 360,-6 360,-12 360,-12 360,-24 360,-24 360,-30 354,-36 348,-36"/>
<text text-anchor="middle" x="329" y="-20.8" font-family="Times,serif" font-size="9.00">thiserror</text>
<text text-anchor="middle" x="329" y="-10.8" font-family="Times,serif" font-size="9.00">(external)</text>
</g>
<!-- toka&#45;capability&#45;delegation&#45;&gt;ext_thiserror -->
<g id="edge3" class="edge">
<title>toka&#45;capability&#45;delegation&#45;&gt;ext_thiserror</title>
<path fill="none" stroke="gray" stroke-dasharray="5,2" d="M389.22,-71.7C379.25,-62.97 366.99,-52.24 356.14,-42.75"/>
<polygon fill="gray" stroke="gray" points="358.38,-40.06 348.55,-36.1 353.77,-45.32 358.38,-40.06"/>
</g>
<!-- ext_tokio -->
<g id="node5" class="node">
<title>ext_tokio</title>
<path fill="lightgray" stroke="black" d="M428,-36C428,-36 390,-36 390,-36 384,-36 378,-30 378,-24 378,-24 378,-12 378,-12 378,-6 384,0 390,0 390,0 428,0 428,0 434,0 440,-6 440,-12 440,-12 440,-24 440,-24 440,-30 434,-36 428,-36"/>
<text text-anchor="middle" x="409" y="-20.8" font-family="Times,serif" font-size="9.00">tokio</text>
<text text-anchor="middle" x="409" y="-10.8" font-family="Times,serif" font-size="9.00">(external)</text>
</g>
<!-- toka&#45;capability&#45;delegation&#45;&gt;ext_tokio -->
<g id="edge4" class="edge">
<title>toka&#45;capability&#45;delegation&#45;&gt;ext_tokio</title>
<path fill="none" stroke="gray" stroke-dasharray="5,2" d="M409,-71.7C409,-63.98 409,-54.71 409,-46.11"/>
<polygon fill="gray" stroke="gray" points="412.5,-46.1 409,-36.1 405.5,-46.1 412.5,-46.1"/>
</g>
<!-- ext_serde -->
<g id="node6" class="node">
<title>ext_serde</title>
<path fill="lightgray" stroke="black" d="M508,-36C508,-36 470,-36 470,-36 464,-36 458,-30 458,-24 458,-24 458,-12 458,-12 458,-6 464,0 470,0 470,0 508,0 508,0 514,0 520,-6 520,-12 520,-12 520,-24 520,-24 520,-30 514,-36 508,-36"/>
<text text-anchor="middle" x="489" y="-20.8" font-family="Times,serif" font-size="9.00">serde</text>
<text text-anchor="middle" x="489" y="-10.8" font-family="Times,serif" font-size="9.00">(external)</text>
</g>
<!-- toka&#45;capability&#45;delegation&#45;&gt;ext_serde -->
<g id="edge5" class="edge">
<title>toka&#45;capability&#45;delegation&#45;&gt;ext_serde</title>
<path fill="none" stroke="gray" stroke-dasharray="5,2" d="M428.78,-71.7C438.75,-62.97 451.01,-52.24 461.86,-42.75"/>
<polygon fill="gray" stroke="gray" points="464.23,-45.32 469.45,-36.1 459.62,-40.06 464.23,-45.32"/>
</g>
<!-- ext_tracing -->
<g id="node7" class="node">
<title>ext_tracing</title>
<path fill="lightgray" stroke="black" d="M588,-36C588,-36 550,-36 550,-36 544,-36 538,-30 538,-24 538,-24 538,-12 538,-12 538,-6 544,0 550,0 550,0 588,0 588,0 594,0 600,-6 600,-12 600,-12 600,-24 600,-24 600,-30 594,-36 588,-36"/>
<text text-anchor="middle" x="569" y="-20.8" font-family="Times,serif" font-size="9.00">tracing</text>
<text text-anchor="middle" x="569" y="-10.8" font-family="Times,serif" font-size="9.00">(external)</text>
</g>
<!-- toka&#45;capability&#45;delegation&#45;&gt;ext_tracing -->
<g id="edge6" class="edge">
<title>toka&#45;capability&#45;delegation&#45;&gt;ext_tracing</title>
<path fill="none" stroke="gray" stroke-dasharray="5,2" d="M448.14,-71.88C472.48,-61.23 503.72,-47.56 528.33,-36.79"/>
<polygon fill="gray" stroke="gray" points="530,-39.88 537.76,-32.67 527.19,-33.47 530,-39.88"/>
</g>
<!-- ext_anyhow -->
<g id="node8" class="node">
<title>ext_anyhow</title>
<path fill="lightgray" stroke="black" d="M668,-36C668,-36 630,-36 630,-36 624,-36 618,-30 618,-24 618,-24 618,-12 618,-12 618,-6 624,0 630,0 630,0 668,0 668,0 674,0 680,-6 680,-12 680,-12 680,-24 680,-24 680,-30 674,-36 668,-36"/>
<text text-anchor="middle" x="649" y="-20.8" font-family="Times,serif" font-size="9.00">anyhow</text>
<text text-anchor="middle" x="649" y="-10.8" font-family="Times,serif" font-size="9.00">(external)</text>
</g>
<!-- toka&#45;capability&#45;delegation&#45;&gt;ext_anyhow -->
<g id="edge7" class="edge">
<title>toka&#45;capability&#45;delegation&#45;&gt;ext_anyhow</title>
<path fill="none" stroke="gray" stroke-dasharray="5,2" d="M483.37,-71.98C518.9,-63.21 562.07,-51.65 608.16,-36.07"/>
<polygon fill="gray" stroke="gray" points="609.4,-39.35 617.72,-32.79 607.13,-32.72 609.4,-39.35"/>
</g>
</g>
</svg>
