<?xml version="1.0" encoding="UTF-8" standalone="no"?>
<!DOCTYPE svg PUBLIC "-//W3C//DTD SVG 1.1//EN"
 "http://www.w3.org/Graphics/SVG/1.1/DTD/svg11.dtd">
<!-- Generated by graphviz version 2.42.4 (0)
 -->
<!-- Pages: 1 -->
<svg width="958pt" height="483pt"
 viewBox="0.00 0.00 230.00 116.00" xmlns="http://www.w3.org/2000/svg" xmlns:xlink="http://www.w3.org/1999/xlink">
<g id="graph0" class="graph" transform="scale(4.17 4.17) rotate(0) translate(4 112)">
<polygon fill="white" stroke="transparent" points="-4,4 -4,-112 226,-112 226,4 -4,4"/>
<!-- toka&#45;store&#45;core -->
<g id="node1" class="node">
<title>toka&#45;store&#45;core</title>
<path fill="#4ecdc4" stroke="black" stroke-width="2" d="M172,-108C172,-108 50,-108 50,-108 44,-108 38,-102 38,-96 38,-96 38,-84 38,-84 38,-78 44,-72 50,-72 50,-72 172,-72 172,-72 178,-72 184,-78 184,-84 184,-84 184,-96 184,-96 184,-102 178,-108 172,-108"/>
<text text-anchor="middle" x="111" y="-93.4" font-family="Times,serif" font-size="12.00">toka&#45;store&#45;core</text>
<text text-anchor="middle" x="111" y="-80.4" font-family="Times,serif" font-size="12.00">v{&#39;workspace&#39;: True}</text>
</g>
<!-- ext_thiserror -->
<g id="node2" class="node">
<title>ext_thiserror</title>
<path fill="lightgray" stroke="black" d="M50,-36C50,-36 12,-36 12,-36 6,-36 0,-30 0,-24 0,-24 0,-12 0,-12 0,-6 6,0 12,0 12,0 50,0 50,0 56,0 62,-6 62,-12 62,-12 62,-24 62,-24 62,-30 56,-36 50,-36"/>
<text text-anchor="middle" x="31" y="-20.8" font-family="Times,serif" font-size="9.00">thiserror</text>
<text text-anchor="middle" x="31" y="-10.8" font-family="Times,serif" font-size="9.00">(external)</text>
</g>
<!-- toka&#45;store&#45;core&#45;&gt;ext_thiserror -->
<g id="edge1" class="edge">
<title>toka&#45;store&#45;core&#45;&gt;ext_thiserror</title>
<path fill="none" stroke="gray" stroke-dasharray="5,2" d="M91.22,-71.7C81.25,-62.97 68.99,-52.24 58.14,-42.75"/>
<polygon fill="gray" stroke="gray" points="60.38,-40.06 50.55,-36.1 55.77,-45.32 60.38,-40.06"/>
</g>
<!-- ext_serde -->
<g id="node3" class="node">
<title>ext_serde</title>
<path fill="lightgray" stroke="black" d="M130,-36C130,-36 92,-36 92,-36 86,-36 80,-30 80,-24 80,-24 80,-12 80,-12 80,-6 86,0 92,0 92,0 130,0 130,0 136,0 142,-6 142,-12 142,-12 142,-24 142,-24 142,-30 136,-36 130,-36"/>
<text text-anchor="middle" x="111" y="-20.8" font-family="Times,serif" font-size="9.00">serde</text>
<text text-anchor="middle" x="111" y="-10.8" font-family="Times,serif" font-size="9.00">(external)</text>
</g>
<!-- toka&#45;store&#45;core&#45;&gt;ext_serde -->
<g id="edge2" class="edge">
<title>toka&#45;store&#45;core&#45;&gt;ext_serde</title>
<path fill="none" stroke="gray" stroke-dasharray="5,2" d="M111,-71.7C111,-63.98 111,-54.71 111,-46.11"/>
<polygon fill="gray" stroke="gray" points="114.5,-46.1 111,-36.1 107.5,-46.1 114.5,-46.1"/>
</g>
<!-- ext_anyhow -->
<g id="node4" class="node">
<title>ext_anyhow</title>
<path fill="lightgray" stroke="black" d="M210,-36C210,-36 172,-36 172,-36 166,-36 160,-30 160,-24 160,-24 160,-12 160,-12 160,-6 166,0 172,0 172,0 210,0 210,0 216,0 222,-6 222,-12 222,-12 222,-24 222,-24 222,-30 216,-36 210,-36"/>
<text text-anchor="middle" x="191" y="-20.8" font-family="Times,serif" font-size="9.00">anyhow</text>
<text text-anchor="middle" x="191" y="-10.8" font-family="Times,serif" font-size="9.00">(external)</text>
</g>
<!-- toka&#45;store&#45;core&#45;&gt;ext_anyhow -->
<g id="edge3" class="edge">
<title>toka&#45;store&#45;core&#45;&gt;ext_anyhow</title>
<path fill="none" stroke="gray" stroke-dasharray="5,2" d="M130.78,-71.7C140.75,-62.97 153.01,-52.24 163.86,-42.75"/>
<polygon fill="gray" stroke="gray" points="166.23,-45.32 171.45,-36.1 161.62,-40.06 166.23,-45.32"/>
</g>
</g>
</svg>
