<?xml version="1.0" encoding="UTF-8" standalone="no"?>
<!DOCTYPE svg PUBLIC "-//W3C//DTD SVG 1.1//EN"
 "http://www.w3.org/Graphics/SVG/1.1/DTD/svg11.dtd">
<!-- Generated by graphviz version 2.42.4 (0)
 -->
<!-- Pages: 1 -->
<svg width="3550pt" height="483pt"
 viewBox="0.00 0.00 852.00 116.00" xmlns="http://www.w3.org/2000/svg" xmlns:xlink="http://www.w3.org/1999/xlink">
<g id="graph0" class="graph" transform="scale(4.17 4.17) rotate(0) translate(4 112)">
<polygon fill="white" stroke="transparent" points="-4,4 -4,-112 848,-112 848,4 -4,4"/>
<!-- toka&#45;orchestration -->
<g id="node1" class="node">
<title>toka&#45;orchestration</title>
<path fill="#f7dc6f" stroke="black" stroke-width="2" d="M545.5,-108C545.5,-108 440.5,-108 440.5,-108 434.5,-108 428.5,-102 428.5,-96 428.5,-96 428.5,-84 428.5,-84 428.5,-78 434.5,-72 440.5,-72 440.5,-72 545.5,-72 545.5,-72 551.5,-72 557.5,-78 557.5,-84 557.5,-84 557.5,-96 557.5,-96 557.5,-102 551.5,-108 545.5,-108"/>
<text text-anchor="middle" x="493" y="-93.4" font-family="Times,serif" font-size="12.00">toka&#45;orchestration</text>
<text text-anchor="middle" x="493" y="-80.4" font-family="Times,serif" font-size="12.00">v0.2.1</text>
</g>
<!-- toka&#45;agent&#45;runtime -->
<g id="node2" class="node">
<title>toka&#45;agent&#45;runtime</title>
<path fill="#96ceb4" stroke="black" d="M104,-36C104,-36 12,-36 12,-36 6,-36 0,-30 0,-24 0,-24 0,-12 0,-12 0,-6 6,0 12,0 12,0 104,0 104,0 110,0 116,-6 116,-12 116,-12 116,-24 116,-24 116,-30 110,-36 104,-36"/>
<text text-anchor="middle" x="58" y="-21" font-family="Times,serif" font-size="10.00">toka&#45;agent&#45;runtime</text>
<text text-anchor="middle" x="58" y="-10" font-family="Times,serif" font-size="10.00">(workspace)</text>
</g>
<!-- toka&#45;orchestration&#45;&gt;toka&#45;agent&#45;runtime -->
<g id="edge1" class="edge">
<title>toka&#45;orchestration&#45;&gt;toka&#45;agent&#45;runtime</title>
<path fill="none" stroke="blue" stroke-width="2" d="M428.5,-81.8C356.91,-73.34 237.81,-57.88 126.11,-36.11"/>
<polygon fill="blue" stroke="blue" stroke-width="2" points="126.51,-32.62 116.02,-34.12 125.15,-39.49 126.51,-32.62"/>
</g>
<!-- toka&#45;bus&#45;core -->
<g id="node3" class="node">
<title>toka&#45;bus&#45;core</title>
<path fill="#ff6b6b" stroke="black" d="M208,-36C208,-36 146,-36 146,-36 140,-36 134,-30 134,-24 134,-24 134,-12 134,-12 134,-6 140,0 146,0 146,0 208,0 208,0 214,0 220,-6 220,-12 220,-12 220,-24 220,-24 220,-30 214,-36 208,-36"/>
<text text-anchor="middle" x="177" y="-21" font-family="Times,serif" font-size="10.00">toka&#45;bus&#45;core</text>
<text text-anchor="middle" x="177" y="-10" font-family="Times,serif" font-size="10.00">(workspace)</text>
</g>
<!-- toka&#45;orchestration&#45;&gt;toka&#45;bus&#45;core -->
<g id="edge2" class="edge">
<title>toka&#45;orchestration&#45;&gt;toka&#45;bus&#45;core</title>
<path fill="none" stroke="blue" stroke-width="2" d="M428.5,-78.24C377.06,-69.16 303.06,-54.99 229.87,-36.07"/>
<polygon fill="blue" stroke="blue" stroke-width="2" points="230.57,-32.64 220.01,-33.49 228.8,-39.41 230.57,-32.64"/>
</g>
<!-- toka&#45;runtime -->
<g id="node4" class="node">
<title>toka&#45;runtime</title>
<path fill="#96ceb4" stroke="black" d="M309.5,-36C309.5,-36 250.5,-36 250.5,-36 244.5,-36 238.5,-30 238.5,-24 238.5,-24 238.5,-12 238.5,-12 238.5,-6 244.5,0 250.5,0 250.5,0 309.5,0 309.5,0 315.5,0 321.5,-6 321.5,-12 321.5,-12 321.5,-24 321.5,-24 321.5,-30 315.5,-36 309.5,-36"/>
<text text-anchor="middle" x="280" y="-21" font-family="Times,serif" font-size="10.00">toka&#45;runtime</text>
<text text-anchor="middle" x="280" y="-10" font-family="Times,serif" font-size="10.00">(workspace)</text>
</g>
<!-- toka&#45;orchestration&#45;&gt;toka&#45;runtime -->
<g id="edge3" class="edge">
<title>toka&#45;orchestration&#45;&gt;toka&#45;runtime</title>
<path fill="none" stroke="blue" stroke-width="2" d="M440.45,-71.89C410.96,-62.27 373.28,-49.94 331.33,-36.1"/>
<polygon fill="blue" stroke="blue" stroke-width="2" points="332.34,-32.75 321.74,-32.94 330.14,-39.39 332.34,-32.75"/>
</g>
<!-- toka&#45;llm&#45;gateway -->
<g id="node5" class="node">
<title>toka&#45;llm&#45;gateway</title>
<path fill="#dda0dd" stroke="black" d="M432,-36C432,-36 352,-36 352,-36 346,-36 340,-30 340,-24 340,-24 340,-12 340,-12 340,-6 346,0 352,0 352,0 432,0 432,0 438,0 444,-6 444,-12 444,-12 444,-24 444,-24 444,-30 438,-36 432,-36"/>
<text text-anchor="middle" x="392" y="-21" font-family="Times,serif" font-size="10.00">toka&#45;llm&#45;gateway</text>
<text text-anchor="middle" x="392" y="-10" font-family="Times,serif" font-size="10.00">(workspace)</text>
</g>
<!-- toka&#45;orchestration&#45;&gt;toka&#45;llm&#45;gateway -->
<g id="edge4" class="edge">
<title>toka&#45;orchestration&#45;&gt;toka&#45;llm&#45;gateway</title>
<path fill="none" stroke="blue" stroke-width="2" d="M468.29,-71.88C455.33,-62.89 439.27,-51.76 425.23,-42.03"/>
<polygon fill="blue" stroke="blue" stroke-width="2" points="427.02,-39.01 416.8,-36.19 423.03,-44.76 427.02,-39.01"/>
</g>
<!-- ext_thiserror -->
<g id="node6" class="node">
<title>ext_thiserror</title>
<path fill="lightgray" stroke="black" d="M512,-36C512,-36 474,-36 474,-36 468,-36 462,-30 462,-24 462,-24 462,-12 462,-12 462,-6 468,0 474,0 474,0 512,0 512,0 518,0 524,-6 524,-12 524,-12 524,-24 524,-24 524,-30 518,-36 512,-36"/>
<text text-anchor="middle" x="493" y="-20.8" font-family="Times,serif" font-size="9.00">thiserror</text>
<text text-anchor="middle" x="493" y="-10.8" font-family="Times,serif" font-size="9.00">(external)</text>
</g>
<!-- toka&#45;orchestration&#45;&gt;ext_thiserror -->
<g id="edge5" class="edge">
<title>toka&#45;orchestration&#45;&gt;ext_thiserror</title>
<path fill="none" stroke="gray" stroke-dasharray="5,2" d="M493,-71.7C493,-63.98 493,-54.71 493,-46.11"/>
<polygon fill="gray" stroke="gray" points="496.5,-46.1 493,-36.1 489.5,-46.1 496.5,-46.1"/>
</g>
<!-- ext_tokio -->
<g id="node7" class="node">
<title>ext_tokio</title>
<path fill="lightgray" stroke="black" d="M592,-36C592,-36 554,-36 554,-36 548,-36 542,-30 542,-24 542,-24 542,-12 542,-12 542,-6 548,0 554,0 554,0 592,0 592,0 598,0 604,-6 604,-12 604,-12 604,-24 604,-24 604,-30 598,-36 592,-36"/>
<text text-anchor="middle" x="573" y="-20.8" font-family="Times,serif" font-size="9.00">tokio</text>
<text text-anchor="middle" x="573" y="-10.8" font-family="Times,serif" font-size="9.00">(external)</text>
</g>
<!-- toka&#45;orchestration&#45;&gt;ext_tokio -->
<g id="edge6" class="edge">
<title>toka&#45;orchestration&#45;&gt;ext_tokio</title>
<path fill="none" stroke="gray" stroke-dasharray="5,2" d="M512.78,-71.7C522.75,-62.97 535.01,-52.24 545.86,-42.75"/>
<polygon fill="gray" stroke="gray" points="548.23,-45.32 553.45,-36.1 543.62,-40.06 548.23,-45.32"/>
</g>
<!-- ext_serde -->
<g id="node8" class="node">
<title>ext_serde</title>
<path fill="lightgray" stroke="black" d="M672,-36C672,-36 634,-36 634,-36 628,-36 622,-30 622,-24 622,-24 622,-12 622,-12 622,-6 628,0 634,0 634,0 672,0 672,0 678,0 684,-6 684,-12 684,-12 684,-24 684,-24 684,-30 678,-36 672,-36"/>
<text text-anchor="middle" x="653" y="-20.8" font-family="Times,serif" font-size="9.00">serde</text>
<text text-anchor="middle" x="653" y="-10.8" font-family="Times,serif" font-size="9.00">(external)</text>
</g>
<!-- toka&#45;orchestration&#45;&gt;ext_serde -->
<g id="edge7" class="edge">
<title>toka&#45;orchestration&#45;&gt;ext_serde</title>
<path fill="none" stroke="gray" stroke-dasharray="5,2" d="M532.14,-71.88C556.48,-61.23 587.72,-47.56 612.33,-36.79"/>
<polygon fill="gray" stroke="gray" points="614,-39.88 621.76,-32.67 611.19,-33.47 614,-39.88"/>
</g>
<!-- ext_tracing -->
<g id="node9" class="node">
<title>ext_tracing</title>
<path fill="lightgray" stroke="black" d="M752,-36C752,-36 714,-36 714,-36 708,-36 702,-30 702,-24 702,-24 702,-12 702,-12 702,-6 708,0 714,0 714,0 752,0 752,0 758,0 764,-6 764,-12 764,-12 764,-24 764,-24 764,-30 758,-36 752,-36"/>
<text text-anchor="middle" x="733" y="-20.8" font-family="Times,serif" font-size="9.00">tracing</text>
<text text-anchor="middle" x="733" y="-10.8" font-family="Times,serif" font-size="9.00">(external)</text>
</g>
<!-- toka&#45;orchestration&#45;&gt;ext_tracing -->
<g id="edge8" class="edge">
<title>toka&#45;orchestration&#45;&gt;ext_tracing</title>
<path fill="none" stroke="gray" stroke-dasharray="5,2" d="M557.65,-74.35C594.77,-65.37 642.32,-52.89 692.08,-36.09"/>
<polygon fill="gray" stroke="gray" points="693.39,-39.34 701.72,-32.79 691.13,-32.72 693.39,-39.34"/>
</g>
<!-- ext_anyhow -->
<g id="node10" class="node">
<title>ext_anyhow</title>
<path fill="lightgray" stroke="black" d="M832,-36C832,-36 794,-36 794,-36 788,-36 782,-30 782,-24 782,-24 782,-12 782,-12 782,-6 788,0 794,0 794,0 832,0 832,0 838,0 844,-6 844,-12 844,-12 844,-24 844,-24 844,-30 838,-36 832,-36"/>
<text text-anchor="middle" x="813" y="-20.8" font-family="Times,serif" font-size="9.00">anyhow</text>
<text text-anchor="middle" x="813" y="-10.8" font-family="Times,serif" font-size="9.00">(external)</text>
</g>
<!-- toka&#45;orchestration&#45;&gt;ext_anyhow -->
<g id="edge9" class="edge">
<title>toka&#45;orchestration&#45;&gt;ext_anyhow</title>
<path fill="none" stroke="gray" stroke-dasharray="5,2" d="M557.61,-80.79C612.62,-72.9 693.7,-59.12 771.79,-36.03"/>
<polygon fill="gray" stroke="gray" points="773.23,-39.25 781.79,-33.01 771.21,-32.55 773.23,-39.25"/>
</g>
</g>
</svg>
