<?xml version="1.0" encoding="UTF-8" standalone="no"?>
<!DOCTYPE svg PUBLIC "-//W3C//DTD SVG 1.1//EN"
 "http://www.w3.org/Graphics/SVG/1.1/DTD/svg11.dtd">
<!-- Generated by graphviz version 2.42.4 (0)
 -->
<!-- Pages: 1 -->
<svg width="1856pt" height="483pt"
 viewBox="0.00 0.00 445.50 116.00" xmlns="http://www.w3.org/2000/svg" xmlns:xlink="http://www.w3.org/1999/xlink">
<g id="graph0" class="graph" transform="scale(4.17 4.17) rotate(0) translate(4 112)">
<polygon fill="white" stroke="transparent" points="-4,4 -4,-112 441.5,-112 441.5,4 -4,4"/>
<!-- toka&#45;key&#45;rotation -->
<g id="node1" class="node">
<title>toka&#45;key&#45;rotation</title>
<path fill="#d5dbdb" stroke="black" stroke-width="2" d="M295,-108C295,-108 198,-108 198,-108 192,-108 186,-102 186,-96 186,-96 186,-84 186,-84 186,-78 192,-72 198,-72 198,-72 295,-72 295,-72 301,-72 307,-78 307,-84 307,-84 307,-96 307,-96 307,-102 301,-108 295,-108"/>
<text text-anchor="middle" x="246.5" y="-93.4" font-family="Times,serif" font-size="12.00">toka&#45;key&#45;rotation</text>
<text text-anchor="middle" x="246.5" y="-80.4" font-family="Times,serif" font-size="12.00">v0.3.0</text>
</g>
<!-- toka&#45;capability&#45;core -->
<g id="node2" class="node">
<title>toka&#45;capability&#45;core</title>
<path fill="#ff6b6b" stroke="black" d="M105,-36C105,-36 12,-36 12,-36 6,-36 0,-30 0,-24 0,-24 0,-12 0,-12 0,-6 6,0 12,0 12,0 105,0 105,0 111,0 117,-6 117,-12 117,-12 117,-24 117,-24 117,-30 111,-36 105,-36"/>
<text text-anchor="middle" x="58.5" y="-21" font-family="Times,serif" font-size="10.00">toka&#45;capability&#45;core</text>
<text text-anchor="middle" x="58.5" y="-10" font-family="Times,serif" font-size="10.00">(workspace)</text>
</g>
<!-- toka&#45;key&#45;rotation&#45;&gt;toka&#45;capability&#45;core -->
<g id="edge1" class="edge">
<title>toka&#45;key&#45;rotation&#45;&gt;toka&#45;capability&#45;core</title>
<path fill="none" stroke="blue" stroke-width="2" d="M200.51,-71.88C174.35,-62.14 141.41,-49.87 113.85,-39.61"/>
<polygon fill="blue" stroke="blue" stroke-width="2" points="114.93,-36.28 104.34,-36.07 112.49,-42.84 114.93,-36.28"/>
</g>
<!-- ext_tokio -->
<g id="node3" class="node">
<title>ext_tokio</title>
<path fill="lightgray" stroke="black" d="M185.5,-36C185.5,-36 147.5,-36 147.5,-36 141.5,-36 135.5,-30 135.5,-24 135.5,-24 135.5,-12 135.5,-12 135.5,-6 141.5,0 147.5,0 147.5,0 185.5,0 185.5,0 191.5,0 197.5,-6 197.5,-12 197.5,-12 197.5,-24 197.5,-24 197.5,-30 191.5,-36 185.5,-36"/>
<text text-anchor="middle" x="166.5" y="-20.8" font-family="Times,serif" font-size="9.00">tokio</text>
<text text-anchor="middle" x="166.5" y="-10.8" font-family="Times,serif" font-size="9.00">(external)</text>
</g>
<!-- toka&#45;key&#45;rotation&#45;&gt;ext_tokio -->
<g id="edge2" class="edge">
<title>toka&#45;key&#45;rotation&#45;&gt;ext_tokio</title>
<path fill="none" stroke="gray" stroke-dasharray="5,2" d="M226.72,-71.7C216.75,-62.97 204.49,-52.24 193.64,-42.75"/>
<polygon fill="gray" stroke="gray" points="195.88,-40.06 186.05,-36.1 191.27,-45.32 195.88,-40.06"/>
</g>
<!-- ext_serde -->
<g id="node4" class="node">
<title>ext_serde</title>
<path fill="lightgray" stroke="black" d="M265.5,-36C265.5,-36 227.5,-36 227.5,-36 221.5,-36 215.5,-30 215.5,-24 215.5,-24 215.5,-12 215.5,-12 215.5,-6 221.5,0 227.5,0 227.5,0 265.5,0 265.5,0 271.5,0 277.5,-6 277.5,-12 277.5,-12 277.5,-24 277.5,-24 277.5,-30 271.5,-36 265.5,-36"/>
<text text-anchor="middle" x="246.5" y="-20.8" font-family="Times,serif" font-size="9.00">serde</text>
<text text-anchor="middle" x="246.5" y="-10.8" font-family="Times,serif" font-size="9.00">(external)</text>
</g>
<!-- toka&#45;key&#45;rotation&#45;&gt;ext_serde -->
<g id="edge3" class="edge">
<title>toka&#45;key&#45;rotation&#45;&gt;ext_serde</title>
<path fill="none" stroke="gray" stroke-dasharray="5,2" d="M246.5,-71.7C246.5,-63.98 246.5,-54.71 246.5,-46.11"/>
<polygon fill="gray" stroke="gray" points="250,-46.1 246.5,-36.1 243,-46.1 250,-46.1"/>
</g>
<!-- ext_tracing -->
<g id="node5" class="node">
<title>ext_tracing</title>
<path fill="lightgray" stroke="black" d="M345.5,-36C345.5,-36 307.5,-36 307.5,-36 301.5,-36 295.5,-30 295.5,-24 295.5,-24 295.5,-12 295.5,-12 295.5,-6 301.5,0 307.5,0 307.5,0 345.5,0 345.5,0 351.5,0 357.5,-6 357.5,-12 357.5,-12 357.5,-24 357.5,-24 357.5,-30 351.5,-36 345.5,-36"/>
<text text-anchor="middle" x="326.5" y="-20.8" font-family="Times,serif" font-size="9.00">tracing</text>
<text text-anchor="middle" x="326.5" y="-10.8" font-family="Times,serif" font-size="9.00">(external)</text>
</g>
<!-- toka&#45;key&#45;rotation&#45;&gt;ext_tracing -->
<g id="edge4" class="edge">
<title>toka&#45;key&#45;rotation&#45;&gt;ext_tracing</title>
<path fill="none" stroke="gray" stroke-dasharray="5,2" d="M266.28,-71.7C276.25,-62.97 288.51,-52.24 299.36,-42.75"/>
<polygon fill="gray" stroke="gray" points="301.73,-45.32 306.95,-36.1 297.12,-40.06 301.73,-45.32"/>
</g>
<!-- ext_anyhow -->
<g id="node6" class="node">
<title>ext_anyhow</title>
<path fill="lightgray" stroke="black" d="M425.5,-36C425.5,-36 387.5,-36 387.5,-36 381.5,-36 375.5,-30 375.5,-24 375.5,-24 375.5,-12 375.5,-12 375.5,-6 381.5,0 387.5,0 387.5,0 425.5,0 425.5,0 431.5,0 437.5,-6 437.5,-12 437.5,-12 437.5,-24 437.5,-24 437.5,-30 431.5,-36 425.5,-36"/>
<text text-anchor="middle" x="406.5" y="-20.8" font-family="Times,serif" font-size="9.00">anyhow</text>
<text text-anchor="middle" x="406.5" y="-10.8" font-family="Times,serif" font-size="9.00">(external)</text>
</g>
<!-- toka&#45;key&#45;rotation&#45;&gt;ext_anyhow -->
<g id="edge5" class="edge">
<title>toka&#45;key&#45;rotation&#45;&gt;ext_anyhow</title>
<path fill="none" stroke="gray" stroke-dasharray="5,2" d="M285.64,-71.88C309.98,-61.23 341.22,-47.56 365.83,-36.79"/>
<polygon fill="gray" stroke="gray" points="367.5,-39.88 375.26,-32.67 364.69,-33.47 367.5,-39.88"/>
</g>
</g>
</svg>
