<?xml version="1.0" encoding="UTF-8" standalone="no"?>
<!DOCTYPE svg PUBLIC "-//W3C//DTD SVG 1.1//EN"
 "http://www.w3.org/Graphics/SVG/1.1/DTD/svg11.dtd">
<!-- Generated by graphviz version 2.42.4 (0)
 -->
<!-- Pages: 1 -->
<svg width="2190pt" height="483pt"
 viewBox="0.00 0.00 525.50 116.00" xmlns="http://www.w3.org/2000/svg" xmlns:xlink="http://www.w3.org/1999/xlink">
<g id="graph0" class="graph" transform="scale(4.17 4.17) rotate(0) translate(4 112)">
<polygon fill="white" stroke="transparent" points="-4,4 -4,-112 521.5,-112 521.5,4 -4,4"/>
<!-- toka&#45;rate&#45;limiter -->
<g id="node1" class="node">
<title>toka&#45;rate&#45;limiter</title>
<path fill="#d5dbdb" stroke="black" stroke-width="2" d="M332.5,-108C332.5,-108 240.5,-108 240.5,-108 234.5,-108 228.5,-102 228.5,-96 228.5,-96 228.5,-84 228.5,-84 228.5,-78 234.5,-72 240.5,-72 240.5,-72 332.5,-72 332.5,-72 338.5,-72 344.5,-78 344.5,-84 344.5,-84 344.5,-96 344.5,-96 344.5,-102 338.5,-108 332.5,-108"/>
<text text-anchor="middle" x="286.5" y="-93.4" font-family="Times,serif" font-size="12.00">toka&#45;rate&#45;limiter</text>
<text text-anchor="middle" x="286.5" y="-80.4" font-family="Times,serif" font-size="12.00">v0.3.0</text>
</g>
<!-- toka&#45;capability&#45;core -->
<g id="node2" class="node">
<title>toka&#45;capability&#45;core</title>
<path fill="#ff6b6b" stroke="black" d="M105,-36C105,-36 12,-36 12,-36 6,-36 0,-30 0,-24 0,-24 0,-12 0,-12 0,-6 6,0 12,0 12,0 105,0 105,0 111,0 117,-6 117,-12 117,-12 117,-24 117,-24 117,-30 111,-36 105,-36"/>
<text text-anchor="middle" x="58.5" y="-21" font-family="Times,serif" font-size="10.00">toka&#45;capability&#45;core</text>
<text text-anchor="middle" x="58.5" y="-10" font-family="Times,serif" font-size="10.00">(workspace)</text>
</g>
<!-- toka&#45;rate&#45;limiter&#45;&gt;toka&#45;capability&#45;core -->
<g id="edge1" class="edge">
<title>toka&#45;rate&#45;limiter&#45;&gt;toka&#45;capability&#45;core</title>
<path fill="none" stroke="blue" stroke-width="2" d="M231.02,-71.97C198.74,-62.06 157.89,-49.51 124.04,-39.12"/>
<polygon fill="blue" stroke="blue" stroke-width="2" points="124.82,-35.7 114.23,-36.11 122.76,-42.39 124.82,-35.7"/>
</g>
<!-- ext_thiserror -->
<g id="node3" class="node">
<title>ext_thiserror</title>
<path fill="lightgray" stroke="black" d="M185.5,-36C185.5,-36 147.5,-36 147.5,-36 141.5,-36 135.5,-30 135.5,-24 135.5,-24 135.5,-12 135.5,-12 135.5,-6 141.5,0 147.5,0 147.5,0 185.5,0 185.5,0 191.5,0 197.5,-6 197.5,-12 197.5,-12 197.5,-24 197.5,-24 197.5,-30 191.5,-36 185.5,-36"/>
<text text-anchor="middle" x="166.5" y="-20.8" font-family="Times,serif" font-size="9.00">thiserror</text>
<text text-anchor="middle" x="166.5" y="-10.8" font-family="Times,serif" font-size="9.00">(external)</text>
</g>
<!-- toka&#45;rate&#45;limiter&#45;&gt;ext_thiserror -->
<g id="edge2" class="edge">
<title>toka&#45;rate&#45;limiter&#45;&gt;ext_thiserror</title>
<path fill="none" stroke="gray" stroke-dasharray="5,2" d="M257.14,-71.88C241.45,-62.72 221.94,-51.34 205.05,-41.48"/>
<polygon fill="gray" stroke="gray" points="206.37,-38.21 195.97,-36.19 202.84,-44.25 206.37,-38.21"/>
</g>
<!-- ext_tokio -->
<g id="node4" class="node">
<title>ext_tokio</title>
<path fill="lightgray" stroke="black" d="M265.5,-36C265.5,-36 227.5,-36 227.5,-36 221.5,-36 215.5,-30 215.5,-24 215.5,-24 215.5,-12 215.5,-12 215.5,-6 221.5,0 227.5,0 227.5,0 265.5,0 265.5,0 271.5,0 277.5,-6 277.5,-12 277.5,-12 277.5,-24 277.5,-24 277.5,-30 271.5,-36 265.5,-36"/>
<text text-anchor="middle" x="246.5" y="-20.8" font-family="Times,serif" font-size="9.00">tokio</text>
<text text-anchor="middle" x="246.5" y="-10.8" font-family="Times,serif" font-size="9.00">(external)</text>
</g>
<!-- toka&#45;rate&#45;limiter&#45;&gt;ext_tokio -->
<g id="edge3" class="edge">
<title>toka&#45;rate&#45;limiter&#45;&gt;ext_tokio</title>
<path fill="none" stroke="gray" stroke-dasharray="5,2" d="M276.61,-71.7C272.01,-63.64 266.44,-53.89 261.35,-44.98"/>
<polygon fill="gray" stroke="gray" points="264.27,-43.05 256.27,-36.1 258.2,-46.52 264.27,-43.05"/>
</g>
<!-- ext_serde -->
<g id="node5" class="node">
<title>ext_serde</title>
<path fill="lightgray" stroke="black" d="M345.5,-36C345.5,-36 307.5,-36 307.5,-36 301.5,-36 295.5,-30 295.5,-24 295.5,-24 295.5,-12 295.5,-12 295.5,-6 301.5,0 307.5,0 307.5,0 345.5,0 345.5,0 351.5,0 357.5,-6 357.5,-12 357.5,-12 357.5,-24 357.5,-24 357.5,-30 351.5,-36 345.5,-36"/>
<text text-anchor="middle" x="326.5" y="-20.8" font-family="Times,serif" font-size="9.00">serde</text>
<text text-anchor="middle" x="326.5" y="-10.8" font-family="Times,serif" font-size="9.00">(external)</text>
</g>
<!-- toka&#45;rate&#45;limiter&#45;&gt;ext_serde -->
<g id="edge4" class="edge">
<title>toka&#45;rate&#45;limiter&#45;&gt;ext_serde</title>
<path fill="none" stroke="gray" stroke-dasharray="5,2" d="M296.39,-71.7C300.99,-63.64 306.56,-53.89 311.65,-44.98"/>
<polygon fill="gray" stroke="gray" points="314.8,-46.52 316.73,-36.1 308.73,-43.05 314.8,-46.52"/>
</g>
<!-- ext_tracing -->
<g id="node6" class="node">
<title>ext_tracing</title>
<path fill="lightgray" stroke="black" d="M425.5,-36C425.5,-36 387.5,-36 387.5,-36 381.5,-36 375.5,-30 375.5,-24 375.5,-24 375.5,-12 375.5,-12 375.5,-6 381.5,0 387.5,0 387.5,0 425.5,0 425.5,0 431.5,0 437.5,-6 437.5,-12 437.5,-12 437.5,-24 437.5,-24 437.5,-30 431.5,-36 425.5,-36"/>
<text text-anchor="middle" x="406.5" y="-20.8" font-family="Times,serif" font-size="9.00">tracing</text>
<text text-anchor="middle" x="406.5" y="-10.8" font-family="Times,serif" font-size="9.00">(external)</text>
</g>
<!-- toka&#45;rate&#45;limiter&#45;&gt;ext_tracing -->
<g id="edge5" class="edge">
<title>toka&#45;rate&#45;limiter&#45;&gt;ext_tracing</title>
<path fill="none" stroke="gray" stroke-dasharray="5,2" d="M315.86,-71.88C331.55,-62.72 351.06,-51.34 367.95,-41.48"/>
<polygon fill="gray" stroke="gray" points="370.16,-44.25 377.03,-36.19 366.63,-38.21 370.16,-44.25"/>
</g>
<!-- ext_anyhow -->
<g id="node7" class="node">
<title>ext_anyhow</title>
<path fill="lightgray" stroke="black" d="M505.5,-36C505.5,-36 467.5,-36 467.5,-36 461.5,-36 455.5,-30 455.5,-24 455.5,-24 455.5,-12 455.5,-12 455.5,-6 461.5,0 467.5,0 467.5,0 505.5,0 505.5,0 511.5,0 517.5,-6 517.5,-12 517.5,-12 517.5,-24 517.5,-24 517.5,-30 511.5,-36 505.5,-36"/>
<text text-anchor="middle" x="486.5" y="-20.8" font-family="Times,serif" font-size="9.00">anyhow</text>
<text text-anchor="middle" x="486.5" y="-10.8" font-family="Times,serif" font-size="9.00">(external)</text>
</g>
<!-- toka&#45;rate&#45;limiter&#45;&gt;ext_anyhow -->
<g id="edge6" class="edge">
<title>toka&#45;rate&#45;limiter&#45;&gt;ext_anyhow</title>
<path fill="none" stroke="gray" stroke-dasharray="5,2" d="M341.69,-71.95C370.4,-62.8 406.22,-50.94 445.61,-36.21"/>
<polygon fill="gray" stroke="gray" points="447.03,-39.41 455.16,-32.61 444.56,-32.86 447.03,-39.41"/>
</g>
</g>
</svg>
