<?xml version="1.0" encoding="UTF-8" standalone="no"?>
<!DOCTYPE svg PUBLIC "-//W3C//DTD SVG 1.1//EN"
 "http://www.w3.org/Graphics/SVG/1.1/DTD/svg11.dtd">
<!-- Generated by graphviz version 2.42.4 (0)
 -->
<!-- Pages: 1 -->
<svg width="1292pt" height="483pt"
 viewBox="0.00 0.00 310.00 116.00" xmlns="http://www.w3.org/2000/svg" xmlns:xlink="http://www.w3.org/1999/xlink">
<g id="graph0" class="graph" transform="scale(4.17 4.17) rotate(0) translate(4 112)">
<polygon fill="white" stroke="transparent" points="-4,4 -4,-112 306,-112 306,4 -4,4"/>
<!-- toka&#45;tools -->
<g id="node1" class="node">
<title>toka&#45;tools</title>
<path fill="#ffeaa7" stroke="black" stroke-width="2" d="M177.5,-108C177.5,-108 124.5,-108 124.5,-108 118.5,-108 112.5,-102 112.5,-96 112.5,-96 112.5,-84 112.5,-84 112.5,-78 118.5,-72 124.5,-72 124.5,-72 177.5,-72 177.5,-72 183.5,-72 189.5,-78 189.5,-84 189.5,-84 189.5,-96 189.5,-96 189.5,-102 183.5,-108 177.5,-108"/>
<text text-anchor="middle" x="151" y="-93.4" font-family="Times,serif" font-size="12.00">toka&#45;tools</text>
<text text-anchor="middle" x="151" y="-80.4" font-family="Times,serif" font-size="12.00">v0.1.0</text>
</g>
<!-- ext_serde -->
<g id="node2" class="node">
<title>ext_serde</title>
<path fill="lightgray" stroke="black" d="M50,-36C50,-36 12,-36 12,-36 6,-36 0,-30 0,-24 0,-24 0,-12 0,-12 0,-6 6,0 12,0 12,0 50,0 50,0 56,0 62,-6 62,-12 62,-12 62,-24 62,-24 62,-30 56,-36 50,-36"/>
<text text-anchor="middle" x="31" y="-20.8" font-family="Times,serif" font-size="9.00">serde</text>
<text text-anchor="middle" x="31" y="-10.8" font-family="Times,serif" font-size="9.00">(external)</text>
</g>
<!-- toka&#45;tools&#45;&gt;ext_serde -->
<g id="edge1" class="edge">
<title>toka&#45;tools&#45;&gt;ext_serde</title>
<path fill="none" stroke="gray" stroke-dasharray="5,2" d="M121.64,-71.88C105.95,-62.72 86.44,-51.34 69.55,-41.48"/>
<polygon fill="gray" stroke="gray" points="70.87,-38.21 60.47,-36.19 67.34,-44.25 70.87,-38.21"/>
</g>
<!-- ext_anyhow -->
<g id="node3" class="node">
<title>ext_anyhow</title>
<path fill="lightgray" stroke="black" d="M130,-36C130,-36 92,-36 92,-36 86,-36 80,-30 80,-24 80,-24 80,-12 80,-12 80,-6 86,0 92,0 92,0 130,0 130,0 136,0 142,-6 142,-12 142,-12 142,-24 142,-24 142,-30 136,-36 130,-36"/>
<text text-anchor="middle" x="111" y="-20.8" font-family="Times,serif" font-size="9.00">anyhow</text>
<text text-anchor="middle" x="111" y="-10.8" font-family="Times,serif" font-size="9.00">(external)</text>
</g>
<!-- toka&#45;tools&#45;&gt;ext_anyhow -->
<g id="edge2" class="edge">
<title>toka&#45;tools&#45;&gt;ext_anyhow</title>
<path fill="none" stroke="gray" stroke-dasharray="5,2" d="M141.11,-71.7C136.51,-63.64 130.94,-53.89 125.85,-44.98"/>
<polygon fill="gray" stroke="gray" points="128.77,-43.05 120.77,-36.1 122.7,-46.52 128.77,-43.05"/>
</g>
<!-- ext_tokio -->
<g id="node4" class="node">
<title>ext_tokio</title>
<path fill="lightgray" stroke="black" d="M210,-36C210,-36 172,-36 172,-36 166,-36 160,-30 160,-24 160,-24 160,-12 160,-12 160,-6 166,0 172,0 172,0 210,0 210,0 216,0 222,-6 222,-12 222,-12 222,-24 222,-24 222,-30 216,-36 210,-36"/>
<text text-anchor="middle" x="191" y="-20.8" font-family="Times,serif" font-size="9.00">tokio</text>
<text text-anchor="middle" x="191" y="-10.8" font-family="Times,serif" font-size="9.00">(external)</text>
</g>
<!-- toka&#45;tools&#45;&gt;ext_tokio -->
<g id="edge3" class="edge">
<title>toka&#45;tools&#45;&gt;ext_tokio</title>
<path fill="none" stroke="gray" stroke-dasharray="5,2" d="M160.89,-71.7C165.49,-63.64 171.06,-53.89 176.15,-44.98"/>
<polygon fill="gray" stroke="gray" points="179.3,-46.52 181.23,-36.1 173.23,-43.05 179.3,-46.52"/>
</g>
<!-- ext_tracing -->
<g id="node5" class="node">
<title>ext_tracing</title>
<path fill="lightgray" stroke="black" d="M290,-36C290,-36 252,-36 252,-36 246,-36 240,-30 240,-24 240,-24 240,-12 240,-12 240,-6 246,0 252,0 252,0 290,0 290,0 296,0 302,-6 302,-12 302,-12 302,-24 302,-24 302,-30 296,-36 290,-36"/>
<text text-anchor="middle" x="271" y="-20.8" font-family="Times,serif" font-size="9.00">tracing</text>
<text text-anchor="middle" x="271" y="-10.8" font-family="Times,serif" font-size="9.00">(external)</text>
</g>
<!-- toka&#45;tools&#45;&gt;ext_tracing -->
<g id="edge4" class="edge">
<title>toka&#45;tools&#45;&gt;ext_tracing</title>
<path fill="none" stroke="gray" stroke-dasharray="5,2" d="M180.36,-71.88C196.05,-62.72 215.56,-51.34 232.45,-41.48"/>
<polygon fill="gray" stroke="gray" points="234.66,-44.25 241.53,-36.19 231.13,-38.21 234.66,-44.25"/>
</g>
</g>
</svg>
