<?xml version="1.0" encoding="UTF-8" standalone="no"?>
<!DOCTYPE svg PUBLIC "-//W3C//DTD SVG 1.1//EN"
 "http://www.w3.org/Graphics/SVG/1.1/DTD/svg11.dtd">
<!-- Generated by graphviz version 2.42.4 (0)
 -->
<!-- Pages: 1 -->
<svg width="604pt" height="483pt"
 viewBox="0.00 0.00 145.00 116.00" xmlns="http://www.w3.org/2000/svg" xmlns:xlink="http://www.w3.org/1999/xlink">
<g id="graph0" class="graph" transform="scale(4.17 4.17) rotate(0) translate(4 112)">
<polygon fill="white" stroke="transparent" points="-4,4 -4,-112 141,-112 141,4 -4,4"/>
<!-- toka&#45;capability&#45;core -->
<g id="node1" class="node">
<title>toka&#45;capability&#45;core</title>
<path fill="#ff6b6b" stroke="black" stroke-width="2" d="M125,-108C125,-108 12,-108 12,-108 6,-108 0,-102 0,-96 0,-96 0,-84 0,-84 0,-78 6,-72 12,-72 12,-72 125,-72 125,-72 131,-72 137,-78 137,-84 137,-84 137,-96 137,-96 137,-102 131,-108 125,-108"/>
<text text-anchor="middle" x="68.5" y="-93.4" font-family="Times,serif" font-size="12.00">toka&#45;capability&#45;core</text>
<text text-anchor="middle" x="68.5" y="-80.4" font-family="Times,serif" font-size="12.00">v0.2.0&#45;alpha</text>
</g>
<!-- ext_serde -->
<g id="node2" class="node">
<title>ext_serde</title>
<path fill="lightgray" stroke="black" d="M87.5,-36C87.5,-36 49.5,-36 49.5,-36 43.5,-36 37.5,-30 37.5,-24 37.5,-24 37.5,-12 37.5,-12 37.5,-6 43.5,0 49.5,0 49.5,0 87.5,0 87.5,0 93.5,0 99.5,-6 99.5,-12 99.5,-12 99.5,-24 99.5,-24 99.5,-30 93.5,-36 87.5,-36"/>
<text text-anchor="middle" x="68.5" y="-20.8" font-family="Times,serif" font-size="9.00">serde</text>
<text text-anchor="middle" x="68.5" y="-10.8" font-family="Times,serif" font-size="9.00">(external)</text>
</g>
<!-- toka&#45;capability&#45;core&#45;&gt;ext_serde -->
<g id="edge1" class="edge">
<title>toka&#45;capability&#45;core&#45;&gt;ext_serde</title>
<path fill="none" stroke="gray" stroke-dasharray="5,2" d="M68.5,-71.7C68.5,-63.98 68.5,-54.71 68.5,-46.11"/>
<polygon fill="gray" stroke="gray" points="72,-46.1 68.5,-36.1 65,-46.1 72,-46.1"/>
</g>
</g>
</svg>
