<?xml version="1.0" encoding="UTF-8" standalone="no"?>
<!DOCTYPE svg PUBLIC "-//W3C//DTD SVG 1.1//EN"
 "http://www.w3.org/Graphics/SVG/1.1/DTD/svg11.dtd">
<!-- Generated by graphviz version 2.42.4 (0)
 -->
<!-- Pages: 1 -->
<svg width="3600pt" height="433pt"
 viewBox="0.00 0.00 864.00 103.86" xmlns="http://www.w3.org/2000/svg" xmlns:xlink="http://www.w3.org/1999/xlink">
<g id="graph0" class="graph" transform="scale(3.73 3.73) rotate(0) translate(4 112)">
<polygon fill="white" stroke="transparent" points="-4,4 -4,-112 961,-112 961,4 -4,4"/>
<!-- toka&#45;runtime -->
<g id="node1" class="node">
<title>toka&#45;runtime</title>
<path fill="#96ceb4" stroke="black" stroke-width="2" d="M614,-108C614,-108 492,-108 492,-108 486,-108 480,-102 480,-96 480,-96 480,-84 480,-84 480,-78 486,-72 492,-72 492,-72 614,-72 614,-72 620,-72 626,-78 626,-84 626,-84 626,-96 626,-96 626,-102 620,-108 614,-108"/>
<text text-anchor="middle" x="553" y="-93.4" font-family="Times,serif" font-size="12.00">toka&#45;runtime</text>
<text text-anchor="middle" x="553" y="-80.4" font-family="Times,serif" font-size="12.00">v{&#39;workspace&#39;: True}</text>
</g>
<!-- toka&#45;store&#45;sled -->
<g id="node2" class="node">
<title>toka&#45;store&#45;sled</title>
<path fill="#4ecdc4" stroke="black" d="M80,-36C80,-36 12,-36 12,-36 6,-36 0,-30 0,-24 0,-24 0,-12 0,-12 0,-6 6,0 12,0 12,0 80,0 80,0 86,0 92,-6 92,-12 92,-12 92,-24 92,-24 92,-30 86,-36 80,-36"/>
<text text-anchor="middle" x="46" y="-21" font-family="Times,serif" font-size="10.00">toka&#45;store&#45;sled</text>
<text text-anchor="middle" x="46" y="-10" font-family="Times,serif" font-size="10.00">(workspace)</text>
</g>
<!-- toka&#45;runtime&#45;&gt;toka&#45;store&#45;sled -->
<g id="edge1" class="edge">
<title>toka&#45;runtime&#45;&gt;toka&#45;store&#45;sled</title>
<path fill="none" stroke="blue" stroke-width="2" d="M479.92,-84.56C392.1,-78.31 240.32,-64.56 101.99,-35.99"/>
<polygon fill="blue" stroke="blue" stroke-width="2" points="102.56,-32.53 92.05,-33.9 101.12,-39.38 102.56,-32.53"/>
</g>
<!-- toka&#45;store&#45;sqlite -->
<g id="node3" class="node">
<title>toka&#45;store&#45;sqlite</title>
<path fill="#4ecdc4" stroke="black" d="M197.5,-36C197.5,-36 122.5,-36 122.5,-36 116.5,-36 110.5,-30 110.5,-24 110.5,-24 110.5,-12 110.5,-12 110.5,-6 116.5,0 122.5,0 122.5,0 197.5,0 197.5,0 203.5,0 209.5,-6 209.5,-12 209.5,-12 209.5,-24 209.5,-24 209.5,-30 203.5,-36 197.5,-36"/>
<text text-anchor="middle" x="160" y="-21" font-family="Times,serif" font-size="10.00">toka&#45;store&#45;sqlite</text>
<text text-anchor="middle" x="160" y="-10" font-family="Times,serif" font-size="10.00">(workspace)</text>
</g>
<!-- toka&#45;runtime&#45;&gt;toka&#45;store&#45;sqlite -->
<g id="edge2" class="edge">
<title>toka&#45;runtime&#45;&gt;toka&#45;store&#45;sqlite</title>
<path fill="none" stroke="blue" stroke-width="2" d="M479.95,-80.19C414.08,-71.62 314.43,-57.11 219.61,-36.22"/>
<polygon fill="blue" stroke="blue" stroke-width="2" points="220.09,-32.74 209.56,-33.98 218.56,-39.57 220.09,-32.74"/>
</g>
<!-- toka&#45;store&#45;core -->
<g id="node4" class="node">
<title>toka&#45;store&#45;core</title>
<path fill="#4ecdc4" stroke="black" d="M308.5,-36C308.5,-36 239.5,-36 239.5,-36 233.5,-36 227.5,-30 227.5,-24 227.5,-24 227.5,-12 227.5,-12 227.5,-6 233.5,0 239.5,0 239.5,0 308.5,0 308.5,0 314.5,0 320.5,-6 320.5,-12 320.5,-12 320.5,-24 320.5,-24 320.5,-30 314.5,-36 308.5,-36"/>
<text text-anchor="middle" x="274" y="-21" font-family="Times,serif" font-size="10.00">toka&#45;store&#45;core</text>
<text text-anchor="middle" x="274" y="-10" font-family="Times,serif" font-size="10.00">(workspace)</text>
</g>
<!-- toka&#45;runtime&#45;&gt;toka&#45;store&#45;core -->
<g id="edge3" class="edge">
<title>toka&#45;runtime&#45;&gt;toka&#45;store&#45;core</title>
<path fill="none" stroke="blue" stroke-width="2" d="M479.9,-72.82C438.62,-63.4 385.89,-50.9 330.35,-36.02"/>
<polygon fill="blue" stroke="blue" stroke-width="2" points="331.26,-32.63 320.69,-33.41 329.43,-39.39 331.26,-32.63"/>
</g>
<!-- toka&#45;bus&#45;core -->
<g id="node5" class="node">
<title>toka&#45;bus&#45;core</title>
<path fill="#ff6b6b" stroke="black" d="M413,-36C413,-36 351,-36 351,-36 345,-36 339,-30 339,-24 339,-24 339,-12 339,-12 339,-6 345,0 351,0 351,0 413,0 413,0 419,0 425,-6 425,-12 425,-12 425,-24 425,-24 425,-30 419,-36 413,-36"/>
<text text-anchor="middle" x="382" y="-21" font-family="Times,serif" font-size="10.00">toka&#45;bus&#45;core</text>
<text text-anchor="middle" x="382" y="-10" font-family="Times,serif" font-size="10.00">(workspace)</text>
</g>
<!-- toka&#45;runtime&#45;&gt;toka&#45;bus&#45;core -->
<g id="edge4" class="edge">
<title>toka&#45;runtime&#45;&gt;toka&#45;bus&#45;core</title>
<path fill="none" stroke="blue" stroke-width="2" d="M511.17,-71.88C487.58,-62.22 457.94,-50.09 433,-39.88"/>
<polygon fill="blue" stroke="blue" stroke-width="2" points="434.28,-36.62 423.7,-36.07 431.62,-43.1 434.28,-36.62"/>
</g>
<!-- toka&#45;store&#45;memory -->
<g id="node6" class="node">
<title>toka&#45;store&#45;memory</title>
<path fill="#4ecdc4" stroke="black" d="M544.5,-36C544.5,-36 455.5,-36 455.5,-36 449.5,-36 443.5,-30 443.5,-24 443.5,-24 443.5,-12 443.5,-12 443.5,-6 449.5,0 455.5,0 455.5,0 544.5,0 544.5,0 550.5,0 556.5,-6 556.5,-12 556.5,-12 556.5,-24 556.5,-24 556.5,-30 550.5,-36 544.5,-36"/>
<text text-anchor="middle" x="500" y="-21" font-family="Times,serif" font-size="10.00">toka&#45;store&#45;memory</text>
<text text-anchor="middle" x="500" y="-10" font-family="Times,serif" font-size="10.00">(workspace)</text>
</g>
<!-- toka&#45;runtime&#45;&gt;toka&#45;store&#45;memory -->
<g id="edge5" class="edge">
<title>toka&#45;runtime&#45;&gt;toka&#45;store&#45;memory</title>
<path fill="none" stroke="blue" stroke-width="2" d="M539.9,-71.7C533.61,-63.39 525.95,-53.28 519.04,-44.14"/>
<polygon fill="blue" stroke="blue" stroke-width="2" points="521.78,-41.96 512.95,-36.1 516.2,-46.19 521.78,-41.96"/>
</g>
<!-- ext_thiserror -->
<g id="node7" class="node">
<title>ext_thiserror</title>
<path fill="lightgray" stroke="black" d="M625,-36C625,-36 587,-36 587,-36 581,-36 575,-30 575,-24 575,-24 575,-12 575,-12 575,-6 581,0 587,0 587,0 625,0 625,0 631,0 637,-6 637,-12 637,-12 637,-24 637,-24 637,-30 631,-36 625,-36"/>
<text text-anchor="middle" x="606" y="-20.8" font-family="Times,serif" font-size="9.00">thiserror</text>
<text text-anchor="middle" x="606" y="-10.8" font-family="Times,serif" font-size="9.00">(external)</text>
</g>
<!-- toka&#45;runtime&#45;&gt;ext_thiserror -->
<g id="edge6" class="edge">
<title>toka&#45;runtime&#45;&gt;ext_thiserror</title>
<path fill="none" stroke="gray" stroke-dasharray="5,2" d="M566.1,-71.7C572.39,-63.39 580.05,-53.28 586.96,-44.14"/>
<polygon fill="gray" stroke="gray" points="589.8,-46.19 593.05,-36.1 584.22,-41.96 589.8,-46.19"/>
</g>
<!-- ext_tokio -->
<g id="node8" class="node">
<title>ext_tokio</title>
<path fill="lightgray" stroke="black" d="M705,-36C705,-36 667,-36 667,-36 661,-36 655,-30 655,-24 655,-24 655,-12 655,-12 655,-6 661,0 667,0 667,0 705,0 705,0 711,0 717,-6 717,-12 717,-12 717,-24 717,-24 717,-30 711,-36 705,-36"/>
<text text-anchor="middle" x="686" y="-20.8" font-family="Times,serif" font-size="9.00">tokio</text>
<text text-anchor="middle" x="686" y="-10.8" font-family="Times,serif" font-size="9.00">(external)</text>
</g>
<!-- toka&#45;runtime&#45;&gt;ext_tokio -->
<g id="edge7" class="edge">
<title>toka&#45;runtime&#45;&gt;ext_tokio</title>
<path fill="none" stroke="gray" stroke-dasharray="5,2" d="M585.54,-71.88C603.73,-62.3 626.55,-50.29 645.85,-40.13"/>
<polygon fill="gray" stroke="gray" points="647.5,-43.22 654.72,-35.47 644.24,-37.03 647.5,-43.22"/>
</g>
<!-- ext_serde -->
<g id="node9" class="node">
<title>ext_serde</title>
<path fill="lightgray" stroke="black" d="M785,-36C785,-36 747,-36 747,-36 741,-36 735,-30 735,-24 735,-24 735,-12 735,-12 735,-6 741,0 747,0 747,0 785,0 785,0 791,0 797,-6 797,-12 797,-12 797,-24 797,-24 797,-30 791,-36 785,-36"/>
<text text-anchor="middle" x="766" y="-20.8" font-family="Times,serif" font-size="9.00">serde</text>
<text text-anchor="middle" x="766" y="-10.8" font-family="Times,serif" font-size="9.00">(external)</text>
</g>
<!-- toka&#45;runtime&#45;&gt;ext_serde -->
<g id="edge8" class="edge">
<title>toka&#45;runtime&#45;&gt;ext_serde</title>
<path fill="none" stroke="gray" stroke-dasharray="5,2" d="M614.36,-71.9C645.33,-62.88 683.58,-51.13 725.18,-36.14"/>
<polygon fill="gray" stroke="gray" points="726.48,-39.39 734.68,-32.68 724.09,-32.81 726.48,-39.39"/>
</g>
<!-- ext_tracing -->
<g id="node10" class="node">
<title>ext_tracing</title>
<path fill="lightgray" stroke="black" d="M865,-36C865,-36 827,-36 827,-36 821,-36 815,-30 815,-24 815,-24 815,-12 815,-12 815,-6 821,0 827,0 827,0 865,0 865,0 871,0 877,-6 877,-12 877,-12 877,-24 877,-24 877,-30 871,-36 865,-36"/>
<text text-anchor="middle" x="846" y="-20.8" font-family="Times,serif" font-size="9.00">tracing</text>
<text text-anchor="middle" x="846" y="-10.8" font-family="Times,serif" font-size="9.00">(external)</text>
</g>
<!-- toka&#45;runtime&#45;&gt;ext_tracing -->
<g id="edge9" class="edge">
<title>toka&#45;runtime&#45;&gt;ext_tracing</title>
<path fill="none" stroke="gray" stroke-dasharray="5,2" d="M626.21,-77.57C674.87,-69.07 740.13,-55.95 805.18,-35.95"/>
<polygon fill="gray" stroke="gray" points="806.28,-39.28 814.77,-32.95 804.19,-32.6 806.28,-39.28"/>
</g>
<!-- ext_anyhow -->
<g id="node11" class="node">
<title>ext_anyhow</title>
<path fill="lightgray" stroke="black" d="M945,-36C945,-36 907,-36 907,-36 901,-36 895,-30 895,-24 895,-24 895,-12 895,-12 895,-6 901,0 907,0 907,0 945,0 945,0 951,0 957,-6 957,-12 957,-12 957,-24 957,-24 957,-30 951,-36 945,-36"/>
<text text-anchor="middle" x="926" y="-20.8" font-family="Times,serif" font-size="9.00">anyhow</text>
<text text-anchor="middle" x="926" y="-10.8" font-family="Times,serif" font-size="9.00">(external)</text>
</g>
<!-- toka&#45;runtime&#45;&gt;ext_anyhow -->
<g id="edge10" class="edge">
<title>toka&#45;runtime&#45;&gt;ext_anyhow</title>
<path fill="none" stroke="gray" stroke-dasharray="5,2" d="M626.22,-82.53C692.18,-75.54 791.64,-62.08 885.2,-35.85"/>
<polygon fill="gray" stroke="gray" points="886.17,-39.22 894.82,-33.1 884.24,-32.49 886.17,-39.22"/>
</g>
</g>
</svg>
