<?xml version="1.0" encoding="UTF-8" standalone="no"?>
<!DOCTYPE svg PUBLIC "-//W3C//DTD SVG 1.1//EN"
 "http://www.w3.org/Graphics/SVG/1.1/DTD/svg11.dtd">
<!-- Generated by graphviz version 2.42.4 (0)
 -->
<!-- Pages: 1 -->
<svg width="625pt" height="483pt"
 viewBox="0.00 0.00 150.00 116.00" xmlns="http://www.w3.org/2000/svg" xmlns:xlink="http://www.w3.org/1999/xlink">
<g id="graph0" class="graph" transform="scale(4.17 4.17) rotate(0) translate(4 112)">
<polygon fill="white" stroke="transparent" points="-4,4 -4,-112 146,-112 146,4 -4,4"/>
<!-- toka&#45;revocation -->
<g id="node1" class="node">
<title>toka&#45;revocation</title>
<path fill="#d5dbdb" stroke="black" stroke-width="2" d="M115,-108C115,-108 27,-108 27,-108 21,-108 15,-102 15,-96 15,-96 15,-84 15,-84 15,-78 21,-72 27,-72 27,-72 115,-72 115,-72 121,-72 127,-78 127,-84 127,-84 127,-96 127,-96 127,-102 121,-108 115,-108"/>
<text text-anchor="middle" x="71" y="-93.4" font-family="Times,serif" font-size="12.00">toka&#45;revocation</text>
<text text-anchor="middle" x="71" y="-80.4" font-family="Times,serif" font-size="12.00">v0.2.0&#45;alpha</text>
</g>
<!-- ext_serde -->
<g id="node2" class="node">
<title>ext_serde</title>
<path fill="lightgray" stroke="black" d="M50,-36C50,-36 12,-36 12,-36 6,-36 0,-30 0,-24 0,-24 0,-12 0,-12 0,-6 6,0 12,0 12,0 50,0 50,0 56,0 62,-6 62,-12 62,-12 62,-24 62,-24 62,-30 56,-36 50,-36"/>
<text text-anchor="middle" x="31" y="-20.8" font-family="Times,serif" font-size="9.00">serde</text>
<text text-anchor="middle" x="31" y="-10.8" font-family="Times,serif" font-size="9.00">(external)</text>
</g>
<!-- toka&#45;revocation&#45;&gt;ext_serde -->
<g id="edge1" class="edge">
<title>toka&#45;revocation&#45;&gt;ext_serde</title>
<path fill="none" stroke="gray" stroke-dasharray="5,2" d="M61.11,-71.7C56.51,-63.64 50.94,-53.89 45.85,-44.98"/>
<polygon fill="gray" stroke="gray" points="48.77,-43.05 40.77,-36.1 42.7,-46.52 48.77,-43.05"/>
</g>
<!-- ext_anyhow -->
<g id="node3" class="node">
<title>ext_anyhow</title>
<path fill="lightgray" stroke="black" d="M130,-36C130,-36 92,-36 92,-36 86,-36 80,-30 80,-24 80,-24 80,-12 80,-12 80,-6 86,0 92,0 92,0 130,0 130,0 136,0 142,-6 142,-12 142,-12 142,-24 142,-24 142,-30 136,-36 130,-36"/>
<text text-anchor="middle" x="111" y="-20.8" font-family="Times,serif" font-size="9.00">anyhow</text>
<text text-anchor="middle" x="111" y="-10.8" font-family="Times,serif" font-size="9.00">(external)</text>
</g>
<!-- toka&#45;revocation&#45;&gt;ext_anyhow -->
<g id="edge2" class="edge">
<title>toka&#45;revocation&#45;&gt;ext_anyhow</title>
<path fill="none" stroke="gray" stroke-dasharray="5,2" d="M80.89,-71.7C85.49,-63.64 91.06,-53.89 96.15,-44.98"/>
<polygon fill="gray" stroke="gray" points="99.3,-46.52 101.23,-36.1 93.23,-43.05 99.3,-46.52"/>
</g>
</g>
</svg>
