<?xml version="1.0" encoding="UTF-8" standalone="no"?>
<!DOCTYPE svg PUBLIC "-//W3C//DTD SVG 1.1//EN"
 "http://www.w3.org/Graphics/SVG/1.1/DTD/svg11.dtd">
<!-- Generated by graphviz version 2.42.4 (0)
 -->
<!-- Pages: 1 -->
<svg width="1423pt" height="483pt"
 viewBox="0.00 0.00 341.50 116.00" xmlns="http://www.w3.org/2000/svg" xmlns:xlink="http://www.w3.org/1999/xlink">
<g id="graph0" class="graph" transform="scale(4.17 4.17) rotate(0) translate(4 112)">
<polygon fill="white" stroke="transparent" points="-4,4 -4,-112 337.5,-112 337.5,4 -4,4"/>
<!-- toka&#45;store&#45;sqlite -->
<g id="node1" class="node">
<title>toka&#45;store&#45;sqlite</title>
<path fill="#4ecdc4" stroke="black" stroke-width="2" d="M243.5,-108C243.5,-108 121.5,-108 121.5,-108 115.5,-108 109.5,-102 109.5,-96 109.5,-96 109.5,-84 109.5,-84 109.5,-78 115.5,-72 121.5,-72 121.5,-72 243.5,-72 243.5,-72 249.5,-72 255.5,-78 255.5,-84 255.5,-84 255.5,-96 255.5,-96 255.5,-102 249.5,-108 243.5,-108"/>
<text text-anchor="middle" x="182.5" y="-93.4" font-family="Times,serif" font-size="12.00">toka&#45;store&#45;sqlite</text>
<text text-anchor="middle" x="182.5" y="-80.4" font-family="Times,serif" font-size="12.00">v{&#39;workspace&#39;: True}</text>
</g>
<!-- toka&#45;store&#45;core -->
<g id="node2" class="node">
<title>toka&#45;store&#45;core</title>
<path fill="#4ecdc4" stroke="black" d="M81,-36C81,-36 12,-36 12,-36 6,-36 0,-30 0,-24 0,-24 0,-12 0,-12 0,-6 6,0 12,0 12,0 81,0 81,0 87,0 93,-6 93,-12 93,-12 93,-24 93,-24 93,-30 87,-36 81,-36"/>
<text text-anchor="middle" x="46.5" y="-21" font-family="Times,serif" font-size="10.00">toka&#45;store&#45;core</text>
<text text-anchor="middle" x="46.5" y="-10" font-family="Times,serif" font-size="10.00">(workspace)</text>
</g>
<!-- toka&#45;store&#45;sqlite&#45;&gt;toka&#45;store&#45;core -->
<g id="edge1" class="edge">
<title>toka&#45;store&#45;sqlite&#45;&gt;toka&#45;store&#45;core</title>
<path fill="none" stroke="blue" stroke-width="2" d="M149.23,-71.88C131.04,-62.51 108.31,-50.81 88.86,-40.8"/>
<polygon fill="blue" stroke="blue" stroke-width="2" points="90.39,-37.65 79.9,-36.19 87.19,-43.88 90.39,-37.65"/>
</g>
<!-- ext_tokio -->
<g id="node3" class="node">
<title>ext_tokio</title>
<path fill="lightgray" stroke="black" d="M161.5,-36C161.5,-36 123.5,-36 123.5,-36 117.5,-36 111.5,-30 111.5,-24 111.5,-24 111.5,-12 111.5,-12 111.5,-6 117.5,0 123.5,0 123.5,0 161.5,0 161.5,0 167.5,0 173.5,-6 173.5,-12 173.5,-12 173.5,-24 173.5,-24 173.5,-30 167.5,-36 161.5,-36"/>
<text text-anchor="middle" x="142.5" y="-20.8" font-family="Times,serif" font-size="9.00">tokio</text>
<text text-anchor="middle" x="142.5" y="-10.8" font-family="Times,serif" font-size="9.00">(external)</text>
</g>
<!-- toka&#45;store&#45;sqlite&#45;&gt;ext_tokio -->
<g id="edge2" class="edge">
<title>toka&#45;store&#45;sqlite&#45;&gt;ext_tokio</title>
<path fill="none" stroke="gray" stroke-dasharray="5,2" d="M172.61,-71.7C168.01,-63.64 162.44,-53.89 157.35,-44.98"/>
<polygon fill="gray" stroke="gray" points="160.27,-43.05 152.27,-36.1 154.2,-46.52 160.27,-43.05"/>
</g>
<!-- ext_sqlx -->
<g id="node4" class="node">
<title>ext_sqlx</title>
<path fill="lightgray" stroke="black" d="M241.5,-36C241.5,-36 203.5,-36 203.5,-36 197.5,-36 191.5,-30 191.5,-24 191.5,-24 191.5,-12 191.5,-12 191.5,-6 197.5,0 203.5,0 203.5,0 241.5,0 241.5,0 247.5,0 253.5,-6 253.5,-12 253.5,-12 253.5,-24 253.5,-24 253.5,-30 247.5,-36 241.5,-36"/>
<text text-anchor="middle" x="222.5" y="-20.8" font-family="Times,serif" font-size="9.00">sqlx</text>
<text text-anchor="middle" x="222.5" y="-10.8" font-family="Times,serif" font-size="9.00">(external)</text>
</g>
<!-- toka&#45;store&#45;sqlite&#45;&gt;ext_sqlx -->
<g id="edge3" class="edge">
<title>toka&#45;store&#45;sqlite&#45;&gt;ext_sqlx</title>
<path fill="none" stroke="gray" stroke-dasharray="5,2" d="M192.39,-71.7C196.99,-63.64 202.56,-53.89 207.65,-44.98"/>
<polygon fill="gray" stroke="gray" points="210.8,-46.52 212.73,-36.1 204.73,-43.05 210.8,-46.52"/>
</g>
<!-- ext_anyhow -->
<g id="node5" class="node">
<title>ext_anyhow</title>
<path fill="lightgray" stroke="black" d="M321.5,-36C321.5,-36 283.5,-36 283.5,-36 277.5,-36 271.5,-30 271.5,-24 271.5,-24 271.5,-12 271.5,-12 271.5,-6 277.5,0 283.5,0 283.5,0 321.5,0 321.5,0 327.5,0 333.5,-6 333.5,-12 333.5,-12 333.5,-24 333.5,-24 333.5,-30 327.5,-36 321.5,-36"/>
<text text-anchor="middle" x="302.5" y="-20.8" font-family="Times,serif" font-size="9.00">anyhow</text>
<text text-anchor="middle" x="302.5" y="-10.8" font-family="Times,serif" font-size="9.00">(external)</text>
</g>
<!-- toka&#45;store&#45;sqlite&#45;&gt;ext_anyhow -->
<g id="edge4" class="edge">
<title>toka&#45;store&#45;sqlite&#45;&gt;ext_anyhow</title>
<path fill="none" stroke="gray" stroke-dasharray="5,2" d="M211.86,-71.88C227.55,-62.72 247.06,-51.34 263.95,-41.48"/>
<polygon fill="gray" stroke="gray" points="266.16,-44.25 273.03,-36.19 262.63,-38.21 266.16,-44.25"/>
</g>
</g>
</svg>
