<?xml version="1.0" encoding="UTF-8" standalone="no"?>
<!DOCTYPE svg PUBLIC "-//W3C//DTD SVG 1.1//EN"
 "http://www.w3.org/Graphics/SVG/1.1/DTD/svg11.dtd">
<!-- Generated by graphviz version 2.42.4 (0)
 -->
<!-- Pages: 1 -->
<svg width="1190pt" height="483pt"
 viewBox="0.00 0.00 285.50 116.00" xmlns="http://www.w3.org/2000/svg" xmlns:xlink="http://www.w3.org/1999/xlink">
<g id="graph0" class="graph" transform="scale(4.17 4.17) rotate(0) translate(4 112)">
<polygon fill="white" stroke="transparent" points="-4,4 -4,-112 281.5,-112 281.5,4 -4,4"/>
<!-- toka&#45;capability&#45;jwt&#45;hs256 -->
<g id="node1" class="node">
<title>toka&#45;capability&#45;jwt&#45;hs256</title>
<path fill="#d5dbdb" stroke="black" stroke-width="2" d="M239,-108C239,-108 94,-108 94,-108 88,-108 82,-102 82,-96 82,-96 82,-84 82,-84 82,-78 88,-72 94,-72 94,-72 239,-72 239,-72 245,-72 251,-78 251,-84 251,-84 251,-96 251,-96 251,-102 245,-108 239,-108"/>
<text text-anchor="middle" x="166.5" y="-93.4" font-family="Times,serif" font-size="12.00">toka&#45;capability&#45;jwt&#45;hs256</text>
<text text-anchor="middle" x="166.5" y="-80.4" font-family="Times,serif" font-size="12.00">v0.2.1</text>
</g>
<!-- toka&#45;capability&#45;core -->
<g id="node2" class="node">
<title>toka&#45;capability&#45;core</title>
<path fill="#ff6b6b" stroke="black" d="M105,-36C105,-36 12,-36 12,-36 6,-36 0,-30 0,-24 0,-24 0,-12 0,-12 0,-6 6,0 12,0 12,0 105,0 105,0 111,0 117,-6 117,-12 117,-12 117,-24 117,-24 117,-30 111,-36 105,-36"/>
<text text-anchor="middle" x="58.5" y="-21" font-family="Times,serif" font-size="10.00">toka&#45;capability&#45;core</text>
<text text-anchor="middle" x="58.5" y="-10" font-family="Times,serif" font-size="10.00">(workspace)</text>
</g>
<!-- toka&#45;capability&#45;jwt&#45;hs256&#45;&gt;toka&#45;capability&#45;core -->
<g id="edge1" class="edge">
<title>toka&#45;capability&#45;jwt&#45;hs256&#45;&gt;toka&#45;capability&#45;core</title>
<path fill="none" stroke="blue" stroke-width="2" d="M140.08,-71.88C126.09,-62.81 108.72,-51.55 93.61,-41.76"/>
<polygon fill="blue" stroke="blue" stroke-width="2" points="95.32,-38.69 85.02,-36.19 91.51,-44.57 95.32,-38.69"/>
</g>
<!-- ext_tokio -->
<g id="node3" class="node">
<title>ext_tokio</title>
<path fill="lightgray" stroke="black" d="M185.5,-36C185.5,-36 147.5,-36 147.5,-36 141.5,-36 135.5,-30 135.5,-24 135.5,-24 135.5,-12 135.5,-12 135.5,-6 141.5,0 147.5,0 147.5,0 185.5,0 185.5,0 191.5,0 197.5,-6 197.5,-12 197.5,-12 197.5,-24 197.5,-24 197.5,-30 191.5,-36 185.5,-36"/>
<text text-anchor="middle" x="166.5" y="-20.8" font-family="Times,serif" font-size="9.00">tokio</text>
<text text-anchor="middle" x="166.5" y="-10.8" font-family="Times,serif" font-size="9.00">(external)</text>
</g>
<!-- toka&#45;capability&#45;jwt&#45;hs256&#45;&gt;ext_tokio -->
<g id="edge2" class="edge">
<title>toka&#45;capability&#45;jwt&#45;hs256&#45;&gt;ext_tokio</title>
<path fill="none" stroke="gray" stroke-dasharray="5,2" d="M166.5,-71.7C166.5,-63.98 166.5,-54.71 166.5,-46.11"/>
<polygon fill="gray" stroke="gray" points="170,-46.1 166.5,-36.1 163,-46.1 170,-46.1"/>
</g>
<!-- ext_serde -->
<g id="node4" class="node">
<title>ext_serde</title>
<path fill="lightgray" stroke="black" d="M265.5,-36C265.5,-36 227.5,-36 227.5,-36 221.5,-36 215.5,-30 215.5,-24 215.5,-24 215.5,-12 215.5,-12 215.5,-6 221.5,0 227.5,0 227.5,0 265.5,0 265.5,0 271.5,0 277.5,-6 277.5,-12 277.5,-12 277.5,-24 277.5,-24 277.5,-30 271.5,-36 265.5,-36"/>
<text text-anchor="middle" x="246.5" y="-20.8" font-family="Times,serif" font-size="9.00">serde</text>
<text text-anchor="middle" x="246.5" y="-10.8" font-family="Times,serif" font-size="9.00">(external)</text>
</g>
<!-- toka&#45;capability&#45;jwt&#45;hs256&#45;&gt;ext_serde -->
<g id="edge3" class="edge">
<title>toka&#45;capability&#45;jwt&#45;hs256&#45;&gt;ext_serde</title>
<path fill="none" stroke="gray" stroke-dasharray="5,2" d="M186.28,-71.7C196.25,-62.97 208.51,-52.24 219.36,-42.75"/>
<polygon fill="gray" stroke="gray" points="221.73,-45.32 226.95,-36.1 217.12,-40.06 221.73,-45.32"/>
</g>
</g>
</svg>
