<?xml version="1.0" encoding="UTF-8" standalone="no"?>
<!DOCTYPE svg PUBLIC "-//W3C//DTD SVG 1.1//EN"
 "http://www.w3.org/Graphics/SVG/1.1/DTD/svg11.dtd">
<!-- Generated by graphviz version 2.42.4 (0)
 -->
<!-- Pages: 1 -->
<svg width="5512pt" height="1750pt"
 viewBox="0.00 0.00 1322.76 420.00" xmlns="http://www.w3.org/2000/svg" xmlns:xlink="http://www.w3.org/1999/xlink">
<g id="graph0" class="graph" transform="scale(4.17 4.17) rotate(0) translate(4 416)">
<polygon fill="white" stroke="transparent" points="-4,4 -4,-416 1318.76,-416 1318.76,4 -4,4"/>
<g id="clust1" class="cluster">
<title>cluster_Applications</title>
<polygon fill="lightgray" stroke="black" points="180.76,-246 180.76,-321 465.76,-321 465.76,-246 180.76,-246"/>
<text text-anchor="middle" x="323.26" y="-305.8" font-family="Times,serif" font-size="14.00">Applications</text>
</g>
<g id="clust2" class="cluster">
<title>cluster_Agent_Layer</title>
<polygon fill="lightgray" stroke="black" points="505.76,-246 505.76,-404 647.76,-404 647.76,-246 505.76,-246"/>
<text text-anchor="middle" x="576.76" y="-388.8" font-family="Times,serif" font-size="14.00">Agent Layer</text>
</g>
<g id="clust3" class="cluster">
<title>cluster_Runtime_Layer</title>
<polygon fill="lightgray" stroke="black" points="247.76,-163 247.76,-238 511.76,-238 511.76,-163 247.76,-163"/>
<text text-anchor="middle" x="379.76" y="-222.8" font-family="Times,serif" font-size="14.00">Runtime Layer</text>
</g>
<g id="clust4" class="cluster">
<title>cluster_Core_Layer</title>
<polygon fill="lightgray" stroke="black" points="596.76,-80 596.76,-155 738.76,-155 738.76,-80 596.76,-80"/>
<text text-anchor="middle" x="667.76" y="-139.8" font-family="Times,serif" font-size="14.00">Core Layer</text>
</g>
<g id="clust5" class="cluster">
<title>cluster_Storage_Layer</title>
<polygon fill="lightgray" stroke="black" points="17.76,-8 17.76,-155 588.76,-155 588.76,-8 17.76,-8"/>
<text text-anchor="middle" x="303.26" y="-139.8" font-family="Times,serif" font-size="14.00">Storage Layer</text>
</g>
<g id="clust6" class="cluster">
<title>cluster_Consensus_Layer</title>
<polygon fill="lightgray" stroke="black" points="685.76,-246 685.76,-404 823.76,-404 823.76,-246 685.76,-246"/>
<text text-anchor="middle" x="754.76" y="-388.8" font-family="Times,serif" font-size="14.00">Consensus Layer</text>
</g>
<g id="clust7" class="cluster">
<title>cluster_Security_Layer</title>
<polygon fill="lightgray" stroke="black" points="906.76,-163 906.76,-321 1306.76,-321 1306.76,-163 906.76,-163"/>
<text text-anchor="middle" x="1106.76" y="-305.8" font-family="Times,serif" font-size="14.00">Security Layer</text>
</g>
<g id="clust8" class="cluster">
<title>cluster_Utilities</title>
<polygon fill="lightgray" stroke="black" points="1085.76,-329 1085.76,-404 1292.76,-404 1292.76,-329 1085.76,-329"/>
<text text-anchor="middle" x="1189.26" y="-388.8" font-family="Times,serif" font-size="14.00">Utilities</text>
</g>
<!-- toka&#45;cli -->
<g id="node1" class="node">
<title>toka&#45;cli</title>
<path fill="#ffeaa7" stroke="black" d="M445.26,-290C445.26,-290 344.26,-290 344.26,-290 338.26,-290 332.26,-284 332.26,-278 332.26,-278 332.26,-266 332.26,-266 332.26,-260 338.26,-254 344.26,-254 344.26,-254 445.26,-254 445.26,-254 451.26,-254 457.26,-260 457.26,-266 457.26,-266 457.26,-278 457.26,-278 457.26,-284 451.26,-290 445.26,-290"/>
<text text-anchor="middle" x="394.76" y="-275" font-family="Times,serif" font-size="10.00">toka&#45;cli</text>
<text text-anchor="middle" x="394.76" y="-264" font-family="Times,serif" font-size="10.00">v{&#39;workspace&#39;: True}</text>
</g>
<!-- toka&#45;runtime -->
<g id="node5" class="node">
<title>toka&#45;runtime</title>
<path fill="#96ceb4" stroke="black" d="M491.26,-207C491.26,-207 390.26,-207 390.26,-207 384.26,-207 378.26,-201 378.26,-195 378.26,-195 378.26,-183 378.26,-183 378.26,-177 384.26,-171 390.26,-171 390.26,-171 491.26,-171 491.26,-171 497.26,-171 503.26,-177 503.26,-183 503.26,-183 503.26,-195 503.26,-195 503.26,-201 497.26,-207 491.26,-207"/>
<text text-anchor="middle" x="440.76" y="-192" font-family="Times,serif" font-size="10.00">toka&#45;runtime</text>
<text text-anchor="middle" x="440.76" y="-181" font-family="Times,serif" font-size="10.00">v{&#39;workspace&#39;: True}</text>
</g>
<!-- toka&#45;cli&#45;&gt;toka&#45;runtime -->
<g id="edge16" class="edge">
<title>toka&#45;cli&#45;&gt;toka&#45;runtime</title>
<path fill="none" stroke="blue" d="M404.52,-253.82C411.47,-241.58 420.87,-225.02 428.36,-211.84"/>
<polygon fill="blue" stroke="blue" points="430.07,-212.37 431.02,-207.15 427.03,-210.64 430.07,-212.37"/>
</g>
<!-- toka&#45;config&#45;cli -->
<g id="node2" class="node">
<title>toka&#45;config&#45;cli</title>
<path fill="#ffeaa7" stroke="black" d="M302.26,-290C302.26,-290 201.26,-290 201.26,-290 195.26,-290 189.26,-284 189.26,-278 189.26,-278 189.26,-266 189.26,-266 189.26,-260 195.26,-254 201.26,-254 201.26,-254 302.26,-254 302.26,-254 308.26,-254 314.26,-260 314.26,-266 314.26,-266 314.26,-278 314.26,-278 314.26,-284 308.26,-290 302.26,-290"/>
<text text-anchor="middle" x="251.76" y="-275" font-family="Times,serif" font-size="10.00">toka&#45;config&#45;cli</text>
<text text-anchor="middle" x="251.76" y="-264" font-family="Times,serif" font-size="10.00">v{&#39;workspace&#39;: True}</text>
</g>
<!-- toka&#45;agent&#45;runtime -->
<g id="node3" class="node">
<title>toka&#45;agent&#45;runtime</title>
<path fill="#96ceb4" stroke="black" d="M627.26,-290C627.26,-290 526.26,-290 526.26,-290 520.26,-290 514.26,-284 514.26,-278 514.26,-278 514.26,-266 514.26,-266 514.26,-260 520.26,-254 526.26,-254 526.26,-254 627.26,-254 627.26,-254 633.26,-254 639.26,-260 639.26,-266 639.26,-266 639.26,-278 639.26,-278 639.26,-284 633.26,-290 627.26,-290"/>
<text text-anchor="middle" x="576.76" y="-275" font-family="Times,serif" font-size="10.00">toka&#45;agent&#45;runtime</text>
<text text-anchor="middle" x="576.76" y="-264" font-family="Times,serif" font-size="10.00">v{&#39;workspace&#39;: True}</text>
</g>
<!-- toka&#45;agent&#45;runtime&#45;&gt;toka&#45;runtime -->
<g id="edge15" class="edge">
<title>toka&#45;agent&#45;runtime&#45;&gt;toka&#45;runtime</title>
<path fill="none" stroke="blue" d="M547.92,-253.82C526.28,-240.94 496.62,-223.27 473.99,-209.79"/>
<polygon fill="blue" stroke="blue" points="474.75,-208.21 469.56,-207.15 472.96,-211.22 474.75,-208.21"/>
</g>
<!-- toka&#45;llm&#45;gateway -->
<g id="node6" class="node">
<title>toka&#45;llm&#45;gateway</title>
<path fill="#dda0dd" stroke="black" d="M347.76,-207C347.76,-207 267.76,-207 267.76,-207 261.76,-207 255.76,-201 255.76,-195 255.76,-195 255.76,-183 255.76,-183 255.76,-177 261.76,-171 267.76,-171 267.76,-171 347.76,-171 347.76,-171 353.76,-171 359.76,-177 359.76,-183 359.76,-183 359.76,-195 359.76,-195 359.76,-201 353.76,-207 347.76,-207"/>
<text text-anchor="middle" x="307.76" y="-192" font-family="Times,serif" font-size="10.00">toka&#45;llm&#45;gateway</text>
<text text-anchor="middle" x="307.76" y="-181" font-family="Times,serif" font-size="10.00">v0.3.0</text>
</g>
<!-- toka&#45;agent&#45;runtime&#45;&gt;toka&#45;llm&#45;gateway -->
<g id="edge13" class="edge">
<title>toka&#45;agent&#45;runtime&#45;&gt;toka&#45;llm&#45;gateway</title>
<path fill="none" stroke="blue" d="M513.98,-254.68C499.54,-251.39 484.18,-248.25 469.76,-246 425.71,-239.13 411.34,-254.09 369.76,-238 354.14,-231.95 339.2,-220.62 327.91,-210.49"/>
<polygon fill="blue" stroke="blue" points="329.09,-209.2 324.22,-207.11 326.73,-211.78 329.09,-209.2"/>
</g>
<!-- toka&#45;bus&#45;core -->
<g id="node7" class="node">
<title>toka&#45;bus&#45;core</title>
<path fill="#ff6b6b" stroke="black" d="M718.26,-124C718.26,-124 617.26,-124 617.26,-124 611.26,-124 605.26,-118 605.26,-112 605.26,-112 605.26,-100 605.26,-100 605.26,-94 611.26,-88 617.26,-88 617.26,-88 718.26,-88 718.26,-88 724.26,-88 730.26,-94 730.26,-100 730.26,-100 730.26,-112 730.26,-112 730.26,-118 724.26,-124 718.26,-124"/>
<text text-anchor="middle" x="667.76" y="-109" font-family="Times,serif" font-size="10.00">toka&#45;bus&#45;core</text>
<text text-anchor="middle" x="667.76" y="-98" font-family="Times,serif" font-size="10.00">v{&#39;workspace&#39;: True}</text>
</g>
<!-- toka&#45;agent&#45;runtime&#45;&gt;toka&#45;bus&#45;core -->
<g id="edge14" class="edge">
<title>toka&#45;agent&#45;runtime&#45;&gt;toka&#45;bus&#45;core</title>
<path fill="none" stroke="blue" d="M586.33,-253.76C603.03,-223.66 637.47,-161.6 655.75,-128.65"/>
<polygon fill="blue" stroke="blue" points="657.43,-129.23 658.32,-124.01 654.37,-127.53 657.43,-129.23"/>
</g>
<!-- toka&#45;orchestration -->
<g id="node4" class="node">
<title>toka&#45;orchestration</title>
<path fill="#f7dc6f" stroke="black" d="M615.76,-373C615.76,-373 529.76,-373 529.76,-373 523.76,-373 517.76,-367 517.76,-361 517.76,-361 517.76,-349 517.76,-349 517.76,-343 523.76,-337 529.76,-337 529.76,-337 615.76,-337 615.76,-337 621.76,-337 627.76,-343 627.76,-349 627.76,-349 627.76,-361 627.76,-361 627.76,-367 621.76,-373 615.76,-373"/>
<text text-anchor="middle" x="572.76" y="-358" font-family="Times,serif" font-size="10.00">toka&#45;orchestration</text>
<text text-anchor="middle" x="572.76" y="-347" font-family="Times,serif" font-size="10.00">v0.2.1</text>
</g>
<!-- toka&#45;orchestration&#45;&gt;toka&#45;agent&#45;runtime -->
<g id="edge2" class="edge">
<title>toka&#45;orchestration&#45;&gt;toka&#45;agent&#45;runtime</title>
<path fill="none" stroke="blue" d="M573.61,-336.82C574.21,-324.69 575.02,-308.31 575.67,-295.19"/>
<polygon fill="blue" stroke="blue" points="577.42,-295.23 575.92,-290.15 573.92,-295.06 577.42,-295.23"/>
</g>
<!-- toka&#45;orchestration&#45;&gt;toka&#45;runtime -->
<g id="edge5" class="edge">
<title>toka&#45;orchestration&#45;&gt;toka&#45;runtime</title>
<path fill="none" stroke="blue" d="M527.47,-336.89C519.6,-332.53 511.97,-327.27 505.76,-321 479.75,-294.72 486.27,-279.09 469.76,-246 464.08,-234.62 457.58,-222.03 452.18,-211.67"/>
<polygon fill="blue" stroke="blue" points="453.65,-210.71 449.78,-207.09 450.55,-212.33 453.65,-210.71"/>
</g>
<!-- toka&#45;orchestration&#45;&gt;toka&#45;llm&#45;gateway -->
<g id="edge3" class="edge">
<title>toka&#45;orchestration&#45;&gt;toka&#45;llm&#45;gateway</title>
<path fill="none" stroke="blue" d="M517.52,-353.45C414.04,-351.85 199.36,-345.56 176.76,-321 154.19,-296.47 158.4,-273.82 176.76,-246 193.24,-221.03 223.4,-207.15 250.63,-199.46"/>
<polygon fill="blue" stroke="blue" points="251.31,-201.09 255.67,-198.1 250.39,-197.71 251.31,-201.09"/>
</g>
<!-- toka&#45;orchestration&#45;&gt;toka&#45;bus&#45;core -->
<g id="edge4" class="edge">
<title>toka&#45;orchestration&#45;&gt;toka&#45;bus&#45;core</title>
<path fill="none" stroke="blue" d="M627.8,-338.76C635.93,-334.26 643.38,-328.47 648.76,-321 690.71,-262.83 680.37,-171.32 672.61,-129.37"/>
<polygon fill="blue" stroke="blue" points="674.3,-128.84 671.64,-124.26 670.86,-129.5 674.3,-128.84"/>
</g>
<!-- toka&#45;runtime&#45;&gt;toka&#45;bus&#45;core -->
<g id="edge9" class="edge">
<title>toka&#45;runtime&#45;&gt;toka&#45;bus&#45;core</title>
<path fill="none" stroke="blue" d="M503.29,-179.58C531.35,-174.51 564.43,-166.7 592.76,-155 609.99,-147.89 627.62,-136.83 641.45,-127.12"/>
<polygon fill="blue" stroke="blue" points="642.56,-128.48 645.62,-124.16 640.53,-125.63 642.56,-128.48"/>
</g>
<!-- toka&#45;store&#45;core -->
<g id="node8" class="node">
<title>toka&#45;store&#45;core</title>
<path fill="#4ecdc4" stroke="black" d="M282.26,-52C282.26,-52 181.26,-52 181.26,-52 175.26,-52 169.26,-46 169.26,-40 169.26,-40 169.26,-28 169.26,-28 169.26,-22 175.26,-16 181.26,-16 181.26,-16 282.26,-16 282.26,-16 288.26,-16 294.26,-22 294.26,-28 294.26,-28 294.26,-40 294.26,-40 294.26,-46 288.26,-52 282.26,-52"/>
<text text-anchor="middle" x="231.76" y="-37" font-family="Times,serif" font-size="10.00">toka&#45;store&#45;core</text>
<text text-anchor="middle" x="231.76" y="-26" font-family="Times,serif" font-size="10.00">v{&#39;workspace&#39;: True}</text>
</g>
<!-- toka&#45;runtime&#45;&gt;toka&#45;store&#45;core -->
<g id="edge8" class="edge">
<title>toka&#45;runtime&#45;&gt;toka&#45;store&#45;core</title>
<path fill="none" stroke="blue" d="M398.71,-170.95C389.03,-167.71 378.66,-164.79 368.76,-163 349.51,-159.53 30.44,-168.99 16.76,-155 -6.54,-131.16 -4.26,-105.87 16.76,-80 35.14,-57.37 108.25,-45.72 164.16,-40.01"/>
<polygon fill="blue" stroke="blue" points="164.38,-41.75 169.18,-39.51 164.03,-38.26 164.38,-41.75"/>
</g>
<!-- toka&#45;store&#45;memory -->
<g id="node9" class="node">
<title>toka&#45;store&#45;memory</title>
<path fill="#4ecdc4" stroke="black" d="M282.26,-124C282.26,-124 181.26,-124 181.26,-124 175.26,-124 169.26,-118 169.26,-112 169.26,-112 169.26,-100 169.26,-100 169.26,-94 175.26,-88 181.26,-88 181.26,-88 282.26,-88 282.26,-88 288.26,-88 294.26,-94 294.26,-100 294.26,-100 294.26,-112 294.26,-112 294.26,-118 288.26,-124 282.26,-124"/>
<text text-anchor="middle" x="231.76" y="-109" font-family="Times,serif" font-size="10.00">toka&#45;store&#45;memory</text>
<text text-anchor="middle" x="231.76" y="-98" font-family="Times,serif" font-size="10.00">v{&#39;workspace&#39;: True}</text>
</g>
<!-- toka&#45;runtime&#45;&gt;toka&#45;store&#45;memory -->
<g id="edge10" class="edge">
<title>toka&#45;runtime&#45;&gt;toka&#45;store&#45;memory</title>
<path fill="none" stroke="blue" d="M396.26,-170.91C387.26,-167.92 377.78,-165.1 368.76,-163 340.41,-156.41 331.05,-165.12 303.76,-155 286.4,-148.56 269.07,-137.2 255.76,-127.14"/>
<polygon fill="blue" stroke="blue" points="256.8,-125.73 251.76,-124.07 254.66,-128.5 256.8,-125.73"/>
</g>
<!-- toka&#45;store&#45;sled -->
<g id="node10" class="node">
<title>toka&#45;store&#45;sled</title>
<path fill="#4ecdc4" stroke="black" d="M568.26,-124C568.26,-124 467.26,-124 467.26,-124 461.26,-124 455.26,-118 455.26,-112 455.26,-112 455.26,-100 455.26,-100 455.26,-94 461.26,-88 467.26,-88 467.26,-88 568.26,-88 568.26,-88 574.26,-88 580.26,-94 580.26,-100 580.26,-100 580.26,-112 580.26,-112 580.26,-118 574.26,-124 568.26,-124"/>
<text text-anchor="middle" x="517.76" y="-109" font-family="Times,serif" font-size="10.00">toka&#45;store&#45;sled</text>
<text text-anchor="middle" x="517.76" y="-98" font-family="Times,serif" font-size="10.00">v{&#39;workspace&#39;: True}</text>
</g>
<!-- toka&#45;runtime&#45;&gt;toka&#45;store&#45;sled -->
<g id="edge6" class="edge">
<title>toka&#45;runtime&#45;&gt;toka&#45;store&#45;sled</title>
<path fill="none" stroke="blue" d="M457.09,-170.82C469.04,-158.26 485.3,-141.15 497.98,-127.81"/>
<polygon fill="blue" stroke="blue" points="499.28,-128.98 501.46,-124.15 496.74,-126.57 499.28,-128.98"/>
</g>
<!-- toka&#45;store&#45;sqlite -->
<g id="node11" class="node">
<title>toka&#45;store&#45;sqlite</title>
<path fill="#4ecdc4" stroke="black" d="M425.26,-124C425.26,-124 324.26,-124 324.26,-124 318.26,-124 312.26,-118 312.26,-112 312.26,-112 312.26,-100 312.26,-100 312.26,-94 318.26,-88 324.26,-88 324.26,-88 425.26,-88 425.26,-88 431.26,-88 437.26,-94 437.26,-100 437.26,-100 437.26,-112 437.26,-112 437.26,-118 431.26,-124 425.26,-124"/>
<text text-anchor="middle" x="374.76" y="-109" font-family="Times,serif" font-size="10.00">toka&#45;store&#45;sqlite</text>
<text text-anchor="middle" x="374.76" y="-98" font-family="Times,serif" font-size="10.00">v{&#39;workspace&#39;: True}</text>
</g>
<!-- toka&#45;runtime&#45;&gt;toka&#45;store&#45;sqlite -->
<g id="edge7" class="edge">
<title>toka&#45;runtime&#45;&gt;toka&#45;store&#45;sqlite</title>
<path fill="none" stroke="blue" d="M426.77,-170.82C416.61,-158.36 402.83,-141.44 392,-128.15"/>
<polygon fill="blue" stroke="blue" points="393.25,-126.92 388.74,-124.15 390.54,-129.13 393.25,-126.92"/>
</g>
<!-- toka&#45;store&#45;memory&#45;&gt;toka&#45;store&#45;core -->
<g id="edge17" class="edge">
<title>toka&#45;store&#45;memory&#45;&gt;toka&#45;store&#45;core</title>
<path fill="none" stroke="blue" d="M231.76,-87.7C231.76,-78.46 231.76,-66.98 231.76,-57.11"/>
<polygon fill="blue" stroke="blue" points="233.51,-57.1 231.76,-52.1 230.01,-57.1 233.51,-57.1"/>
</g>
<!-- toka&#45;store&#45;sled&#45;&gt;toka&#45;store&#45;core -->
<g id="edge18" class="edge">
<title>toka&#45;store&#45;sled&#45;&gt;toka&#45;store&#45;core</title>
<path fill="none" stroke="blue" d="M472.21,-87.96C463.81,-85.11 455.07,-82.32 446.76,-80 398.06,-66.39 342.12,-54.81 299.51,-46.8"/>
<polygon fill="blue" stroke="blue" points="299.62,-45.04 294.38,-45.84 298.98,-48.48 299.62,-45.04"/>
</g>
<!-- toka&#45;store&#45;sqlite&#45;&gt;toka&#45;store&#45;core -->
<g id="edge11" class="edge">
<title>toka&#45;store&#45;sqlite&#45;&gt;toka&#45;store&#45;core</title>
<path fill="none" stroke="blue" d="M339.78,-87.88C319.09,-77.75 292.83,-64.89 271.38,-54.39"/>
<polygon fill="blue" stroke="blue" points="272.14,-52.82 266.88,-52.19 270.6,-55.96 272.14,-52.82"/>
</g>
<!-- toka&#45;store&#45;semantic -->
<g id="node12" class="node">
<title>toka&#45;store&#45;semantic</title>
<path fill="#4ecdc4" stroke="black" d="M139.26,-124C139.26,-124 38.26,-124 38.26,-124 32.26,-124 26.26,-118 26.26,-112 26.26,-112 26.26,-100 26.26,-100 26.26,-94 32.26,-88 38.26,-88 38.26,-88 139.26,-88 139.26,-88 145.26,-88 151.26,-94 151.26,-100 151.26,-100 151.26,-112 151.26,-112 151.26,-118 145.26,-124 139.26,-124"/>
<text text-anchor="middle" x="88.76" y="-109" font-family="Times,serif" font-size="10.00">toka&#45;store&#45;semantic</text>
<text text-anchor="middle" x="88.76" y="-98" font-family="Times,serif" font-size="10.00">v{&#39;workspace&#39;: True}</text>
</g>
<!-- toka&#45;store&#45;semantic&#45;&gt;toka&#45;store&#45;core -->
<g id="edge1" class="edge">
<title>toka&#45;store&#45;semantic&#45;&gt;toka&#45;store&#45;core</title>
<path fill="none" stroke="blue" d="M123.74,-87.88C144.43,-77.75 170.7,-64.89 192.15,-54.39"/>
<polygon fill="blue" stroke="blue" points="192.92,-55.96 196.65,-52.19 191.39,-52.82 192.92,-55.96"/>
</g>
<!-- raft&#45;core -->
<g id="node13" class="node">
<title>raft&#45;core</title>
<path fill="#ff6b6b" stroke="black" d="M771.76,-290C771.76,-290 735.76,-290 735.76,-290 729.76,-290 723.76,-284 723.76,-278 723.76,-278 723.76,-266 723.76,-266 723.76,-260 729.76,-254 735.76,-254 735.76,-254 771.76,-254 771.76,-254 777.76,-254 783.76,-260 783.76,-266 783.76,-266 783.76,-278 783.76,-278 783.76,-284 777.76,-290 771.76,-290"/>
<text text-anchor="middle" x="753.76" y="-275" font-family="Times,serif" font-size="10.00">raft&#45;core</text>
<text text-anchor="middle" x="753.76" y="-264" font-family="Times,serif" font-size="10.00">v0.2.1</text>
</g>
<!-- raft&#45;storage -->
<g id="node14" class="node">
<title>raft&#45;storage</title>
<path fill="#4ecdc4" stroke="black" d="M780.26,-373C780.26,-373 727.26,-373 727.26,-373 721.26,-373 715.26,-367 715.26,-361 715.26,-361 715.26,-349 715.26,-349 715.26,-343 721.26,-337 727.26,-337 727.26,-337 780.26,-337 780.26,-337 786.26,-337 792.26,-343 792.26,-349 792.26,-349 792.26,-361 792.26,-361 792.26,-367 786.26,-373 780.26,-373"/>
<text text-anchor="middle" x="753.76" y="-358" font-family="Times,serif" font-size="10.00">raft&#45;storage</text>
<text text-anchor="middle" x="753.76" y="-347" font-family="Times,serif" font-size="10.00">v0.2.1</text>
</g>
<!-- raft&#45;storage&#45;&gt;raft&#45;core -->
<g id="edge12" class="edge">
<title>raft&#45;storage&#45;&gt;raft&#45;core</title>
<path fill="none" stroke="blue" d="M753.76,-336.82C753.76,-324.69 753.76,-308.31 753.76,-295.19"/>
<polygon fill="blue" stroke="blue" points="755.51,-295.15 753.76,-290.15 752.01,-295.15 755.51,-295.15"/>
</g>
<!-- toka&#45;capability&#45;core -->
<g id="node15" class="node">
<title>toka&#45;capability&#45;core</title>
<path fill="#ff6b6b" stroke="black" d="M1087.26,-207C1087.26,-207 994.26,-207 994.26,-207 988.26,-207 982.26,-201 982.26,-195 982.26,-195 982.26,-183 982.26,-183 982.26,-177 988.26,-171 994.26,-171 994.26,-171 1087.26,-171 1087.26,-171 1093.26,-171 1099.26,-177 1099.26,-183 1099.26,-183 1099.26,-195 1099.26,-195 1099.26,-201 1093.26,-207 1087.26,-207"/>
<text text-anchor="middle" x="1040.76" y="-192" font-family="Times,serif" font-size="10.00">toka&#45;capability&#45;core</text>
<text text-anchor="middle" x="1040.76" y="-181" font-family="Times,serif" font-size="10.00">v0.2.0&#45;alpha</text>
</g>
<!-- toka&#45;capability&#45;jwt&#45;hs256 -->
<g id="node16" class="node">
<title>toka&#45;capability&#45;jwt&#45;hs256</title>
<path fill="#d5dbdb" stroke="black" d="M1168.76,-290C1168.76,-290 1048.76,-290 1048.76,-290 1042.76,-290 1036.76,-284 1036.76,-278 1036.76,-278 1036.76,-266 1036.76,-266 1036.76,-260 1042.76,-254 1048.76,-254 1048.76,-254 1168.76,-254 1168.76,-254 1174.76,-254 1180.76,-260 1180.76,-266 1180.76,-266 1180.76,-278 1180.76,-278 1180.76,-284 1174.76,-290 1168.76,-290"/>
<text text-anchor="middle" x="1108.76" y="-275" font-family="Times,serif" font-size="10.00">toka&#45;capability&#45;jwt&#45;hs256</text>
<text text-anchor="middle" x="1108.76" y="-264" font-family="Times,serif" font-size="10.00">v0.2.1</text>
</g>
<!-- toka&#45;capability&#45;jwt&#45;hs256&#45;&gt;toka&#45;capability&#45;core -->
<g id="edge22" class="edge">
<title>toka&#45;capability&#45;jwt&#45;hs256&#45;&gt;toka&#45;capability&#45;core</title>
<path fill="none" stroke="blue" d="M1094.34,-253.82C1083.88,-241.36 1069.68,-224.44 1058.52,-211.15"/>
<polygon fill="blue" stroke="blue" points="1059.72,-209.86 1055.16,-207.15 1057.04,-212.11 1059.72,-209.86"/>
</g>
<!-- toka&#45;key&#45;rotation -->
<g id="node17" class="node">
<title>toka&#45;key&#45;rotation</title>
<path fill="#d5dbdb" stroke="black" d="M1006.76,-290C1006.76,-290 926.76,-290 926.76,-290 920.76,-290 914.76,-284 914.76,-278 914.76,-278 914.76,-266 914.76,-266 914.76,-260 920.76,-254 926.76,-254 926.76,-254 1006.76,-254 1006.76,-254 1012.76,-254 1018.76,-260 1018.76,-266 1018.76,-266 1018.76,-278 1018.76,-278 1018.76,-284 1012.76,-290 1006.76,-290"/>
<text text-anchor="middle" x="966.76" y="-275" font-family="Times,serif" font-size="10.00">toka&#45;key&#45;rotation</text>
<text text-anchor="middle" x="966.76" y="-264" font-family="Times,serif" font-size="10.00">v0.3.0</text>
</g>
<!-- toka&#45;key&#45;rotation&#45;&gt;toka&#45;capability&#45;core -->
<g id="edge23" class="edge">
<title>toka&#45;key&#45;rotation&#45;&gt;toka&#45;capability&#45;core</title>
<path fill="none" stroke="blue" d="M982.46,-253.82C993.84,-241.36 1009.3,-224.44 1021.44,-211.15"/>
<polygon fill="blue" stroke="blue" points="1023.01,-212.03 1025.09,-207.15 1020.43,-209.66 1023.01,-212.03"/>
</g>
<!-- toka&#45;rate&#45;limiter -->
<g id="node18" class="node">
<title>toka&#45;rate&#45;limiter</title>
<path fill="#d5dbdb" stroke="black" d="M1286.26,-290C1286.26,-290 1211.26,-290 1211.26,-290 1205.26,-290 1199.26,-284 1199.26,-278 1199.26,-278 1199.26,-266 1199.26,-266 1199.26,-260 1205.26,-254 1211.26,-254 1211.26,-254 1286.26,-254 1286.26,-254 1292.26,-254 1298.26,-260 1298.26,-266 1298.26,-266 1298.26,-278 1298.26,-278 1298.26,-284 1292.26,-290 1286.26,-290"/>
<text text-anchor="middle" x="1248.76" y="-275" font-family="Times,serif" font-size="10.00">toka&#45;rate&#45;limiter</text>
<text text-anchor="middle" x="1248.76" y="-264" font-family="Times,serif" font-size="10.00">v0.3.0</text>
</g>
<!-- toka&#45;rate&#45;limiter&#45;&gt;toka&#45;capability&#45;core -->
<g id="edge21" class="edge">
<title>toka&#45;rate&#45;limiter&#45;&gt;toka&#45;capability&#45;core</title>
<path fill="none" stroke="blue" d="M1209.18,-253.96C1202.71,-251.26 1196.06,-248.52 1189.76,-246 1157.62,-233.16 1121.26,-219.48 1092.51,-208.85"/>
<polygon fill="blue" stroke="blue" points="1092.89,-207.13 1087.6,-207.04 1091.68,-210.41 1092.89,-207.13"/>
</g>
<!-- toka&#45;tools -->
<g id="node19" class="node">
<title>toka&#45;tools</title>
<path fill="#ffeaa7" stroke="black" d="M1272.76,-373C1272.76,-373 1230.76,-373 1230.76,-373 1224.76,-373 1218.76,-367 1218.76,-361 1218.76,-361 1218.76,-349 1218.76,-349 1218.76,-343 1224.76,-337 1230.76,-337 1230.76,-337 1272.76,-337 1272.76,-337 1278.76,-337 1284.76,-343 1284.76,-349 1284.76,-349 1284.76,-361 1284.76,-361 1284.76,-367 1278.76,-373 1272.76,-373"/>
<text text-anchor="middle" x="1251.76" y="-358" font-family="Times,serif" font-size="10.00">toka&#45;tools</text>
<text text-anchor="middle" x="1251.76" y="-347" font-family="Times,serif" font-size="10.00">v0.1.0</text>
</g>
<!-- toka&#45;performance -->
<g id="node20" class="node">
<title>toka&#45;performance</title>
<path fill="#d5dbdb" stroke="black" d="M1188.26,-373C1188.26,-373 1105.26,-373 1105.26,-373 1099.26,-373 1093.26,-367 1093.26,-361 1093.26,-361 1093.26,-349 1093.26,-349 1093.26,-343 1099.26,-337 1105.26,-337 1105.26,-337 1188.26,-337 1188.26,-337 1194.26,-337 1200.26,-343 1200.26,-349 1200.26,-349 1200.26,-361 1200.26,-361 1200.26,-367 1194.26,-373 1188.26,-373"/>
<text text-anchor="middle" x="1146.76" y="-358" font-family="Times,serif" font-size="10.00">toka&#45;performance</text>
<text text-anchor="middle" x="1146.76" y="-347" font-family="Times,serif" font-size="10.00">v0.3.0</text>
</g>
<!-- toka&#45;capability&#45;delegation -->
<g id="node21" class="node">
<title>toka&#45;capability&#45;delegation</title>
<path fill="lightgrey" stroke="black" d="M1049.26,-373C1049.26,-373 872.26,-373 872.26,-373 866.26,-373 860.26,-367 860.26,-361 860.26,-361 860.26,-349 860.26,-349 860.26,-343 866.26,-337 872.26,-337 872.26,-337 1049.26,-337 1049.26,-337 1055.26,-337 1061.26,-343 1061.26,-349 1061.26,-349 1061.26,-361 1061.26,-361 1061.26,-367 1055.26,-373 1049.26,-373"/>
<text text-anchor="middle" x="960.76" y="-351.3" font-family="Times,serif" font-size="14.00">toka&#45;capability&#45;delegation</text>
</g>
<!-- toka&#45;capability&#45;delegation&#45;&gt;toka&#45;capability&#45;core -->
<g id="edge20" class="edge">
<title>toka&#45;capability&#45;delegation&#45;&gt;toka&#45;capability&#45;core</title>
<path fill="none" stroke="blue" d="M920.55,-336.82C914.63,-332.53 909.33,-327.3 905.76,-321 889.34,-291.99 887.25,-273.72 905.76,-246 921.81,-221.96 950.31,-208.23 977,-200.39"/>
<polygon fill="blue" stroke="blue" points="977.62,-202.03 981.96,-198.99 976.67,-198.66 977.62,-202.03"/>
</g>
<!-- toka&#45;capability&#45;delegation&#45;&gt;toka&#45;capability&#45;jwt&#45;hs256 -->
<g id="edge19" class="edge">
<title>toka&#45;capability&#45;delegation&#45;&gt;toka&#45;capability&#45;jwt&#45;hs256</title>
<path fill="none" stroke="blue" d="M996.84,-336.87C1006.93,-331.9 1017.84,-326.37 1027.76,-321 1044.05,-312.18 1061.78,-301.77 1076.49,-292.9"/>
<polygon fill="blue" stroke="blue" points="1077.58,-294.29 1080.95,-290.2 1075.77,-291.29 1077.58,-294.29"/>
</g>
</g>
</svg>
