<?xml version="1.0" encoding="UTF-8" standalone="no"?>
<!DOCTYPE svg PUBLIC "-//W3C//DTD SVG 1.1//EN"
 "http://www.w3.org/Graphics/SVG/1.1/DTD/svg11.dtd">
<!-- Generated by graphviz version 2.43.0 (0)
 -->
<!-- Title: %3 Pages: 1 -->
<svg width="6000pt" height="996pt"
 viewBox="0.00 0.00 1440.00 239.14" xmlns="http://www.w3.org/2000/svg" xmlns:xlink="http://www.w3.org/1999/xlink">
<g id="graph0" class="graph" transform="scale(2.53 2.53) rotate(0) translate(4 389.5)">
<title>%3</title>
<polygon fill="white" stroke="transparent" points="-4,4 -4,-389.5 2365.5,-389.5 2365.5,4 -4,4"/>
<g id="clust1" class="cluster">
<title>cluster_legend</title>
<polygon fill="lightgray" stroke="black" points="1425.5,-302.5 1425.5,-377.5 2353.5,-377.5 2353.5,-302.5 1425.5,-302.5"/>
<text text-anchor="middle" x="1889.5" y="-362.3" font-family="Times,serif" font-size="14.00">Categories</text>
</g>
<!-- toka&#45;store&#45;sled -->
<g id="node1" class="node">
<title>toka&#45;store&#45;sled</title>
<path fill="#4ecdc4" stroke="black" d="M113,-118C113,-118 12,-118 12,-118 6,-118 0,-112 0,-106 0,-106 0,-89 0,-89 0,-83 6,-77 12,-77 12,-77 113,-77 113,-77 119,-77 125,-83 125,-89 125,-89 125,-106 125,-106 125,-112 119,-118 113,-118"/>
<text text-anchor="middle" x="62.5" y="-106" font-family="Times,serif" font-size="10.00">toka&#45;store&#45;sled</text>
<text text-anchor="middle" x="62.5" y="-95" font-family="Times,serif" font-size="10.00">(storage)</text>
<text text-anchor="middle" x="62.5" y="-84" font-family="Times,serif" font-size="10.00">v{&#39;workspace&#39;: True}</text>
</g>
<!-- toka&#45;store&#45;core -->
<g id="node13" class="node">
<title>toka&#45;store&#45;core</title>
<path fill="#4ecdc4" stroke="black" d="M399,-41C399,-41 298,-41 298,-41 292,-41 286,-35 286,-29 286,-29 286,-12 286,-12 286,-6 292,0 298,0 298,0 399,0 399,0 405,0 411,-6 411,-12 411,-12 411,-29 411,-29 411,-35 405,-41 399,-41"/>
<text text-anchor="middle" x="348.5" y="-29" font-family="Times,serif" font-size="10.00">toka&#45;store&#45;core</text>
<text text-anchor="middle" x="348.5" y="-18" font-family="Times,serif" font-size="10.00">(storage)</text>
<text text-anchor="middle" x="348.5" y="-7" font-family="Times,serif" font-size="10.00">v{&#39;workspace&#39;: True}</text>
</g>
<!-- toka&#45;store&#45;sled&#45;&gt;toka&#45;store&#45;core -->
<g id="edge1" class="edge">
<title>toka&#45;store&#45;sled&#45;&gt;toka&#45;store&#45;core</title>
<path fill="none" stroke="gray" d="M125.21,-79.22C128.01,-78.47 130.78,-77.72 133.5,-77 182.72,-63.89 238.41,-49.53 280.77,-38.7"/>
<polygon fill="gray" stroke="gray" points="281.46,-40.33 285.87,-37.4 280.59,-36.94 281.46,-40.33"/>
</g>
<!-- toka&#45;runtime -->
<g id="node2" class="node">
<title>toka&#45;runtime</title>
<path fill="#96ceb4" stroke="black" d="M399,-195C399,-195 298,-195 298,-195 292,-195 286,-189 286,-183 286,-183 286,-166 286,-166 286,-160 292,-154 298,-154 298,-154 399,-154 399,-154 405,-154 411,-160 411,-166 411,-166 411,-183 411,-183 411,-189 405,-195 399,-195"/>
<text text-anchor="middle" x="348.5" y="-183" font-family="Times,serif" font-size="10.00">toka&#45;runtime</text>
<text text-anchor="middle" x="348.5" y="-172" font-family="Times,serif" font-size="10.00">(runtime)</text>
<text text-anchor="middle" x="348.5" y="-161" font-family="Times,serif" font-size="10.00">v{&#39;workspace&#39;: True}</text>
</g>
<!-- toka&#45;runtime&#45;&gt;toka&#45;store&#45;sled -->
<g id="edge5" class="edge">
<title>toka&#45;runtime&#45;&gt;toka&#45;store&#45;sled</title>
<path fill="none" stroke="gray" d="M285.87,-157.6C242.94,-146.64 184.72,-131.64 133.5,-118 132.4,-117.71 131.28,-117.41 130.16,-117.11"/>
<polygon fill="gray" stroke="gray" points="130.49,-115.38 125.21,-115.78 129.58,-118.76 130.49,-115.38"/>
</g>
<!-- toka&#45;store&#45;memory -->
<g id="node6" class="node">
<title>toka&#45;store&#45;memory</title>
<path fill="#4ecdc4" stroke="black" d="M256,-118C256,-118 155,-118 155,-118 149,-118 143,-112 143,-106 143,-106 143,-89 143,-89 143,-83 149,-77 155,-77 155,-77 256,-77 256,-77 262,-77 268,-83 268,-89 268,-89 268,-106 268,-106 268,-112 262,-118 256,-118"/>
<text text-anchor="middle" x="205.5" y="-106" font-family="Times,serif" font-size="10.00">toka&#45;store&#45;memory</text>
<text text-anchor="middle" x="205.5" y="-95" font-family="Times,serif" font-size="10.00">(storage)</text>
<text text-anchor="middle" x="205.5" y="-84" font-family="Times,serif" font-size="10.00">v{&#39;workspace&#39;: True}</text>
</g>
<!-- toka&#45;runtime&#45;&gt;toka&#45;store&#45;memory -->
<g id="edge4" class="edge">
<title>toka&#45;runtime&#45;&gt;toka&#45;store&#45;memory</title>
<path fill="none" stroke="gray" d="M311.3,-153.99C291.76,-143.74 267.74,-131.14 247.53,-120.54"/>
<polygon fill="gray" stroke="gray" points="248.25,-118.95 243.01,-118.17 246.62,-122.04 248.25,-118.95"/>
</g>
<!-- toka&#45;store&#45;sqlite -->
<g id="node8" class="node">
<title>toka&#45;store&#45;sqlite</title>
<path fill="#4ecdc4" stroke="black" d="M399,-118C399,-118 298,-118 298,-118 292,-118 286,-112 286,-106 286,-106 286,-89 286,-89 286,-83 292,-77 298,-77 298,-77 399,-77 399,-77 405,-77 411,-83 411,-89 411,-89 411,-106 411,-106 411,-112 405,-118 399,-118"/>
<text text-anchor="middle" x="348.5" y="-106" font-family="Times,serif" font-size="10.00">toka&#45;store&#45;sqlite</text>
<text text-anchor="middle" x="348.5" y="-95" font-family="Times,serif" font-size="10.00">(storage)</text>
<text text-anchor="middle" x="348.5" y="-84" font-family="Times,serif" font-size="10.00">v{&#39;workspace&#39;: True}</text>
</g>
<!-- toka&#45;runtime&#45;&gt;toka&#45;store&#45;sqlite -->
<g id="edge6" class="edge">
<title>toka&#45;runtime&#45;&gt;toka&#45;store&#45;sqlite</title>
<path fill="none" stroke="gray" d="M348.5,-153.79C348.5,-144.41 348.5,-133.08 348.5,-123.13"/>
<polygon fill="gray" stroke="gray" points="350.25,-123.07 348.5,-118.07 346.75,-123.07 350.25,-123.07"/>
</g>
<!-- toka&#45;bus&#45;core -->
<g id="node10" class="node">
<title>toka&#45;bus&#45;core</title>
<path fill="#ff6b6b" stroke="black" d="M581,-118C581,-118 480,-118 480,-118 474,-118 468,-112 468,-106 468,-106 468,-89 468,-89 468,-83 474,-77 480,-77 480,-77 581,-77 581,-77 587,-77 593,-83 593,-89 593,-89 593,-106 593,-106 593,-112 587,-118 581,-118"/>
<text text-anchor="middle" x="530.5" y="-106" font-family="Times,serif" font-size="10.00">toka&#45;bus&#45;core</text>
<text text-anchor="middle" x="530.5" y="-95" font-family="Times,serif" font-size="10.00">(core)</text>
<text text-anchor="middle" x="530.5" y="-84" font-family="Times,serif" font-size="10.00">v{&#39;workspace&#39;: True}</text>
</g>
<!-- toka&#45;runtime&#45;&gt;toka&#45;bus&#45;core -->
<g id="edge3" class="edge">
<title>toka&#45;runtime&#45;&gt;toka&#45;bus&#45;core</title>
<path fill="none" stroke="gray" d="M395.84,-153.99C421.13,-143.57 452.3,-130.72 478.29,-120.02"/>
<polygon fill="gray" stroke="gray" points="479.12,-121.57 483.08,-118.04 477.79,-118.33 479.12,-121.57"/>
</g>
<!-- toka&#45;runtime&#45;&gt;toka&#45;store&#45;core -->
<g id="edge2" class="edge">
<title>toka&#45;runtime&#45;&gt;toka&#45;store&#45;core</title>
<path fill="none" stroke="gray" d="M385.95,-153.76C399.06,-144.76 412.3,-132.77 419.5,-118 427.49,-101.62 427.49,-93.38 419.5,-77 413.09,-63.85 401.89,-52.9 390.25,-44.3"/>
<polygon fill="gray" stroke="gray" points="391.04,-42.71 385.95,-41.24 389.01,-45.56 391.04,-42.71"/>
</g>
<!-- toka&#45;cli -->
<g id="node3" class="node">
<title>toka&#45;cli</title>
<path fill="#ffeaa7" stroke="black" d="M399,-272C399,-272 298,-272 298,-272 292,-272 286,-266 286,-260 286,-260 286,-243 286,-243 286,-237 292,-231 298,-231 298,-231 399,-231 399,-231 405,-231 411,-237 411,-243 411,-243 411,-260 411,-260 411,-266 405,-272 399,-272"/>
<text text-anchor="middle" x="348.5" y="-260" font-family="Times,serif" font-size="10.00">toka&#45;cli</text>
<text text-anchor="middle" x="348.5" y="-249" font-family="Times,serif" font-size="10.00">(tools)</text>
<text text-anchor="middle" x="348.5" y="-238" font-family="Times,serif" font-size="10.00">v{&#39;workspace&#39;: True}</text>
</g>
<!-- toka&#45;cli&#45;&gt;toka&#45;runtime -->
<g id="edge7" class="edge">
<title>toka&#45;cli&#45;&gt;toka&#45;runtime</title>
<path fill="none" stroke="gray" d="M348.5,-230.79C348.5,-221.41 348.5,-210.08 348.5,-200.13"/>
<polygon fill="gray" stroke="gray" points="350.25,-200.07 348.5,-195.07 346.75,-200.07 350.25,-200.07"/>
</g>
<!-- toka&#45;agent&#45;runtime -->
<g id="node4" class="node">
<title>toka&#45;agent&#45;runtime</title>
<path fill="#96ceb4" stroke="black" d="M542,-272C542,-272 441,-272 441,-272 435,-272 429,-266 429,-260 429,-260 429,-243 429,-243 429,-237 435,-231 441,-231 441,-231 542,-231 542,-231 548,-231 554,-237 554,-243 554,-243 554,-260 554,-260 554,-266 548,-272 542,-272"/>
<text text-anchor="middle" x="491.5" y="-260" font-family="Times,serif" font-size="10.00">toka&#45;agent&#45;runtime</text>
<text text-anchor="middle" x="491.5" y="-249" font-family="Times,serif" font-size="10.00">(runtime)</text>
<text text-anchor="middle" x="491.5" y="-238" font-family="Times,serif" font-size="10.00">v{&#39;workspace&#39;: True}</text>
</g>
<!-- toka&#45;agent&#45;runtime&#45;&gt;toka&#45;runtime -->
<g id="edge10" class="edge">
<title>toka&#45;agent&#45;runtime&#45;&gt;toka&#45;runtime</title>
<path fill="none" stroke="gray" d="M454.3,-230.99C434.76,-220.74 410.74,-208.14 390.53,-197.54"/>
<polygon fill="gray" stroke="gray" points="391.25,-195.95 386.01,-195.17 389.62,-199.04 391.25,-195.95"/>
</g>
<!-- toka&#45;agent&#45;runtime&#45;&gt;toka&#45;bus&#45;core -->
<g id="edge8" class="edge">
<title>toka&#45;agent&#45;runtime&#45;&gt;toka&#45;bus&#45;core</title>
<path fill="none" stroke="gray" d="M489.07,-230.76C487.32,-210.89 486.49,-179.59 494.5,-154 498.01,-142.78 504.47,-131.67 510.95,-122.36"/>
<polygon fill="gray" stroke="gray" points="512.43,-123.3 513.92,-118.22 509.59,-121.26 512.43,-123.3"/>
</g>
<!-- toka&#45;llm&#45;gateway -->
<g id="node12" class="node">
<title>toka&#45;llm&#45;gateway</title>
<path fill="#dda0dd" stroke="black" d="M595.5,-195C595.5,-195 515.5,-195 515.5,-195 509.5,-195 503.5,-189 503.5,-183 503.5,-183 503.5,-166 503.5,-166 503.5,-160 509.5,-154 515.5,-154 515.5,-154 595.5,-154 595.5,-154 601.5,-154 607.5,-160 607.5,-166 607.5,-166 607.5,-183 607.5,-183 607.5,-189 601.5,-195 595.5,-195"/>
<text text-anchor="middle" x="555.5" y="-183" font-family="Times,serif" font-size="10.00">toka&#45;llm&#45;gateway</text>
<text text-anchor="middle" x="555.5" y="-172" font-family="Times,serif" font-size="10.00">(llm)</text>
<text text-anchor="middle" x="555.5" y="-161" font-family="Times,serif" font-size="10.00">v0.3.0</text>
</g>
<!-- toka&#45;agent&#45;runtime&#45;&gt;toka&#45;llm&#45;gateway -->
<g id="edge9" class="edge">
<title>toka&#45;agent&#45;runtime&#45;&gt;toka&#45;llm&#45;gateway</title>
<path fill="none" stroke="gray" d="M508.32,-230.79C516.62,-221.06 526.7,-209.25 535.41,-199.04"/>
<polygon fill="gray" stroke="gray" points="536.88,-200.01 538.8,-195.07 534.22,-197.74 536.88,-200.01"/>
</g>
<!-- toka&#45;orchestration -->
<g id="node5" class="node">
<title>toka&#45;orchestration</title>
<path fill="#f7dc6f" stroke="black" d="M579.5,-349C579.5,-349 493.5,-349 493.5,-349 487.5,-349 481.5,-343 481.5,-337 481.5,-337 481.5,-320 481.5,-320 481.5,-314 487.5,-308 493.5,-308 493.5,-308 579.5,-308 579.5,-308 585.5,-308 591.5,-314 591.5,-320 591.5,-320 591.5,-337 591.5,-337 591.5,-343 585.5,-349 579.5,-349"/>
<text text-anchor="middle" x="536.5" y="-337" font-family="Times,serif" font-size="10.00">toka&#45;orchestration</text>
<text text-anchor="middle" x="536.5" y="-326" font-family="Times,serif" font-size="10.00">(orchestration)</text>
<text text-anchor="middle" x="536.5" y="-315" font-family="Times,serif" font-size="10.00">v0.2.1</text>
</g>
<!-- toka&#45;orchestration&#45;&gt;toka&#45;runtime -->
<g id="edge14" class="edge">
<title>toka&#45;orchestration&#45;&gt;toka&#45;runtime</title>
<path fill="none" stroke="gray" d="M481.34,-323.67C412.79,-317.64 301.76,-303.22 276.5,-272 265.04,-257.83 268.46,-247.35 276.5,-231 283.01,-217.76 294.38,-206.78 306.18,-198.19"/>
<polygon fill="gray" stroke="gray" points="307.45,-199.43 310.53,-195.13 305.44,-196.57 307.45,-199.43"/>
</g>
<!-- toka&#45;orchestration&#45;&gt;toka&#45;agent&#45;runtime -->
<g id="edge13" class="edge">
<title>toka&#45;orchestration&#45;&gt;toka&#45;agent&#45;runtime</title>
<path fill="none" stroke="gray" d="M524.68,-307.79C518.94,-298.23 512,-286.67 505.95,-276.59"/>
<polygon fill="gray" stroke="gray" points="507.32,-275.46 503.24,-272.07 504.32,-277.26 507.32,-275.46"/>
</g>
<!-- toka&#45;orchestration&#45;&gt;toka&#45;bus&#45;core -->
<g id="edge12" class="edge">
<title>toka&#45;orchestration&#45;&gt;toka&#45;bus&#45;core</title>
<path fill="none" stroke="gray" d="M557.79,-307.83C590.41,-275.22 646.02,-208.18 616.5,-154 608.94,-140.12 596.25,-129.19 582.91,-120.83"/>
<polygon fill="gray" stroke="gray" points="583.55,-119.17 578.37,-118.09 581.75,-122.17 583.55,-119.17"/>
</g>
<!-- toka&#45;orchestration&#45;&gt;toka&#45;llm&#45;gateway -->
<g id="edge11" class="edge">
<title>toka&#45;orchestration&#45;&gt;toka&#45;llm&#45;gateway</title>
<path fill="none" stroke="gray" d="M548.23,-307.96C553.74,-297.65 559.7,-284.57 562.5,-272 567.83,-248.07 564.8,-220.06 561.22,-200.4"/>
<polygon fill="gray" stroke="gray" points="562.91,-199.92 560.25,-195.34 559.47,-200.58 562.91,-199.92"/>
</g>
<!-- toka&#45;store&#45;memory&#45;&gt;toka&#45;store&#45;core -->
<g id="edge15" class="edge">
<title>toka&#45;store&#45;memory&#45;&gt;toka&#45;store&#45;core</title>
<path fill="none" stroke="gray" d="M242.7,-76.99C262.24,-66.74 286.26,-54.14 306.47,-43.54"/>
<polygon fill="gray" stroke="gray" points="307.38,-45.04 310.99,-41.17 305.75,-41.95 307.38,-45.04"/>
</g>
<!-- toka&#45;config&#45;cli -->
<g id="node7" class="node">
<title>toka&#45;config&#45;cli</title>
<path fill="#ffeaa7" stroke="black" d="M723,-349C723,-349 622,-349 622,-349 616,-349 610,-343 610,-337 610,-337 610,-320 610,-320 610,-314 616,-308 622,-308 622,-308 723,-308 723,-308 729,-308 735,-314 735,-320 735,-320 735,-337 735,-337 735,-343 729,-349 723,-349"/>
<text text-anchor="middle" x="672.5" y="-337" font-family="Times,serif" font-size="10.00">toka&#45;config&#45;cli</text>
<text text-anchor="middle" x="672.5" y="-326" font-family="Times,serif" font-size="10.00">(tools)</text>
<text text-anchor="middle" x="672.5" y="-315" font-family="Times,serif" font-size="10.00">v{&#39;workspace&#39;: True}</text>
</g>
<!-- toka&#45;store&#45;sqlite&#45;&gt;toka&#45;store&#45;core -->
<g id="edge16" class="edge">
<title>toka&#45;store&#45;sqlite&#45;&gt;toka&#45;store&#45;core</title>
<path fill="none" stroke="gray" d="M348.5,-76.79C348.5,-67.41 348.5,-56.08 348.5,-46.13"/>
<polygon fill="gray" stroke="gray" points="350.25,-46.07 348.5,-41.07 346.75,-46.07 350.25,-46.07"/>
</g>
<!-- toka&#45;store&#45;semantic -->
<g id="node9" class="node">
<title>toka&#45;store&#45;semantic</title>
<path fill="#4ecdc4" stroke="black" d="M724,-118C724,-118 623,-118 623,-118 617,-118 611,-112 611,-106 611,-106 611,-89 611,-89 611,-83 617,-77 623,-77 623,-77 724,-77 724,-77 730,-77 736,-83 736,-89 736,-89 736,-106 736,-106 736,-112 730,-118 724,-118"/>
<text text-anchor="middle" x="673.5" y="-106" font-family="Times,serif" font-size="10.00">toka&#45;store&#45;semantic</text>
<text text-anchor="middle" x="673.5" y="-95" font-family="Times,serif" font-size="10.00">(storage)</text>
<text text-anchor="middle" x="673.5" y="-84" font-family="Times,serif" font-size="10.00">v{&#39;workspace&#39;: True}</text>
</g>
<!-- toka&#45;store&#45;semantic&#45;&gt;toka&#45;store&#45;core -->
<g id="edge17" class="edge">
<title>toka&#45;store&#45;semantic&#45;&gt;toka&#45;store&#45;core</title>
<path fill="none" stroke="gray" d="M610.72,-79.3C607.6,-78.51 604.52,-77.74 601.5,-77 539,-61.69 467.33,-46.16 416.27,-35.43"/>
<polygon fill="gray" stroke="gray" points="416.33,-33.66 411.08,-34.34 415.61,-37.08 416.33,-33.66"/>
</g>
<!-- raft&#45;core -->
<g id="node11" class="node">
<title>raft&#45;core</title>
<path fill="#ff6b6b" stroke="black" d="M809.5,-272C809.5,-272 773.5,-272 773.5,-272 767.5,-272 761.5,-266 761.5,-260 761.5,-260 761.5,-243 761.5,-243 761.5,-237 767.5,-231 773.5,-231 773.5,-231 809.5,-231 809.5,-231 815.5,-231 821.5,-237 821.5,-243 821.5,-243 821.5,-260 821.5,-260 821.5,-266 815.5,-272 809.5,-272"/>
<text text-anchor="middle" x="791.5" y="-260" font-family="Times,serif" font-size="10.00">raft&#45;core</text>
<text text-anchor="middle" x="791.5" y="-249" font-family="Times,serif" font-size="10.00">(core)</text>
<text text-anchor="middle" x="791.5" y="-238" font-family="Times,serif" font-size="10.00">v0.2.1</text>
</g>
<!-- toka&#45;tools -->
<g id="node14" class="node">
<title>toka&#45;tools</title>
<path fill="#ffeaa7" stroke="black" d="M902.5,-349C902.5,-349 860.5,-349 860.5,-349 854.5,-349 848.5,-343 848.5,-337 848.5,-337 848.5,-320 848.5,-320 848.5,-314 854.5,-308 860.5,-308 860.5,-308 902.5,-308 902.5,-308 908.5,-308 914.5,-314 914.5,-320 914.5,-320 914.5,-337 914.5,-337 914.5,-343 908.5,-349 902.5,-349"/>
<text text-anchor="middle" x="881.5" y="-337" font-family="Times,serif" font-size="10.00">toka&#45;tools</text>
<text text-anchor="middle" x="881.5" y="-326" font-family="Times,serif" font-size="10.00">(tools)</text>
<text text-anchor="middle" x="881.5" y="-315" font-family="Times,serif" font-size="10.00">v0.1.0</text>
</g>
<!-- toka&#45;capability&#45;core -->
<g id="node15" class="node">
<title>toka&#45;capability&#45;core</title>
<path fill="#ff6b6b" stroke="black" d="M1173,-195C1173,-195 1080,-195 1080,-195 1074,-195 1068,-189 1068,-183 1068,-183 1068,-166 1068,-166 1068,-160 1074,-154 1080,-154 1080,-154 1173,-154 1173,-154 1179,-154 1185,-160 1185,-166 1185,-166 1185,-183 1185,-183 1185,-189 1179,-195 1173,-195"/>
<text text-anchor="middle" x="1126.5" y="-183" font-family="Times,serif" font-size="10.00">toka&#45;capability&#45;core</text>
<text text-anchor="middle" x="1126.5" y="-172" font-family="Times,serif" font-size="10.00">(core)</text>
<text text-anchor="middle" x="1126.5" y="-161" font-family="Times,serif" font-size="10.00">v0.2.0&#45;alpha</text>
</g>
<!-- toka&#45;capability&#45;jwt&#45;hs256 -->
<g id="node16" class="node">
<title>toka&#45;capability&#45;jwt&#45;hs256</title>
<path fill="#d5dbdb" stroke="black" d="M1116.5,-272C1116.5,-272 996.5,-272 996.5,-272 990.5,-272 984.5,-266 984.5,-260 984.5,-260 984.5,-243 984.5,-243 984.5,-237 990.5,-231 996.5,-231 996.5,-231 1116.5,-231 1116.5,-231 1122.5,-231 1128.5,-237 1128.5,-243 1128.5,-243 1128.5,-260 1128.5,-260 1128.5,-266 1122.5,-272 1116.5,-272"/>
<text text-anchor="middle" x="1056.5" y="-260" font-family="Times,serif" font-size="10.00">toka&#45;capability&#45;jwt&#45;hs256</text>
<text text-anchor="middle" x="1056.5" y="-249" font-family="Times,serif" font-size="10.00">(general)</text>
<text text-anchor="middle" x="1056.5" y="-238" font-family="Times,serif" font-size="10.00">v0.2.1</text>
</g>
<!-- toka&#45;capability&#45;jwt&#45;hs256&#45;&gt;toka&#45;capability&#45;core -->
<g id="edge18" class="edge">
<title>toka&#45;capability&#45;jwt&#45;hs256&#45;&gt;toka&#45;capability&#45;core</title>
<path fill="none" stroke="gray" d="M1074.89,-230.79C1084.06,-220.98 1095.2,-209.04 1104.78,-198.77"/>
<polygon fill="gray" stroke="gray" points="1106.1,-199.92 1108.23,-195.07 1103.54,-197.53 1106.1,-199.92"/>
</g>
<!-- toka&#45;rate&#45;limiter -->
<g id="node17" class="node">
<title>toka&#45;rate&#45;limiter</title>
<path fill="#d5dbdb" stroke="black" d="M1234,-272C1234,-272 1159,-272 1159,-272 1153,-272 1147,-266 1147,-260 1147,-260 1147,-243 1147,-243 1147,-237 1153,-231 1159,-231 1159,-231 1234,-231 1234,-231 1240,-231 1246,-237 1246,-243 1246,-243 1246,-260 1246,-260 1246,-266 1240,-272 1234,-272"/>
<text text-anchor="middle" x="1196.5" y="-260" font-family="Times,serif" font-size="10.00">toka&#45;rate&#45;limiter</text>
<text text-anchor="middle" x="1196.5" y="-249" font-family="Times,serif" font-size="10.00">(general)</text>
<text text-anchor="middle" x="1196.5" y="-238" font-family="Times,serif" font-size="10.00">v0.3.0</text>
</g>
<!-- toka&#45;rate&#45;limiter&#45;&gt;toka&#45;capability&#45;core -->
<g id="edge19" class="edge">
<title>toka&#45;rate&#45;limiter&#45;&gt;toka&#45;capability&#45;core</title>
<path fill="none" stroke="gray" d="M1178.11,-230.79C1168.94,-220.98 1157.8,-209.04 1148.22,-198.77"/>
<polygon fill="gray" stroke="gray" points="1149.46,-197.53 1144.77,-195.07 1146.9,-199.92 1149.46,-197.53"/>
</g>
<!-- toka&#45;capability&#45;delegation -->
<g id="node18" class="node">
<title>toka&#45;capability&#45;delegation</title>
<path fill="#d5dbdb" stroke="black" d="M1069,-349C1069,-349 944,-349 944,-349 938,-349 932,-343 932,-337 932,-337 932,-320 932,-320 932,-314 938,-308 944,-308 944,-308 1069,-308 1069,-308 1075,-308 1081,-314 1081,-320 1081,-320 1081,-337 1081,-337 1081,-343 1075,-349 1069,-349"/>
<text text-anchor="middle" x="1006.5" y="-337" font-family="Times,serif" font-size="10.00">toka&#45;capability&#45;delegation</text>
<text text-anchor="middle" x="1006.5" y="-326" font-family="Times,serif" font-size="10.00">(general)</text>
<text text-anchor="middle" x="1006.5" y="-315" font-family="Times,serif" font-size="10.00">v0.3.0</text>
</g>
<!-- toka&#45;capability&#45;delegation&#45;&gt;toka&#45;capability&#45;core -->
<g id="edge21" class="edge">
<title>toka&#45;capability&#45;delegation&#45;&gt;toka&#45;capability&#45;core</title>
<path fill="none" stroke="gray" d="M990.7,-307.86C976.14,-287.21 959.09,-254.52 975.5,-231 995.22,-202.74 1031.02,-188.83 1062.81,-182"/>
<polygon fill="gray" stroke="gray" points="1063.32,-183.68 1067.87,-180.96 1062.62,-180.25 1063.32,-183.68"/>
</g>
<!-- toka&#45;capability&#45;delegation&#45;&gt;toka&#45;capability&#45;jwt&#45;hs256 -->
<g id="edge20" class="edge">
<title>toka&#45;capability&#45;delegation&#45;&gt;toka&#45;capability&#45;jwt&#45;hs256</title>
<path fill="none" stroke="gray" d="M1019.64,-307.79C1026.07,-298.15 1033.86,-286.46 1040.62,-276.32"/>
<polygon fill="gray" stroke="gray" points="1042.13,-277.2 1043.45,-272.07 1039.22,-275.26 1042.13,-277.2"/>
</g>
<!-- toka&#45;cvm -->
<g id="node19" class="node">
<title>toka&#45;cvm</title>
<path fill="#d5dbdb" stroke="black" d="M1166,-349C1166,-349 1111,-349 1111,-349 1105,-349 1099,-343 1099,-337 1099,-337 1099,-320 1099,-320 1099,-314 1105,-308 1111,-308 1111,-308 1166,-308 1166,-308 1172,-308 1178,-314 1178,-320 1178,-320 1178,-337 1178,-337 1178,-343 1172,-349 1166,-349"/>
<text text-anchor="middle" x="1138.5" y="-337" font-family="Times,serif" font-size="10.00">toka&#45;cvm</text>
<text text-anchor="middle" x="1138.5" y="-326" font-family="Times,serif" font-size="10.00">(general)</text>
<text text-anchor="middle" x="1138.5" y="-315" font-family="Times,serif" font-size="10.00">v0.2.0&#45;alpha</text>
</g>
<!-- toka&#45;revocation -->
<g id="node20" class="node">
<title>toka&#45;revocation</title>
<path fill="#d5dbdb" stroke="black" d="M1279,-349C1279,-349 1208,-349 1208,-349 1202,-349 1196,-343 1196,-337 1196,-337 1196,-320 1196,-320 1196,-314 1202,-308 1208,-308 1208,-308 1279,-308 1279,-308 1285,-308 1291,-314 1291,-320 1291,-320 1291,-337 1291,-337 1291,-343 1285,-349 1279,-349"/>
<text text-anchor="middle" x="1243.5" y="-337" font-family="Times,serif" font-size="10.00">toka&#45;revocation</text>
<text text-anchor="middle" x="1243.5" y="-326" font-family="Times,serif" font-size="10.00">(general)</text>
<text text-anchor="middle" x="1243.5" y="-315" font-family="Times,serif" font-size="10.00">v0.2.0&#45;alpha</text>
</g>
<!-- toka&#45;key&#45;rotation -->
<g id="node21" class="node">
<title>toka&#45;key&#45;rotation</title>
<path fill="#d5dbdb" stroke="black" d="M1356.5,-272C1356.5,-272 1276.5,-272 1276.5,-272 1270.5,-272 1264.5,-266 1264.5,-260 1264.5,-260 1264.5,-243 1264.5,-243 1264.5,-237 1270.5,-231 1276.5,-231 1276.5,-231 1356.5,-231 1356.5,-231 1362.5,-231 1368.5,-237 1368.5,-243 1368.5,-243 1368.5,-260 1368.5,-260 1368.5,-266 1362.5,-272 1356.5,-272"/>
<text text-anchor="middle" x="1316.5" y="-260" font-family="Times,serif" font-size="10.00">toka&#45;key&#45;rotation</text>
<text text-anchor="middle" x="1316.5" y="-249" font-family="Times,serif" font-size="10.00">(general)</text>
<text text-anchor="middle" x="1316.5" y="-238" font-family="Times,serif" font-size="10.00">v0.3.0</text>
</g>
<!-- toka&#45;key&#45;rotation&#45;&gt;toka&#45;capability&#45;core -->
<g id="edge22" class="edge">
<title>toka&#45;key&#45;rotation&#45;&gt;toka&#45;capability&#45;core</title>
<path fill="none" stroke="gray" d="M1267.08,-230.99C1240.57,-220.53 1207.86,-207.62 1180.67,-196.88"/>
<polygon fill="gray" stroke="gray" points="1181.3,-195.25 1176.01,-195.04 1180.01,-198.51 1181.3,-195.25"/>
</g>
<!-- toka&#45;performance -->
<g id="node22" class="node">
<title>toka&#45;performance</title>
<path fill="#d5dbdb" stroke="black" d="M1404,-349C1404,-349 1321,-349 1321,-349 1315,-349 1309,-343 1309,-337 1309,-337 1309,-320 1309,-320 1309,-314 1315,-308 1321,-308 1321,-308 1404,-308 1404,-308 1410,-308 1416,-314 1416,-320 1416,-320 1416,-337 1416,-337 1416,-343 1410,-349 1404,-349"/>
<text text-anchor="middle" x="1362.5" y="-337" font-family="Times,serif" font-size="10.00">toka&#45;performance</text>
<text text-anchor="middle" x="1362.5" y="-326" font-family="Times,serif" font-size="10.00">(general)</text>
<text text-anchor="middle" x="1362.5" y="-315" font-family="Times,serif" font-size="10.00">v0.3.0</text>
</g>
<!-- raft&#45;storage -->
<g id="node23" class="node">
<title>raft&#45;storage</title>
<path fill="#4ecdc4" stroke="black" d="M818,-349C818,-349 765,-349 765,-349 759,-349 753,-343 753,-337 753,-337 753,-320 753,-320 753,-314 759,-308 765,-308 765,-308 818,-308 818,-308 824,-308 830,-314 830,-320 830,-320 830,-337 830,-337 830,-343 824,-349 818,-349"/>
<text text-anchor="middle" x="791.5" y="-337" font-family="Times,serif" font-size="10.00">raft&#45;storage</text>
<text text-anchor="middle" x="791.5" y="-326" font-family="Times,serif" font-size="10.00">(storage)</text>
<text text-anchor="middle" x="791.5" y="-315" font-family="Times,serif" font-size="10.00">v0.2.1</text>
</g>
<!-- raft&#45;storage&#45;&gt;raft&#45;core -->
<g id="edge23" class="edge">
<title>raft&#45;storage&#45;&gt;raft&#45;core</title>
<path fill="none" stroke="gray" d="M791.5,-307.79C791.5,-298.41 791.5,-287.08 791.5,-277.13"/>
<polygon fill="gray" stroke="gray" points="793.25,-277.07 791.5,-272.07 789.75,-277.07 793.25,-277.07"/>
</g>
<!-- legend_core -->
<g id="node24" class="node">
<title>legend_core</title>
<path fill="#ff6b6b" stroke="black" d="M2333.5,-346.5C2333.5,-346.5 2303.5,-346.5 2303.5,-346.5 2297.5,-346.5 2291.5,-340.5 2291.5,-334.5 2291.5,-334.5 2291.5,-322.5 2291.5,-322.5 2291.5,-316.5 2297.5,-310.5 2303.5,-310.5 2303.5,-310.5 2333.5,-310.5 2333.5,-310.5 2339.5,-310.5 2345.5,-316.5 2345.5,-322.5 2345.5,-322.5 2345.5,-334.5 2345.5,-334.5 2345.5,-340.5 2339.5,-346.5 2333.5,-346.5"/>
<text text-anchor="middle" x="2318.5" y="-324.8" font-family="Times,serif" font-size="14.00">core</text>
</g>
<!-- legend_storage -->
<g id="node25" class="node">
<title>legend_storage</title>
<path fill="#4ecdc4" stroke="black" d="M2261,-346.5C2261,-346.5 2214,-346.5 2214,-346.5 2208,-346.5 2202,-340.5 2202,-334.5 2202,-334.5 2202,-322.5 2202,-322.5 2202,-316.5 2208,-310.5 2214,-310.5 2214,-310.5 2261,-310.5 2261,-310.5 2267,-310.5 2273,-316.5 2273,-322.5 2273,-322.5 2273,-334.5 2273,-334.5 2273,-340.5 2267,-346.5 2261,-346.5"/>
<text text-anchor="middle" x="2237.5" y="-324.8" font-family="Times,serif" font-size="14.00">storage</text>
</g>
<!-- legend_security -->
<g id="node26" class="node">
<title>legend_security</title>
<path fill="#45b7d1" stroke="black" d="M2171.5,-346.5C2171.5,-346.5 2121.5,-346.5 2121.5,-346.5 2115.5,-346.5 2109.5,-340.5 2109.5,-334.5 2109.5,-334.5 2109.5,-322.5 2109.5,-322.5 2109.5,-316.5 2115.5,-310.5 2121.5,-310.5 2121.5,-310.5 2171.5,-310.5 2171.5,-310.5 2177.5,-310.5 2183.5,-316.5 2183.5,-322.5 2183.5,-322.5 2183.5,-334.5 2183.5,-334.5 2183.5,-340.5 2177.5,-346.5 2171.5,-346.5"/>
<text text-anchor="middle" x="2146.5" y="-324.8" font-family="Times,serif" font-size="14.00">security</text>
</g>
<!-- legend_runtime -->
<g id="node27" class="node">
<title>legend_runtime</title>
<path fill="#96ceb4" stroke="black" d="M2079.5,-346.5C2079.5,-346.5 2029.5,-346.5 2029.5,-346.5 2023.5,-346.5 2017.5,-340.5 2017.5,-334.5 2017.5,-334.5 2017.5,-322.5 2017.5,-322.5 2017.5,-316.5 2023.5,-310.5 2029.5,-310.5 2029.5,-310.5 2079.5,-310.5 2079.5,-310.5 2085.5,-310.5 2091.5,-316.5 2091.5,-322.5 2091.5,-322.5 2091.5,-334.5 2091.5,-334.5 2091.5,-340.5 2085.5,-346.5 2079.5,-346.5"/>
<text text-anchor="middle" x="2054.5" y="-324.8" font-family="Times,serif" font-size="14.00">runtime</text>
</g>
<!-- legend_tools -->
<g id="node28" class="node">
<title>legend_tools</title>
<path fill="#ffeaa7" stroke="black" d="M1987.5,-346.5C1987.5,-346.5 1957.5,-346.5 1957.5,-346.5 1951.5,-346.5 1945.5,-340.5 1945.5,-334.5 1945.5,-334.5 1945.5,-322.5 1945.5,-322.5 1945.5,-316.5 1951.5,-310.5 1957.5,-310.5 1957.5,-310.5 1987.5,-310.5 1987.5,-310.5 1993.5,-310.5 1999.5,-316.5 1999.5,-322.5 1999.5,-322.5 1999.5,-334.5 1999.5,-334.5 1999.5,-340.5 1993.5,-346.5 1987.5,-346.5"/>
<text text-anchor="middle" x="1972.5" y="-324.8" font-family="Times,serif" font-size="14.00">tools</text>
</g>
<!-- legend_llm -->
<g id="node29" class="node">
<title>legend_llm</title>
<path fill="#dda0dd" stroke="black" d="M1915.5,-346.5C1915.5,-346.5 1885.5,-346.5 1885.5,-346.5 1879.5,-346.5 1873.5,-340.5 1873.5,-334.5 1873.5,-334.5 1873.5,-322.5 1873.5,-322.5 1873.5,-316.5 1879.5,-310.5 1885.5,-310.5 1885.5,-310.5 1915.5,-310.5 1915.5,-310.5 1921.5,-310.5 1927.5,-316.5 1927.5,-322.5 1927.5,-322.5 1927.5,-334.5 1927.5,-334.5 1927.5,-340.5 1921.5,-346.5 1915.5,-346.5"/>
<text text-anchor="middle" x="1900.5" y="-324.8" font-family="Times,serif" font-size="14.00">llm</text>
</g>
<!-- legend_consensus -->
<g id="node30" class="node">
<title>legend_consensus</title>
<path fill="#98d8c8" stroke="black" d="M1843.5,-346.5C1843.5,-346.5 1777.5,-346.5 1777.5,-346.5 1771.5,-346.5 1765.5,-340.5 1765.5,-334.5 1765.5,-334.5 1765.5,-322.5 1765.5,-322.5 1765.5,-316.5 1771.5,-310.5 1777.5,-310.5 1777.5,-310.5 1843.5,-310.5 1843.5,-310.5 1849.5,-310.5 1855.5,-316.5 1855.5,-322.5 1855.5,-322.5 1855.5,-334.5 1855.5,-334.5 1855.5,-340.5 1849.5,-346.5 1843.5,-346.5"/>
<text text-anchor="middle" x="1810.5" y="-324.8" font-family="Times,serif" font-size="14.00">consensus</text>
</g>
<!-- legend_orchestration -->
<g id="node31" class="node">
<title>legend_orchestration</title>
<path fill="#f7dc6f" stroke="black" d="M1735,-346.5C1735,-346.5 1646,-346.5 1646,-346.5 1640,-346.5 1634,-340.5 1634,-334.5 1634,-334.5 1634,-322.5 1634,-322.5 1634,-316.5 1640,-310.5 1646,-310.5 1646,-310.5 1735,-310.5 1735,-310.5 1741,-310.5 1747,-316.5 1747,-322.5 1747,-322.5 1747,-334.5 1747,-334.5 1747,-340.5 1741,-346.5 1735,-346.5"/>
<text text-anchor="middle" x="1690.5" y="-324.8" font-family="Times,serif" font-size="14.00">orchestration</text>
</g>
<!-- legend_messaging -->
<g id="node32" class="node">
<title>legend_messaging</title>
<path fill="#aed6f1" stroke="black" d="M1604,-346.5C1604,-346.5 1535,-346.5 1535,-346.5 1529,-346.5 1523,-340.5 1523,-334.5 1523,-334.5 1523,-322.5 1523,-322.5 1523,-316.5 1529,-310.5 1535,-310.5 1535,-310.5 1604,-310.5 1604,-310.5 1610,-310.5 1616,-316.5 1616,-322.5 1616,-322.5 1616,-334.5 1616,-334.5 1616,-340.5 1610,-346.5 1604,-346.5"/>
<text text-anchor="middle" x="1569.5" y="-324.8" font-family="Times,serif" font-size="14.00">messaging</text>
</g>
<!-- legend_general -->
<g id="node33" class="node">
<title>legend_general</title>
<path fill="#d5dbdb" stroke="black" d="M1493,-346.5C1493,-346.5 1446,-346.5 1446,-346.5 1440,-346.5 1434,-340.5 1434,-334.5 1434,-334.5 1434,-322.5 1434,-322.5 1434,-316.5 1440,-310.5 1446,-310.5 1446,-310.5 1493,-310.5 1493,-310.5 1499,-310.5 1505,-316.5 1505,-322.5 1505,-322.5 1505,-334.5 1505,-334.5 1505,-340.5 1499,-346.5 1493,-346.5"/>
<text text-anchor="middle" x="1469.5" y="-324.8" font-family="Times,serif" font-size="14.00">general</text>
</g>
</g>
</svg>
