<?xml version="1.0" encoding="UTF-8" standalone="no"?>
<!DOCTYPE svg PUBLIC "-//W3C//DTD SVG 1.1//EN"
 "http://www.w3.org/Graphics/SVG/1.1/DTD/svg11.dtd">
<!-- Generated by graphviz version 2.42.4 (0)
 -->
<!-- Pages: 1 -->
<svg width="6000pt" height="936pt"
 viewBox="0.00 0.00 1440.00 224.63" xmlns="http://www.w3.org/2000/svg" xmlns:xlink="http://www.w3.org/1999/xlink">
<g id="graph0" class="graph" transform="scale(2.38 2.38) rotate(0) translate(4 389.5)">
<polygon fill="white" stroke="transparent" points="-4,4 -4,-389.5 2518.5,-389.5 2518.5,4 -4,4"/>
<g id="clust1" class="cluster">
<title>cluster_legend</title>
<polygon fill="lightgray" stroke="black" points="1578.5,-302.5 1578.5,-377.5 2506.5,-377.5 2506.5,-302.5 1578.5,-302.5"/>
<text text-anchor="middle" x="2042.5" y="-362.3" font-family="Times,serif" font-size="14.00">Categories</text>
</g>
<!-- toka&#45;store&#45;semantic -->
<g id="node1" class="node">
<title>toka&#45;store&#45;semantic</title>
<path fill="#4ecdc4" stroke="black" d="M399,-118C399,-118 298,-118 298,-118 292,-118 286,-112 286,-106 286,-106 286,-89 286,-89 286,-83 292,-77 298,-77 298,-77 399,-77 399,-77 405,-77 411,-83 411,-89 411,-89 411,-106 411,-106 411,-112 405,-118 399,-118"/>
<text text-anchor="middle" x="348.5" y="-106" font-family="Times,serif" font-size="10.00">toka&#45;store&#45;semantic</text>
<text text-anchor="middle" x="348.5" y="-95" font-family="Times,serif" font-size="10.00">(storage)</text>
<text text-anchor="middle" x="348.5" y="-84" font-family="Times,serif" font-size="10.00">v{&#39;workspace&#39;: True}</text>
</g>
<!-- toka&#45;store&#45;core -->
<g id="node11" class="node">
<title>toka&#45;store&#45;core</title>
<path fill="#4ecdc4" stroke="black" d="M399,-41C399,-41 298,-41 298,-41 292,-41 286,-35 286,-29 286,-29 286,-12 286,-12 286,-6 292,0 298,0 298,0 399,0 399,0 405,0 411,-6 411,-12 411,-12 411,-29 411,-29 411,-35 405,-41 399,-41"/>
<text text-anchor="middle" x="348.5" y="-29" font-family="Times,serif" font-size="10.00">toka&#45;store&#45;core</text>
<text text-anchor="middle" x="348.5" y="-18" font-family="Times,serif" font-size="10.00">(storage)</text>
<text text-anchor="middle" x="348.5" y="-7" font-family="Times,serif" font-size="10.00">v{&#39;workspace&#39;: True}</text>
</g>
<!-- toka&#45;store&#45;semantic&#45;&gt;toka&#45;store&#45;core -->
<g id="edge1" class="edge">
<title>toka&#45;store&#45;semantic&#45;&gt;toka&#45;store&#45;core</title>
<path fill="none" stroke="gray" d="M348.5,-76.79C348.5,-67.41 348.5,-56.08 348.5,-46.13"/>
<polygon fill="gray" stroke="gray" points="350.25,-46.07 348.5,-41.07 346.75,-46.07 350.25,-46.07"/>
</g>
<!-- toka&#45;orchestration -->
<g id="node2" class="node">
<title>toka&#45;orchestration</title>
<path fill="#f7dc6f" stroke="black" d="M670.5,-349C670.5,-349 584.5,-349 584.5,-349 578.5,-349 572.5,-343 572.5,-337 572.5,-337 572.5,-320 572.5,-320 572.5,-314 578.5,-308 584.5,-308 584.5,-308 670.5,-308 670.5,-308 676.5,-308 682.5,-314 682.5,-320 682.5,-320 682.5,-337 682.5,-337 682.5,-343 676.5,-349 670.5,-349"/>
<text text-anchor="middle" x="627.5" y="-337" font-family="Times,serif" font-size="10.00">toka&#45;orchestration</text>
<text text-anchor="middle" x="627.5" y="-326" font-family="Times,serif" font-size="10.00">(orchestration)</text>
<text text-anchor="middle" x="627.5" y="-315" font-family="Times,serif" font-size="10.00">v0.2.1</text>
</g>
<!-- toka&#45;runtime -->
<g id="node3" class="node">
<title>toka&#45;runtime</title>
<path fill="#96ceb4" stroke="black" d="M542,-195C542,-195 441,-195 441,-195 435,-195 429,-189 429,-183 429,-183 429,-166 429,-166 429,-160 435,-154 441,-154 441,-154 542,-154 542,-154 548,-154 554,-160 554,-166 554,-166 554,-183 554,-183 554,-189 548,-195 542,-195"/>
<text text-anchor="middle" x="491.5" y="-183" font-family="Times,serif" font-size="10.00">toka&#45;runtime</text>
<text text-anchor="middle" x="491.5" y="-172" font-family="Times,serif" font-size="10.00">(runtime)</text>
<text text-anchor="middle" x="491.5" y="-161" font-family="Times,serif" font-size="10.00">v{&#39;workspace&#39;: True}</text>
</g>
<!-- toka&#45;orchestration&#45;&gt;toka&#45;runtime -->
<g id="edge5" class="edge">
<title>toka&#45;orchestration&#45;&gt;toka&#45;runtime</title>
<path fill="none" stroke="gray" d="M572.46,-313.33C550.07,-304.86 525.89,-291.79 510.5,-272 494.65,-251.62 490.89,-221.66 490.48,-200.54"/>
<polygon fill="gray" stroke="gray" points="492.22,-200.35 490.44,-195.37 488.72,-200.38 492.22,-200.35"/>
</g>
<!-- toka&#45;agent&#45;runtime -->
<g id="node6" class="node">
<title>toka&#45;agent&#45;runtime</title>
<path fill="#96ceb4" stroke="black" d="M633,-272C633,-272 532,-272 532,-272 526,-272 520,-266 520,-260 520,-260 520,-243 520,-243 520,-237 526,-231 532,-231 532,-231 633,-231 633,-231 639,-231 645,-237 645,-243 645,-243 645,-260 645,-260 645,-266 639,-272 633,-272"/>
<text text-anchor="middle" x="582.5" y="-260" font-family="Times,serif" font-size="10.00">toka&#45;agent&#45;runtime</text>
<text text-anchor="middle" x="582.5" y="-249" font-family="Times,serif" font-size="10.00">(runtime)</text>
<text text-anchor="middle" x="582.5" y="-238" font-family="Times,serif" font-size="10.00">v{&#39;workspace&#39;: True}</text>
</g>
<!-- toka&#45;orchestration&#45;&gt;toka&#45;agent&#45;runtime -->
<g id="edge2" class="edge">
<title>toka&#45;orchestration&#45;&gt;toka&#45;agent&#45;runtime</title>
<path fill="none" stroke="gray" d="M615.68,-307.79C609.94,-298.23 603,-286.67 596.95,-276.59"/>
<polygon fill="gray" stroke="gray" points="598.32,-275.46 594.24,-272.07 595.32,-277.26 598.32,-275.46"/>
</g>
<!-- toka&#45;bus&#45;core -->
<g id="node7" class="node">
<title>toka&#45;bus&#45;core</title>
<path fill="#ff6b6b" stroke="black" d="M724,-118C724,-118 623,-118 623,-118 617,-118 611,-112 611,-106 611,-106 611,-89 611,-89 611,-83 617,-77 623,-77 623,-77 724,-77 724,-77 730,-77 736,-83 736,-89 736,-89 736,-106 736,-106 736,-112 730,-118 724,-118"/>
<text text-anchor="middle" x="673.5" y="-106" font-family="Times,serif" font-size="10.00">toka&#45;bus&#45;core</text>
<text text-anchor="middle" x="673.5" y="-95" font-family="Times,serif" font-size="10.00">(core)</text>
<text text-anchor="middle" x="673.5" y="-84" font-family="Times,serif" font-size="10.00">v{&#39;workspace&#39;: True}</text>
</g>
<!-- toka&#45;orchestration&#45;&gt;toka&#45;bus&#45;core -->
<g id="edge4" class="edge">
<title>toka&#45;orchestration&#45;&gt;toka&#45;bus&#45;core</title>
<path fill="none" stroke="gray" d="M648.36,-307.9C672.11,-283.95 709.45,-240.91 723.5,-195 728.83,-177.58 730.03,-171.01 723.5,-154 718.86,-141.92 710.25,-130.83 701.46,-121.79"/>
<polygon fill="gray" stroke="gray" points="702.47,-120.33 697.69,-118.04 700,-122.81 702.47,-120.33"/>
</g>
<!-- toka&#45;llm&#45;gateway -->
<g id="node14" class="node">
<title>toka&#45;llm&#45;gateway</title>
<path fill="#dda0dd" stroke="black" d="M702.5,-195C702.5,-195 622.5,-195 622.5,-195 616.5,-195 610.5,-189 610.5,-183 610.5,-183 610.5,-166 610.5,-166 610.5,-160 616.5,-154 622.5,-154 622.5,-154 702.5,-154 702.5,-154 708.5,-154 714.5,-160 714.5,-166 714.5,-166 714.5,-183 714.5,-183 714.5,-189 708.5,-195 702.5,-195"/>
<text text-anchor="middle" x="662.5" y="-183" font-family="Times,serif" font-size="10.00">toka&#45;llm&#45;gateway</text>
<text text-anchor="middle" x="662.5" y="-172" font-family="Times,serif" font-size="10.00">(llm)</text>
<text text-anchor="middle" x="662.5" y="-161" font-family="Times,serif" font-size="10.00">v0.3.0</text>
</g>
<!-- toka&#45;orchestration&#45;&gt;toka&#45;llm&#45;gateway -->
<g id="edge3" class="edge">
<title>toka&#45;orchestration&#45;&gt;toka&#45;llm&#45;gateway</title>
<path fill="none" stroke="gray" d="M638.75,-307.84C644.13,-297.5 650.12,-284.42 653.5,-272 659.99,-248.15 661.99,-219.9 662.52,-200.16"/>
<polygon fill="gray" stroke="gray" points="664.27,-200.11 662.63,-195.07 660.78,-200.03 664.27,-200.11"/>
</g>
<!-- toka&#45;store&#45;sqlite -->
<g id="node4" class="node">
<title>toka&#45;store&#45;sqlite</title>
<path fill="#4ecdc4" stroke="black" d="M113,-118C113,-118 12,-118 12,-118 6,-118 0,-112 0,-106 0,-106 0,-89 0,-89 0,-83 6,-77 12,-77 12,-77 113,-77 113,-77 119,-77 125,-83 125,-89 125,-89 125,-106 125,-106 125,-112 119,-118 113,-118"/>
<text text-anchor="middle" x="62.5" y="-106" font-family="Times,serif" font-size="10.00">toka&#45;store&#45;sqlite</text>
<text text-anchor="middle" x="62.5" y="-95" font-family="Times,serif" font-size="10.00">(storage)</text>
<text text-anchor="middle" x="62.5" y="-84" font-family="Times,serif" font-size="10.00">v{&#39;workspace&#39;: True}</text>
</g>
<!-- toka&#45;runtime&#45;&gt;toka&#45;store&#45;sqlite -->
<g id="edge7" class="edge">
<title>toka&#45;runtime&#45;&gt;toka&#45;store&#45;sqlite</title>
<path fill="none" stroke="gray" d="M428.7,-165.97C356.9,-156.86 236.05,-139.96 133.5,-118 132.38,-117.76 131.26,-117.51 130.12,-117.26"/>
<polygon fill="gray" stroke="gray" points="130.39,-115.53 125.12,-116.12 129.61,-118.94 130.39,-115.53"/>
</g>
<!-- toka&#45;runtime&#45;&gt;toka&#45;bus&#45;core -->
<g id="edge9" class="edge">
<title>toka&#45;runtime&#45;&gt;toka&#45;bus&#45;core</title>
<path fill="none" stroke="gray" d="M538.84,-153.99C564.13,-143.57 595.3,-130.72 621.29,-120.02"/>
<polygon fill="gray" stroke="gray" points="622.12,-121.57 626.08,-118.04 620.79,-118.33 622.12,-121.57"/>
</g>
<!-- toka&#45;store&#45;memory -->
<g id="node10" class="node">
<title>toka&#45;store&#45;memory</title>
<path fill="#4ecdc4" stroke="black" d="M256,-118C256,-118 155,-118 155,-118 149,-118 143,-112 143,-106 143,-106 143,-89 143,-89 143,-83 149,-77 155,-77 155,-77 256,-77 256,-77 262,-77 268,-83 268,-89 268,-89 268,-106 268,-106 268,-112 262,-118 256,-118"/>
<text text-anchor="middle" x="205.5" y="-106" font-family="Times,serif" font-size="10.00">toka&#45;store&#45;memory</text>
<text text-anchor="middle" x="205.5" y="-95" font-family="Times,serif" font-size="10.00">(storage)</text>
<text text-anchor="middle" x="205.5" y="-84" font-family="Times,serif" font-size="10.00">v{&#39;workspace&#39;: True}</text>
</g>
<!-- toka&#45;runtime&#45;&gt;toka&#45;store&#45;memory -->
<g id="edge10" class="edge">
<title>toka&#45;runtime&#45;&gt;toka&#45;store&#45;memory</title>
<path fill="none" stroke="gray" d="M428.87,-157.6C385.94,-146.64 327.72,-131.64 276.5,-118 275.4,-117.71 274.28,-117.41 273.16,-117.11"/>
<polygon fill="gray" stroke="gray" points="273.49,-115.38 268.21,-115.78 272.58,-118.76 273.49,-115.38"/>
</g>
<!-- toka&#45;runtime&#45;&gt;toka&#45;store&#45;core -->
<g id="edge8" class="edge">
<title>toka&#45;runtime&#45;&gt;toka&#45;store&#45;core</title>
<path fill="none" stroke="gray" d="M528.95,-153.76C542.06,-144.76 555.3,-132.77 562.5,-118 570.49,-101.62 573.65,-91.41 562.5,-77 544.57,-53.83 471.94,-38.56 416.22,-30.01"/>
<polygon fill="gray" stroke="gray" points="416.42,-28.27 411.22,-29.25 415.9,-31.73 416.42,-28.27"/>
</g>
<!-- toka&#45;store&#45;sled -->
<g id="node13" class="node">
<title>toka&#45;store&#45;sled</title>
<path fill="#4ecdc4" stroke="black" d="M542,-118C542,-118 441,-118 441,-118 435,-118 429,-112 429,-106 429,-106 429,-89 429,-89 429,-83 435,-77 441,-77 441,-77 542,-77 542,-77 548,-77 554,-83 554,-89 554,-89 554,-106 554,-106 554,-112 548,-118 542,-118"/>
<text text-anchor="middle" x="491.5" y="-106" font-family="Times,serif" font-size="10.00">toka&#45;store&#45;sled</text>
<text text-anchor="middle" x="491.5" y="-95" font-family="Times,serif" font-size="10.00">(storage)</text>
<text text-anchor="middle" x="491.5" y="-84" font-family="Times,serif" font-size="10.00">v{&#39;workspace&#39;: True}</text>
</g>
<!-- toka&#45;runtime&#45;&gt;toka&#45;store&#45;sled -->
<g id="edge6" class="edge">
<title>toka&#45;runtime&#45;&gt;toka&#45;store&#45;sled</title>
<path fill="none" stroke="gray" d="M491.5,-153.79C491.5,-144.41 491.5,-133.08 491.5,-123.13"/>
<polygon fill="gray" stroke="gray" points="493.25,-123.07 491.5,-118.07 489.75,-123.07 493.25,-123.07"/>
</g>
<!-- toka&#45;store&#45;sqlite&#45;&gt;toka&#45;store&#45;core -->
<g id="edge11" class="edge">
<title>toka&#45;store&#45;sqlite&#45;&gt;toka&#45;store&#45;core</title>
<path fill="none" stroke="gray" d="M125.21,-79.22C128.01,-78.47 130.78,-77.72 133.5,-77 182.72,-63.89 238.41,-49.53 280.77,-38.7"/>
<polygon fill="gray" stroke="gray" points="281.46,-40.33 285.87,-37.4 280.59,-36.94 281.46,-40.33"/>
</g>
<!-- raft&#45;storage -->
<g id="node5" class="node">
<title>raft&#45;storage</title>
<path fill="#4ecdc4" stroke="black" d="M827,-349C827,-349 774,-349 774,-349 768,-349 762,-343 762,-337 762,-337 762,-320 762,-320 762,-314 768,-308 774,-308 774,-308 827,-308 827,-308 833,-308 839,-314 839,-320 839,-320 839,-337 839,-337 839,-343 833,-349 827,-349"/>
<text text-anchor="middle" x="800.5" y="-337" font-family="Times,serif" font-size="10.00">raft&#45;storage</text>
<text text-anchor="middle" x="800.5" y="-326" font-family="Times,serif" font-size="10.00">(storage)</text>
<text text-anchor="middle" x="800.5" y="-315" font-family="Times,serif" font-size="10.00">v0.2.1</text>
</g>
<!-- raft&#45;core -->
<g id="node18" class="node">
<title>raft&#45;core</title>
<path fill="#ff6b6b" stroke="black" d="M818.5,-272C818.5,-272 782.5,-272 782.5,-272 776.5,-272 770.5,-266 770.5,-260 770.5,-260 770.5,-243 770.5,-243 770.5,-237 776.5,-231 782.5,-231 782.5,-231 818.5,-231 818.5,-231 824.5,-231 830.5,-237 830.5,-243 830.5,-243 830.5,-260 830.5,-260 830.5,-266 824.5,-272 818.5,-272"/>
<text text-anchor="middle" x="800.5" y="-260" font-family="Times,serif" font-size="10.00">raft&#45;core</text>
<text text-anchor="middle" x="800.5" y="-249" font-family="Times,serif" font-size="10.00">(core)</text>
<text text-anchor="middle" x="800.5" y="-238" font-family="Times,serif" font-size="10.00">v0.2.1</text>
</g>
<!-- raft&#45;storage&#45;&gt;raft&#45;core -->
<g id="edge12" class="edge">
<title>raft&#45;storage&#45;&gt;raft&#45;core</title>
<path fill="none" stroke="gray" d="M800.5,-307.79C800.5,-298.41 800.5,-287.08 800.5,-277.13"/>
<polygon fill="gray" stroke="gray" points="802.25,-277.07 800.5,-272.07 798.75,-277.07 802.25,-277.07"/>
</g>
<!-- toka&#45;agent&#45;runtime&#45;&gt;toka&#45;runtime -->
<g id="edge15" class="edge">
<title>toka&#45;agent&#45;runtime&#45;&gt;toka&#45;runtime</title>
<path fill="none" stroke="gray" d="M558.59,-230.79C546.57,-220.89 531.94,-208.83 519.41,-198.5"/>
<polygon fill="gray" stroke="gray" points="520.22,-196.9 515.25,-195.07 517.99,-199.6 520.22,-196.9"/>
</g>
<!-- toka&#45;agent&#45;runtime&#45;&gt;toka&#45;bus&#45;core -->
<g id="edge14" class="edge">
<title>toka&#45;agent&#45;runtime&#45;&gt;toka&#45;bus&#45;core</title>
<path fill="none" stroke="gray" d="M582.4,-230.92C583.15,-210.32 586.85,-177.67 601.5,-154 609.56,-140.98 621.85,-129.85 634.01,-121.06"/>
<polygon fill="gray" stroke="gray" points="635.04,-122.48 638.13,-118.17 633.03,-119.61 635.04,-122.48"/>
</g>
<!-- toka&#45;agent&#45;runtime&#45;&gt;toka&#45;llm&#45;gateway -->
<g id="edge13" class="edge">
<title>toka&#45;agent&#45;runtime&#45;&gt;toka&#45;llm&#45;gateway</title>
<path fill="none" stroke="gray" d="M603.52,-230.79C614.08,-220.89 626.95,-208.83 637.96,-198.5"/>
<polygon fill="gray" stroke="gray" points="639.17,-199.77 641.62,-195.07 636.78,-197.22 639.17,-199.77"/>
</g>
<!-- toka&#45;cli -->
<g id="node8" class="node">
<title>toka&#45;cli</title>
<path fill="#ffeaa7" stroke="black" d="M451,-272C451,-272 350,-272 350,-272 344,-272 338,-266 338,-260 338,-260 338,-243 338,-243 338,-237 344,-231 350,-231 350,-231 451,-231 451,-231 457,-231 463,-237 463,-243 463,-243 463,-260 463,-260 463,-266 457,-272 451,-272"/>
<text text-anchor="middle" x="400.5" y="-260" font-family="Times,serif" font-size="10.00">toka&#45;cli</text>
<text text-anchor="middle" x="400.5" y="-249" font-family="Times,serif" font-size="10.00">(tools)</text>
<text text-anchor="middle" x="400.5" y="-238" font-family="Times,serif" font-size="10.00">v{&#39;workspace&#39;: True}</text>
</g>
<!-- toka&#45;cli&#45;&gt;toka&#45;runtime -->
<g id="edge16" class="edge">
<title>toka&#45;cli&#45;&gt;toka&#45;runtime</title>
<path fill="none" stroke="gray" d="M424.41,-230.79C436.43,-220.89 451.06,-208.83 463.59,-198.5"/>
<polygon fill="gray" stroke="gray" points="465.01,-199.6 467.75,-195.07 462.78,-196.9 465.01,-199.6"/>
</g>
<!-- toka&#45;tools -->
<g id="node9" class="node">
<title>toka&#45;tools</title>
<path fill="#ffeaa7" stroke="black" d="M911.5,-349C911.5,-349 869.5,-349 869.5,-349 863.5,-349 857.5,-343 857.5,-337 857.5,-337 857.5,-320 857.5,-320 857.5,-314 863.5,-308 869.5,-308 869.5,-308 911.5,-308 911.5,-308 917.5,-308 923.5,-314 923.5,-320 923.5,-320 923.5,-337 923.5,-337 923.5,-343 917.5,-349 911.5,-349"/>
<text text-anchor="middle" x="890.5" y="-337" font-family="Times,serif" font-size="10.00">toka&#45;tools</text>
<text text-anchor="middle" x="890.5" y="-326" font-family="Times,serif" font-size="10.00">(tools)</text>
<text text-anchor="middle" x="890.5" y="-315" font-family="Times,serif" font-size="10.00">v0.1.0</text>
</g>
<!-- toka&#45;store&#45;memory&#45;&gt;toka&#45;store&#45;core -->
<g id="edge17" class="edge">
<title>toka&#45;store&#45;memory&#45;&gt;toka&#45;store&#45;core</title>
<path fill="none" stroke="gray" d="M242.7,-76.99C262.24,-66.74 286.26,-54.14 306.47,-43.54"/>
<polygon fill="gray" stroke="gray" points="307.38,-45.04 310.99,-41.17 305.75,-41.95 307.38,-45.04"/>
</g>
<!-- toka&#45;config&#45;cli -->
<g id="node12" class="node">
<title>toka&#45;config&#45;cli</title>
<path fill="#ffeaa7" stroke="black" d="M1055,-349C1055,-349 954,-349 954,-349 948,-349 942,-343 942,-337 942,-337 942,-320 942,-320 942,-314 948,-308 954,-308 954,-308 1055,-308 1055,-308 1061,-308 1067,-314 1067,-320 1067,-320 1067,-337 1067,-337 1067,-343 1061,-349 1055,-349"/>
<text text-anchor="middle" x="1004.5" y="-337" font-family="Times,serif" font-size="10.00">toka&#45;config&#45;cli</text>
<text text-anchor="middle" x="1004.5" y="-326" font-family="Times,serif" font-size="10.00">(tools)</text>
<text text-anchor="middle" x="1004.5" y="-315" font-family="Times,serif" font-size="10.00">v{&#39;workspace&#39;: True}</text>
</g>
<!-- toka&#45;store&#45;sled&#45;&gt;toka&#45;store&#45;core -->
<g id="edge18" class="edge">
<title>toka&#45;store&#45;sled&#45;&gt;toka&#45;store&#45;core</title>
<path fill="none" stroke="gray" d="M454.3,-76.99C434.76,-66.74 410.74,-54.14 390.53,-43.54"/>
<polygon fill="gray" stroke="gray" points="391.25,-41.95 386.01,-41.17 389.62,-45.04 391.25,-41.95"/>
</g>
<!-- toka&#45;capability&#45;delegation -->
<g id="node15" class="node">
<title>toka&#45;capability&#45;delegation</title>
<path fill="#d5dbdb" stroke="black" d="M1222,-349C1222,-349 1097,-349 1097,-349 1091,-349 1085,-343 1085,-337 1085,-337 1085,-320 1085,-320 1085,-314 1091,-308 1097,-308 1097,-308 1222,-308 1222,-308 1228,-308 1234,-314 1234,-320 1234,-320 1234,-337 1234,-337 1234,-343 1228,-349 1222,-349"/>
<text text-anchor="middle" x="1159.5" y="-337" font-family="Times,serif" font-size="10.00">toka&#45;capability&#45;delegation</text>
<text text-anchor="middle" x="1159.5" y="-326" font-family="Times,serif" font-size="10.00">(general)</text>
<text text-anchor="middle" x="1159.5" y="-315" font-family="Times,serif" font-size="10.00">v0.3.0</text>
</g>
<!-- toka&#45;capability&#45;core -->
<g id="node16" class="node">
<title>toka&#45;capability&#45;core</title>
<path fill="#ff6b6b" stroke="black" d="M1326,-195C1326,-195 1233,-195 1233,-195 1227,-195 1221,-189 1221,-183 1221,-183 1221,-166 1221,-166 1221,-160 1227,-154 1233,-154 1233,-154 1326,-154 1326,-154 1332,-154 1338,-160 1338,-166 1338,-166 1338,-183 1338,-183 1338,-189 1332,-195 1326,-195"/>
<text text-anchor="middle" x="1279.5" y="-183" font-family="Times,serif" font-size="10.00">toka&#45;capability&#45;core</text>
<text text-anchor="middle" x="1279.5" y="-172" font-family="Times,serif" font-size="10.00">(core)</text>
<text text-anchor="middle" x="1279.5" y="-161" font-family="Times,serif" font-size="10.00">v0.2.0&#45;alpha</text>
</g>
<!-- toka&#45;capability&#45;delegation&#45;&gt;toka&#45;capability&#45;core -->
<g id="edge20" class="edge">
<title>toka&#45;capability&#45;delegation&#45;&gt;toka&#45;capability&#45;core</title>
<path fill="none" stroke="gray" d="M1143.7,-307.86C1129.14,-287.21 1112.09,-254.52 1128.5,-231 1148.22,-202.74 1184.02,-188.83 1215.81,-182"/>
<polygon fill="gray" stroke="gray" points="1216.32,-183.68 1220.87,-180.96 1215.62,-180.25 1216.32,-183.68"/>
</g>
<!-- toka&#45;capability&#45;jwt&#45;hs256 -->
<g id="node20" class="node">
<title>toka&#45;capability&#45;jwt&#45;hs256</title>
<path fill="#d5dbdb" stroke="black" d="M1269.5,-272C1269.5,-272 1149.5,-272 1149.5,-272 1143.5,-272 1137.5,-266 1137.5,-260 1137.5,-260 1137.5,-243 1137.5,-243 1137.5,-237 1143.5,-231 1149.5,-231 1149.5,-231 1269.5,-231 1269.5,-231 1275.5,-231 1281.5,-237 1281.5,-243 1281.5,-243 1281.5,-260 1281.5,-260 1281.5,-266 1275.5,-272 1269.5,-272"/>
<text text-anchor="middle" x="1209.5" y="-260" font-family="Times,serif" font-size="10.00">toka&#45;capability&#45;jwt&#45;hs256</text>
<text text-anchor="middle" x="1209.5" y="-249" font-family="Times,serif" font-size="10.00">(general)</text>
<text text-anchor="middle" x="1209.5" y="-238" font-family="Times,serif" font-size="10.00">v0.2.1</text>
</g>
<!-- toka&#45;capability&#45;delegation&#45;&gt;toka&#45;capability&#45;jwt&#45;hs256 -->
<g id="edge19" class="edge">
<title>toka&#45;capability&#45;delegation&#45;&gt;toka&#45;capability&#45;jwt&#45;hs256</title>
<path fill="none" stroke="gray" d="M1172.64,-307.79C1179.07,-298.15 1186.86,-286.46 1193.62,-276.32"/>
<polygon fill="gray" stroke="gray" points="1195.13,-277.2 1196.45,-272.07 1192.22,-275.26 1195.13,-277.2"/>
</g>
<!-- toka&#45;revocation -->
<g id="node17" class="node">
<title>toka&#45;revocation</title>
<path fill="#d5dbdb" stroke="black" d="M1335,-349C1335,-349 1264,-349 1264,-349 1258,-349 1252,-343 1252,-337 1252,-337 1252,-320 1252,-320 1252,-314 1258,-308 1264,-308 1264,-308 1335,-308 1335,-308 1341,-308 1347,-314 1347,-320 1347,-320 1347,-337 1347,-337 1347,-343 1341,-349 1335,-349"/>
<text text-anchor="middle" x="1299.5" y="-337" font-family="Times,serif" font-size="10.00">toka&#45;revocation</text>
<text text-anchor="middle" x="1299.5" y="-326" font-family="Times,serif" font-size="10.00">(general)</text>
<text text-anchor="middle" x="1299.5" y="-315" font-family="Times,serif" font-size="10.00">v0.2.0&#45;alpha</text>
</g>
<!-- toka&#45;rate&#45;limiter -->
<g id="node19" class="node">
<title>toka&#45;rate&#45;limiter</title>
<path fill="#d5dbdb" stroke="black" d="M1387,-272C1387,-272 1312,-272 1312,-272 1306,-272 1300,-266 1300,-260 1300,-260 1300,-243 1300,-243 1300,-237 1306,-231 1312,-231 1312,-231 1387,-231 1387,-231 1393,-231 1399,-237 1399,-243 1399,-243 1399,-260 1399,-260 1399,-266 1393,-272 1387,-272"/>
<text text-anchor="middle" x="1349.5" y="-260" font-family="Times,serif" font-size="10.00">toka&#45;rate&#45;limiter</text>
<text text-anchor="middle" x="1349.5" y="-249" font-family="Times,serif" font-size="10.00">(general)</text>
<text text-anchor="middle" x="1349.5" y="-238" font-family="Times,serif" font-size="10.00">v0.3.0</text>
</g>
<!-- toka&#45;rate&#45;limiter&#45;&gt;toka&#45;capability&#45;core -->
<g id="edge21" class="edge">
<title>toka&#45;rate&#45;limiter&#45;&gt;toka&#45;capability&#45;core</title>
<path fill="none" stroke="gray" d="M1331.11,-230.79C1321.94,-220.98 1310.8,-209.04 1301.22,-198.77"/>
<polygon fill="gray" stroke="gray" points="1302.46,-197.53 1297.77,-195.07 1299.9,-199.92 1302.46,-197.53"/>
</g>
<!-- toka&#45;capability&#45;jwt&#45;hs256&#45;&gt;toka&#45;capability&#45;core -->
<g id="edge22" class="edge">
<title>toka&#45;capability&#45;jwt&#45;hs256&#45;&gt;toka&#45;capability&#45;core</title>
<path fill="none" stroke="gray" d="M1227.89,-230.79C1237.06,-220.98 1248.2,-209.04 1257.78,-198.77"/>
<polygon fill="gray" stroke="gray" points="1259.1,-199.92 1261.23,-195.07 1256.54,-197.53 1259.1,-199.92"/>
</g>
<!-- toka&#45;cvm -->
<g id="node21" class="node">
<title>toka&#45;cvm</title>
<path fill="#d5dbdb" stroke="black" d="M1432,-349C1432,-349 1377,-349 1377,-349 1371,-349 1365,-343 1365,-337 1365,-337 1365,-320 1365,-320 1365,-314 1371,-308 1377,-308 1377,-308 1432,-308 1432,-308 1438,-308 1444,-314 1444,-320 1444,-320 1444,-337 1444,-337 1444,-343 1438,-349 1432,-349"/>
<text text-anchor="middle" x="1404.5" y="-337" font-family="Times,serif" font-size="10.00">toka&#45;cvm</text>
<text text-anchor="middle" x="1404.5" y="-326" font-family="Times,serif" font-size="10.00">(general)</text>
<text text-anchor="middle" x="1404.5" y="-315" font-family="Times,serif" font-size="10.00">v0.2.0&#45;alpha</text>
</g>
<!-- toka&#45;performance -->
<g id="node22" class="node">
<title>toka&#45;performance</title>
<path fill="#d5dbdb" stroke="black" d="M1557,-349C1557,-349 1474,-349 1474,-349 1468,-349 1462,-343 1462,-337 1462,-337 1462,-320 1462,-320 1462,-314 1468,-308 1474,-308 1474,-308 1557,-308 1557,-308 1563,-308 1569,-314 1569,-320 1569,-320 1569,-337 1569,-337 1569,-343 1563,-349 1557,-349"/>
<text text-anchor="middle" x="1515.5" y="-337" font-family="Times,serif" font-size="10.00">toka&#45;performance</text>
<text text-anchor="middle" x="1515.5" y="-326" font-family="Times,serif" font-size="10.00">(general)</text>
<text text-anchor="middle" x="1515.5" y="-315" font-family="Times,serif" font-size="10.00">v0.3.0</text>
</g>
<!-- toka&#45;key&#45;rotation -->
<g id="node23" class="node">
<title>toka&#45;key&#45;rotation</title>
<path fill="#d5dbdb" stroke="black" d="M1509.5,-272C1509.5,-272 1429.5,-272 1429.5,-272 1423.5,-272 1417.5,-266 1417.5,-260 1417.5,-260 1417.5,-243 1417.5,-243 1417.5,-237 1423.5,-231 1429.5,-231 1429.5,-231 1509.5,-231 1509.5,-231 1515.5,-231 1521.5,-237 1521.5,-243 1521.5,-243 1521.5,-260 1521.5,-260 1521.5,-266 1515.5,-272 1509.5,-272"/>
<text text-anchor="middle" x="1469.5" y="-260" font-family="Times,serif" font-size="10.00">toka&#45;key&#45;rotation</text>
<text text-anchor="middle" x="1469.5" y="-249" font-family="Times,serif" font-size="10.00">(general)</text>
<text text-anchor="middle" x="1469.5" y="-238" font-family="Times,serif" font-size="10.00">v0.3.0</text>
</g>
<!-- toka&#45;key&#45;rotation&#45;&gt;toka&#45;capability&#45;core -->
<g id="edge23" class="edge">
<title>toka&#45;key&#45;rotation&#45;&gt;toka&#45;capability&#45;core</title>
<path fill="none" stroke="gray" d="M1420.08,-230.99C1393.57,-220.53 1360.86,-207.62 1333.67,-196.88"/>
<polygon fill="gray" stroke="gray" points="1334.3,-195.25 1329.01,-195.04 1333.01,-198.51 1334.3,-195.25"/>
</g>
<!-- legend_core -->
<g id="node24" class="node">
<title>legend_core</title>
<path fill="#ff6b6b" stroke="black" d="M2486.5,-346.5C2486.5,-346.5 2456.5,-346.5 2456.5,-346.5 2450.5,-346.5 2444.5,-340.5 2444.5,-334.5 2444.5,-334.5 2444.5,-322.5 2444.5,-322.5 2444.5,-316.5 2450.5,-310.5 2456.5,-310.5 2456.5,-310.5 2486.5,-310.5 2486.5,-310.5 2492.5,-310.5 2498.5,-316.5 2498.5,-322.5 2498.5,-322.5 2498.5,-334.5 2498.5,-334.5 2498.5,-340.5 2492.5,-346.5 2486.5,-346.5"/>
<text text-anchor="middle" x="2471.5" y="-324.8" font-family="Times,serif" font-size="14.00">core</text>
</g>
<!-- legend_storage -->
<g id="node25" class="node">
<title>legend_storage</title>
<path fill="#4ecdc4" stroke="black" d="M2414,-346.5C2414,-346.5 2367,-346.5 2367,-346.5 2361,-346.5 2355,-340.5 2355,-334.5 2355,-334.5 2355,-322.5 2355,-322.5 2355,-316.5 2361,-310.5 2367,-310.5 2367,-310.5 2414,-310.5 2414,-310.5 2420,-310.5 2426,-316.5 2426,-322.5 2426,-322.5 2426,-334.5 2426,-334.5 2426,-340.5 2420,-346.5 2414,-346.5"/>
<text text-anchor="middle" x="2390.5" y="-324.8" font-family="Times,serif" font-size="14.00">storage</text>
</g>
<!-- legend_security -->
<g id="node26" class="node">
<title>legend_security</title>
<path fill="#45b7d1" stroke="black" d="M2324.5,-346.5C2324.5,-346.5 2274.5,-346.5 2274.5,-346.5 2268.5,-346.5 2262.5,-340.5 2262.5,-334.5 2262.5,-334.5 2262.5,-322.5 2262.5,-322.5 2262.5,-316.5 2268.5,-310.5 2274.5,-310.5 2274.5,-310.5 2324.5,-310.5 2324.5,-310.5 2330.5,-310.5 2336.5,-316.5 2336.5,-322.5 2336.5,-322.5 2336.5,-334.5 2336.5,-334.5 2336.5,-340.5 2330.5,-346.5 2324.5,-346.5"/>
<text text-anchor="middle" x="2299.5" y="-324.8" font-family="Times,serif" font-size="14.00">security</text>
</g>
<!-- legend_runtime -->
<g id="node27" class="node">
<title>legend_runtime</title>
<path fill="#96ceb4" stroke="black" d="M2232.5,-346.5C2232.5,-346.5 2182.5,-346.5 2182.5,-346.5 2176.5,-346.5 2170.5,-340.5 2170.5,-334.5 2170.5,-334.5 2170.5,-322.5 2170.5,-322.5 2170.5,-316.5 2176.5,-310.5 2182.5,-310.5 2182.5,-310.5 2232.5,-310.5 2232.5,-310.5 2238.5,-310.5 2244.5,-316.5 2244.5,-322.5 2244.5,-322.5 2244.5,-334.5 2244.5,-334.5 2244.5,-340.5 2238.5,-346.5 2232.5,-346.5"/>
<text text-anchor="middle" x="2207.5" y="-324.8" font-family="Times,serif" font-size="14.00">runtime</text>
</g>
<!-- legend_tools -->
<g id="node28" class="node">
<title>legend_tools</title>
<path fill="#ffeaa7" stroke="black" d="M2140.5,-346.5C2140.5,-346.5 2110.5,-346.5 2110.5,-346.5 2104.5,-346.5 2098.5,-340.5 2098.5,-334.5 2098.5,-334.5 2098.5,-322.5 2098.5,-322.5 2098.5,-316.5 2104.5,-310.5 2110.5,-310.5 2110.5,-310.5 2140.5,-310.5 2140.5,-310.5 2146.5,-310.5 2152.5,-316.5 2152.5,-322.5 2152.5,-322.5 2152.5,-334.5 2152.5,-334.5 2152.5,-340.5 2146.5,-346.5 2140.5,-346.5"/>
<text text-anchor="middle" x="2125.5" y="-324.8" font-family="Times,serif" font-size="14.00">tools</text>
</g>
<!-- legend_llm -->
<g id="node29" class="node">
<title>legend_llm</title>
<path fill="#dda0dd" stroke="black" d="M2068.5,-346.5C2068.5,-346.5 2038.5,-346.5 2038.5,-346.5 2032.5,-346.5 2026.5,-340.5 2026.5,-334.5 2026.5,-334.5 2026.5,-322.5 2026.5,-322.5 2026.5,-316.5 2032.5,-310.5 2038.5,-310.5 2038.5,-310.5 2068.5,-310.5 2068.5,-310.5 2074.5,-310.5 2080.5,-316.5 2080.5,-322.5 2080.5,-322.5 2080.5,-334.5 2080.5,-334.5 2080.5,-340.5 2074.5,-346.5 2068.5,-346.5"/>
<text text-anchor="middle" x="2053.5" y="-324.8" font-family="Times,serif" font-size="14.00">llm</text>
</g>
<!-- legend_consensus -->
<g id="node30" class="node">
<title>legend_consensus</title>
<path fill="#98d8c8" stroke="black" d="M1996.5,-346.5C1996.5,-346.5 1930.5,-346.5 1930.5,-346.5 1924.5,-346.5 1918.5,-340.5 1918.5,-334.5 1918.5,-334.5 1918.5,-322.5 1918.5,-322.5 1918.5,-316.5 1924.5,-310.5 1930.5,-310.5 1930.5,-310.5 1996.5,-310.5 1996.5,-310.5 2002.5,-310.5 2008.5,-316.5 2008.5,-322.5 2008.5,-322.5 2008.5,-334.5 2008.5,-334.5 2008.5,-340.5 2002.5,-346.5 1996.5,-346.5"/>
<text text-anchor="middle" x="1963.5" y="-324.8" font-family="Times,serif" font-size="14.00">consensus</text>
</g>
<!-- legend_orchestration -->
<g id="node31" class="node">
<title>legend_orchestration</title>
<path fill="#f7dc6f" stroke="black" d="M1888,-346.5C1888,-346.5 1799,-346.5 1799,-346.5 1793,-346.5 1787,-340.5 1787,-334.5 1787,-334.5 1787,-322.5 1787,-322.5 1787,-316.5 1793,-310.5 1799,-310.5 1799,-310.5 1888,-310.5 1888,-310.5 1894,-310.5 1900,-316.5 1900,-322.5 1900,-322.5 1900,-334.5 1900,-334.5 1900,-340.5 1894,-346.5 1888,-346.5"/>
<text text-anchor="middle" x="1843.5" y="-324.8" font-family="Times,serif" font-size="14.00">orchestration</text>
</g>
<!-- legend_messaging -->
<g id="node32" class="node">
<title>legend_messaging</title>
<path fill="#aed6f1" stroke="black" d="M1757,-346.5C1757,-346.5 1688,-346.5 1688,-346.5 1682,-346.5 1676,-340.5 1676,-334.5 1676,-334.5 1676,-322.5 1676,-322.5 1676,-316.5 1682,-310.5 1688,-310.5 1688,-310.5 1757,-310.5 1757,-310.5 1763,-310.5 1769,-316.5 1769,-322.5 1769,-322.5 1769,-334.5 1769,-334.5 1769,-340.5 1763,-346.5 1757,-346.5"/>
<text text-anchor="middle" x="1722.5" y="-324.8" font-family="Times,serif" font-size="14.00">messaging</text>
</g>
<!-- legend_general -->
<g id="node33" class="node">
<title>legend_general</title>
<path fill="#d5dbdb" stroke="black" d="M1646,-346.5C1646,-346.5 1599,-346.5 1599,-346.5 1593,-346.5 1587,-340.5 1587,-334.5 1587,-334.5 1587,-322.5 1587,-322.5 1587,-316.5 1593,-310.5 1599,-310.5 1599,-310.5 1646,-310.5 1646,-310.5 1652,-310.5 1658,-316.5 1658,-322.5 1658,-322.5 1658,-334.5 1658,-334.5 1658,-340.5 1652,-346.5 1646,-346.5"/>
<text text-anchor="middle" x="1622.5" y="-324.8" font-family="Times,serif" font-size="14.00">general</text>
</g>
</g>
</svg>
